  0
SECTION
  2
HEADER
  9
$ACADVER
  1
AC1009
  9
$EXTMIN
 10
0.0
 20
0.0
 30
0.0
  9
$EXTMAX
 10
1000.0
 20
1000.0
 30
0.0
  9
$FILLMODE
 70
 0
  9
$SPLFRAME
 70
 1
  0
ENDSEC
  0
SECTION
  2
TABLES
  0
TABLE
  2
LAYER
 70
1
  0
LAYER
  2
0
 70
     0
 62
     7
  6
CONTINUOUS
  0
ENDTAB
  0
ENDSEC
  0
SECTION
  2
ENTITIES
  0
LINE
  8
0
 62
     0
 10
0.0937066
 20
172.969
 30
0.0
 11
260.595
 21
172.969
 31
0.0
  0
LINE
  8
0
 62
     0
 10
260.595
 20
172.969
 30
0.0
 11
260.595
 21
0.0923286
 31
0.0
  0
LINE
  8
0
 62
     0
 10
260.595
 20
0.0923286
 30
0.0
 11
0.0937066
 21
0.0923286
 31
0.0
  0
LINE
  8
0
 62
     0
 10
0.0937066
 20
0.0923286
 30
0.0
 11
0.0937066
 21
172.969
 31
0.0
  0
LINE
  8
0
 62
     0
 10
255.13
 20
6.51951
 30
0.0
 11
254.713
 21
6.3059
 31
0.0
  0
LINE
  8
0
 62
     0
 10
254.713
 20
6.3059
 30
0.0
 11
254.38
 21
5.97517
 31
0.0
  0
LINE
  8
0
 62
     0
 10
254.38
 20
5.97517
 30
0.0
 11
254.168
 21
5.55625
 31
0.0
  0
LINE
  8
0
 62
     0
 10
254.168
 20
5.55625
 30
0.0
 11
254.094
 21
5.09323
 31
0.0
  0
LINE
  8
0
 62
     0
 10
254.094
 20
5.09323
 30
0.0
 11
254.168
 21
4.63021
 31
0.0
  0
LINE
  8
0
 62
     0
 10
254.168
 20
4.63021
 30
0.0
 11
254.38
 21
4.21128
 31
0.0
  0
LINE
  8
0
 62
     0
 10
254.38
 20
4.21128
 30
0.0
 11
254.713
 21
3.87918
 31
0.0
  0
LINE
  8
0
 62
     0
 10
254.713
 20
3.87918
 30
0.0
 11
255.13
 21
3.66695
 31
0.0
  0
LINE
  8
0
 62
     0
 10
255.13
 20
3.66695
 30
0.0
 11
255.595
 21
3.59255
 31
0.0
  0
LINE
  8
0
 62
     0
 10
255.595
 20
3.59255
 30
0.0
 11
256.057
 21
3.66695
 31
0.0
  0
LINE
  8
0
 62
     0
 10
256.057
 20
3.66695
 30
0.0
 11
256.477
 21
3.87918
 31
0.0
  0
LINE
  8
0
 62
     0
 10
256.477
 20
3.87918
 30
0.0
 11
256.808
 21
4.21128
 31
0.0
  0
LINE
  8
0
 62
     0
 10
256.808
 20
4.21128
 30
0.0
 11
257.021
 21
4.63021
 31
0.0
  0
LINE
  8
0
 62
     0
 10
257.021
 20
4.63021
 30
0.0
 11
257.094
 21
5.09323
 31
0.0
  0
LINE
  8
0
 62
     0
 10
257.094
 20
5.09323
 30
0.0
 11
257.021
 21
5.55625
 31
0.0
  0
LINE
  8
0
 62
     0
 10
257.021
 20
5.55625
 30
0.0
 11
256.808
 21
5.97517
 31
0.0
  0
LINE
  8
0
 62
     0
 10
256.808
 20
5.97517
 30
0.0
 11
256.477
 21
6.3059
 31
0.0
  0
LINE
  8
0
 62
     0
 10
256.477
 20
6.3059
 30
0.0
 11
256.057
 21
6.51951
 31
0.0
  0
LINE
  8
0
 62
     0
 10
256.057
 20
6.51951
 30
0.0
 11
255.595
 21
6.59253
 31
0.0
  0
LINE
  8
0
 62
     0
 10
255.595
 20
6.59253
 30
0.0
 11
255.13
 21
6.51951
 31
0.0
  0
LINE
  8
0
 62
     0
 10
171.631
 20
6.51951
 30
0.0
 11
171.212
 21
6.3059
 31
0.0
  0
LINE
  8
0
 62
     0
 10
171.212
 20
6.3059
 30
0.0
 11
170.881
 21
5.97517
 31
0.0
  0
LINE
  8
0
 62
     0
 10
170.881
 20
5.97517
 30
0.0
 11
170.667
 21
5.55625
 31
0.0
  0
LINE
  8
0
 62
     0
 10
170.667
 20
5.55625
 30
0.0
 11
170.594
 21
5.09323
 31
0.0
  0
LINE
  8
0
 62
     0
 10
170.594
 20
5.09323
 30
0.0
 11
170.667
 21
4.63021
 31
0.0
  0
LINE
  8
0
 62
     0
 10
170.667
 20
4.63021
 30
0.0
 11
170.881
 21
4.21128
 31
0.0
  0
LINE
  8
0
 62
     0
 10
170.881
 20
4.21128
 30
0.0
 11
171.212
 21
3.87918
 31
0.0
  0
LINE
  8
0
 62
     0
 10
171.212
 20
3.87918
 30
0.0
 11
171.631
 21
3.66695
 31
0.0
  0
LINE
  8
0
 62
     0
 10
171.631
 20
3.66695
 30
0.0
 11
172.093
 21
3.59255
 31
0.0
  0
LINE
  8
0
 62
     0
 10
172.093
 20
3.59255
 30
0.0
 11
172.558
 21
3.66695
 31
0.0
  0
LINE
  8
0
 62
     0
 10
172.558
 20
3.66695
 30
0.0
 11
172.975
 21
3.87918
 31
0.0
  0
LINE
  8
0
 62
     0
 10
172.975
 20
3.87918
 30
0.0
 11
173.308
 21
4.21128
 31
0.0
  0
LINE
  8
0
 62
     0
 10
173.308
 20
4.21128
 30
0.0
 11
173.521
 21
4.63021
 31
0.0
  0
LINE
  8
0
 62
     0
 10
173.521
 20
4.63021
 30
0.0
 11
173.594
 21
5.09323
 31
0.0
  0
LINE
  8
0
 62
     0
 10
173.594
 20
5.09323
 30
0.0
 11
173.521
 21
5.55625
 31
0.0
  0
LINE
  8
0
 62
     0
 10
173.521
 20
5.55625
 30
0.0
 11
173.308
 21
5.97517
 31
0.0
  0
LINE
  8
0
 62
     0
 10
173.308
 20
5.97517
 30
0.0
 11
172.975
 21
6.3059
 31
0.0
  0
LINE
  8
0
 62
     0
 10
172.975
 20
6.3059
 30
0.0
 11
172.558
 21
6.51951
 31
0.0
  0
LINE
  8
0
 62
     0
 10
172.558
 20
6.51951
 30
0.0
 11
172.093
 21
6.59253
 31
0.0
  0
LINE
  8
0
 62
     0
 10
172.093
 20
6.59253
 30
0.0
 11
171.631
 21
6.51951
 31
0.0
  0
LINE
  8
0
 62
     0
 10
88.1295
 20
6.51951
 30
0.0
 11
87.7122
 21
6.3059
 31
0.0
  0
LINE
  8
0
 62
     0
 10
87.7122
 20
6.3059
 30
0.0
 11
87.3799
 21
5.97517
 31
0.0
  0
LINE
  8
0
 62
     0
 10
87.3799
 20
5.97517
 30
0.0
 11
87.1664
 21
5.55625
 31
0.0
  0
LINE
  8
0
 62
     0
 10
87.1664
 20
5.55625
 30
0.0
 11
87.0934
 21
5.09323
 31
0.0
  0
LINE
  8
0
 62
     0
 10
87.0934
 20
5.09323
 30
0.0
 11
87.1664
 21
4.63021
 31
0.0
  0
LINE
  8
0
 62
     0
 10
87.1664
 20
4.63021
 30
0.0
 11
87.3799
 21
4.21128
 31
0.0
  0
LINE
  8
0
 62
     0
 10
87.3799
 20
4.21128
 30
0.0
 11
87.7122
 21
3.87918
 31
0.0
  0
LINE
  8
0
 62
     0
 10
87.7122
 20
3.87918
 30
0.0
 11
88.1295
 21
3.66695
 31
0.0
  0
LINE
  8
0
 62
     0
 10
88.1295
 20
3.66695
 30
0.0
 11
88.5941
 21
3.59255
 31
0.0
  0
LINE
  8
0
 62
     0
 10
88.5941
 20
3.59255
 30
0.0
 11
89.057
 21
3.66695
 31
0.0
  0
LINE
  8
0
 62
     0
 10
89.057
 20
3.66695
 30
0.0
 11
89.4761
 21
3.87918
 31
0.0
  0
LINE
  8
0
 62
     0
 10
89.4761
 20
3.87918
 30
0.0
 11
89.8066
 21
4.21128
 31
0.0
  0
LINE
  8
0
 62
     0
 10
89.8066
 20
4.21128
 30
0.0
 11
90.0204
 21
4.63021
 31
0.0
  0
LINE
  8
0
 62
     0
 10
90.0204
 20
4.63021
 30
0.0
 11
90.0934
 21
5.09323
 31
0.0
  0
LINE
  8
0
 62
     0
 10
90.0934
 20
5.09323
 30
0.0
 11
90.0204
 21
5.55625
 31
0.0
  0
LINE
  8
0
 62
     0
 10
90.0204
 20
5.55625
 30
0.0
 11
89.8066
 21
5.97517
 31
0.0
  0
LINE
  8
0
 62
     0
 10
89.8066
 20
5.97517
 30
0.0
 11
89.4761
 21
6.3059
 31
0.0
  0
LINE
  8
0
 62
     0
 10
89.4761
 20
6.3059
 30
0.0
 11
89.057
 21
6.51951
 31
0.0
  0
LINE
  8
0
 62
     0
 10
89.057
 20
6.51951
 30
0.0
 11
88.5941
 21
6.59253
 31
0.0
  0
LINE
  8
0
 62
     0
 10
88.5941
 20
6.59253
 30
0.0
 11
88.1295
 21
6.51951
 31
0.0
  0
LINE
  8
0
 62
     0
 10
4.63021
 20
6.51951
 30
0.0
 11
4.21128
 21
6.3059
 31
0.0
  0
LINE
  8
0
 62
     0
 10
4.21128
 20
6.3059
 30
0.0
 11
3.87918
 21
5.97517
 31
0.0
  0
LINE
  8
0
 62
     0
 10
3.87918
 20
5.97517
 30
0.0
 11
3.66695
 21
5.55625
 31
0.0
  0
LINE
  8
0
 62
     0
 10
3.66695
 20
5.55625
 30
0.0
 11
3.59392
 21
5.09323
 31
0.0
  0
LINE
  8
0
 62
     0
 10
3.59392
 20
5.09323
 30
0.0
 11
3.66695
 21
4.63021
 31
0.0
  0
LINE
  8
0
 62
     0
 10
3.66695
 20
4.63021
 30
0.0
 11
3.87918
 21
4.21128
 31
0.0
  0
LINE
  8
0
 62
     0
 10
3.87918
 20
4.21128
 30
0.0
 11
4.21128
 21
3.87918
 31
0.0
  0
LINE
  8
0
 62
     0
 10
4.21128
 20
3.87918
 30
0.0
 11
4.63021
 21
3.66695
 31
0.0
  0
LINE
  8
0
 62
     0
 10
4.63021
 20
3.66695
 30
0.0
 11
5.09323
 21
3.59255
 31
0.0
  0
LINE
  8
0
 62
     0
 10
5.09323
 20
3.59255
 30
0.0
 11
5.55625
 21
3.66695
 31
0.0
  0
LINE
  8
0
 62
     0
 10
5.55625
 20
3.66695
 30
0.0
 11
5.97517
 21
3.87918
 31
0.0
  0
LINE
  8
0
 62
     0
 10
5.97517
 20
3.87918
 30
0.0
 11
6.30728
 21
4.21128
 31
0.0
  0
LINE
  8
0
 62
     0
 10
6.30728
 20
4.21128
 30
0.0
 11
6.51951
 21
4.63021
 31
0.0
  0
LINE
  8
0
 62
     0
 10
6.51951
 20
4.63021
 30
0.0
 11
6.59391
 21
5.09323
 31
0.0
  0
LINE
  8
0
 62
     0
 10
6.59391
 20
5.09323
 30
0.0
 11
6.51951
 21
5.55625
 31
0.0
  0
LINE
  8
0
 62
     0
 10
6.51951
 20
5.55625
 30
0.0
 11
6.30728
 21
5.97517
 31
0.0
  0
LINE
  8
0
 62
     0
 10
6.30728
 20
5.97517
 30
0.0
 11
5.97517
 21
6.3059
 31
0.0
  0
LINE
  8
0
 62
     0
 10
5.97517
 20
6.3059
 30
0.0
 11
5.55625
 21
6.51951
 31
0.0
  0
LINE
  8
0
 62
     0
 10
5.55625
 20
6.51951
 30
0.0
 11
5.09323
 21
6.59253
 31
0.0
  0
LINE
  8
0
 62
     0
 10
5.09323
 20
6.59253
 30
0.0
 11
4.63021
 21
6.51951
 31
0.0
  0
LINE
  8
0
 62
     0
 10
255.13
 20
87.9574
 30
0.0
 11
254.713
 21
87.7454
 31
0.0
  0
LINE
  8
0
 62
     0
 10
254.713
 20
87.7454
 30
0.0
 11
254.38
 21
87.413
 31
0.0
  0
LINE
  8
0
 62
     0
 10
254.38
 20
87.413
 30
0.0
 11
254.168
 21
86.9943
 31
0.0
  0
LINE
  8
0
 62
     0
 10
254.168
 20
86.9943
 30
0.0
 11
254.094
 21
86.5311
 31
0.0
  0
LINE
  8
0
 62
     0
 10
254.094
 20
86.5311
 30
0.0
 11
254.168
 21
86.0683
 31
0.0
  0
LINE
  8
0
 62
     0
 10
254.168
 20
86.0683
 30
0.0
 11
254.38
 21
85.6492
 31
0.0
  0
LINE
  8
0
 62
     0
 10
254.38
 20
85.6492
 30
0.0
 11
254.713
 21
85.3172
 31
0.0
  0
LINE
  8
0
 62
     0
 10
254.713
 20
85.3172
 30
0.0
 11
255.13
 21
85.1048
 31
0.0
  0
LINE
  8
0
 62
     0
 10
255.13
 20
85.1048
 30
0.0
 11
255.595
 21
85.0304
 31
0.0
  0
LINE
  8
0
 62
     0
 10
255.595
 20
85.0304
 30
0.0
 11
256.057
 21
85.1048
 31
0.0
  0
LINE
  8
0
 62
     0
 10
256.057
 20
85.1048
 30
0.0
 11
256.477
 21
85.3172
 31
0.0
  0
LINE
  8
0
 62
     0
 10
256.477
 20
85.3172
 30
0.0
 11
256.808
 21
85.6492
 31
0.0
  0
LINE
  8
0
 62
     0
 10
256.808
 20
85.6492
 30
0.0
 11
257.021
 21
86.0683
 31
0.0
  0
LINE
  8
0
 62
     0
 10
257.021
 20
86.0683
 30
0.0
 11
257.094
 21
86.5311
 31
0.0
  0
LINE
  8
0
 62
     0
 10
257.094
 20
86.5311
 30
0.0
 11
257.021
 21
86.9943
 31
0.0
  0
LINE
  8
0
 62
     0
 10
257.021
 20
86.9943
 30
0.0
 11
256.808
 21
87.413
 31
0.0
  0
LINE
  8
0
 62
     0
 10
256.808
 20
87.413
 30
0.0
 11
256.477
 21
87.7454
 31
0.0
  0
LINE
  8
0
 62
     0
 10
256.477
 20
87.7454
 30
0.0
 11
256.057
 21
87.9574
 31
0.0
  0
LINE
  8
0
 62
     0
 10
256.057
 20
87.9574
 30
0.0
 11
255.595
 21
88.0304
 31
0.0
  0
LINE
  8
0
 62
     0
 10
255.595
 20
88.0304
 30
0.0
 11
255.13
 21
87.9574
 31
0.0
  0
LINE
  8
0
 62
     0
 10
4.63021
 20
87.9574
 30
0.0
 11
4.21128
 21
87.7454
 31
0.0
  0
LINE
  8
0
 62
     0
 10
4.21128
 20
87.7454
 30
0.0
 11
3.87918
 21
87.413
 31
0.0
  0
LINE
  8
0
 62
     0
 10
3.87918
 20
87.413
 30
0.0
 11
3.66695
 21
86.9943
 31
0.0
  0
LINE
  8
0
 62
     0
 10
3.66695
 20
86.9943
 30
0.0
 11
3.59392
 21
86.5311
 31
0.0
  0
LINE
  8
0
 62
     0
 10
3.59392
 20
86.5311
 30
0.0
 11
3.66695
 21
86.0683
 31
0.0
  0
LINE
  8
0
 62
     0
 10
3.66695
 20
86.0683
 30
0.0
 11
3.87918
 21
85.6492
 31
0.0
  0
LINE
  8
0
 62
     0
 10
3.87918
 20
85.6492
 30
0.0
 11
4.21128
 21
85.3172
 31
0.0
  0
LINE
  8
0
 62
     0
 10
4.21128
 20
85.3172
 30
0.0
 11
4.63021
 21
85.1048
 31
0.0
  0
LINE
  8
0
 62
     0
 10
4.63021
 20
85.1048
 30
0.0
 11
5.09323
 21
85.0304
 31
0.0
  0
LINE
  8
0
 62
     0
 10
5.09323
 20
85.0304
 30
0.0
 11
5.55625
 21
85.1048
 31
0.0
  0
LINE
  8
0
 62
     0
 10
5.55625
 20
85.1048
 30
0.0
 11
5.97517
 21
85.3172
 31
0.0
  0
LINE
  8
0
 62
     0
 10
5.97517
 20
85.3172
 30
0.0
 11
6.30728
 21
85.6492
 31
0.0
  0
LINE
  8
0
 62
     0
 10
6.30728
 20
85.6492
 30
0.0
 11
6.51951
 21
86.0683
 31
0.0
  0
LINE
  8
0
 62
     0
 10
6.51951
 20
86.0683
 30
0.0
 11
6.59391
 21
86.5311
 31
0.0
  0
LINE
  8
0
 62
     0
 10
6.59391
 20
86.5311
 30
0.0
 11
6.51951
 21
86.9943
 31
0.0
  0
LINE
  8
0
 62
     0
 10
6.51951
 20
86.9943
 30
0.0
 11
6.30728
 21
87.413
 31
0.0
  0
LINE
  8
0
 62
     0
 10
6.30728
 20
87.413
 30
0.0
 11
5.97517
 21
87.7454
 31
0.0
  0
LINE
  8
0
 62
     0
 10
5.97517
 20
87.7454
 30
0.0
 11
5.55625
 21
87.9574
 31
0.0
  0
LINE
  8
0
 62
     0
 10
5.55625
 20
87.9574
 30
0.0
 11
5.09323
 21
88.0304
 31
0.0
  0
LINE
  8
0
 62
     0
 10
5.09323
 20
88.0304
 30
0.0
 11
4.63021
 21
87.9574
 31
0.0
  0
LINE
  8
0
 62
     0
 10
88.1295
 20
169.395
 30
0.0
 11
87.7122
 21
169.183
 31
0.0
  0
LINE
  8
0
 62
     0
 10
87.7122
 20
169.183
 30
0.0
 11
87.3799
 21
168.851
 31
0.0
  0
LINE
  8
0
 62
     0
 10
87.3799
 20
168.851
 30
0.0
 11
87.1664
 21
168.432
 31
0.0
  0
LINE
  8
0
 62
     0
 10
87.1664
 20
168.432
 30
0.0
 11
87.0934
 21
167.969
 31
0.0
  0
LINE
  8
0
 62
     0
 10
87.0934
 20
167.969
 30
0.0
 11
87.1664
 21
167.506
 31
0.0
  0
LINE
  8
0
 62
     0
 10
87.1664
 20
167.506
 30
0.0
 11
87.3799
 21
167.087
 31
0.0
  0
LINE
  8
0
 62
     0
 10
87.3799
 20
167.087
 30
0.0
 11
87.7122
 21
166.755
 31
0.0
  0
LINE
  8
0
 62
     0
 10
87.7122
 20
166.755
 30
0.0
 11
88.1295
 21
166.543
 31
0.0
  0
LINE
  8
0
 62
     0
 10
88.1295
 20
166.543
 30
0.0
 11
88.5941
 21
166.468
 31
0.0
  0
LINE
  8
0
 62
     0
 10
88.5941
 20
166.468
 30
0.0
 11
89.057
 21
166.543
 31
0.0
  0
LINE
  8
0
 62
     0
 10
89.057
 20
166.543
 30
0.0
 11
89.4761
 21
166.755
 31
0.0
  0
LINE
  8
0
 62
     0
 10
89.4761
 20
166.755
 30
0.0
 11
89.8066
 21
167.087
 31
0.0
  0
LINE
  8
0
 62
     0
 10
89.8066
 20
167.087
 30
0.0
 11
90.0204
 21
167.506
 31
0.0
  0
LINE
  8
0
 62
     0
 10
90.0204
 20
167.506
 30
0.0
 11
90.0934
 21
167.969
 31
0.0
  0
LINE
  8
0
 62
     0
 10
90.0934
 20
167.969
 30
0.0
 11
90.0204
 21
168.432
 31
0.0
  0
LINE
  8
0
 62
     0
 10
90.0204
 20
168.432
 30
0.0
 11
89.8066
 21
168.851
 31
0.0
  0
LINE
  8
0
 62
     0
 10
89.8066
 20
168.851
 30
0.0
 11
89.4761
 21
169.183
 31
0.0
  0
LINE
  8
0
 62
     0
 10
89.4761
 20
169.183
 30
0.0
 11
89.057
 21
169.395
 31
0.0
  0
LINE
  8
0
 62
     0
 10
89.057
 20
169.395
 30
0.0
 11
88.5941
 21
169.468
 31
0.0
  0
LINE
  8
0
 62
     0
 10
88.5941
 20
169.468
 30
0.0
 11
88.1295
 21
169.395
 31
0.0
  0
LINE
  8
0
 62
     0
 10
171.631
 20
169.395
 30
0.0
 11
171.212
 21
169.183
 31
0.0
  0
LINE
  8
0
 62
     0
 10
171.212
 20
169.183
 30
0.0
 11
170.881
 21
168.851
 31
0.0
  0
LINE
  8
0
 62
     0
 10
170.881
 20
168.851
 30
0.0
 11
170.667
 21
168.432
 31
0.0
  0
LINE
  8
0
 62
     0
 10
170.667
 20
168.432
 30
0.0
 11
170.594
 21
167.969
 31
0.0
  0
LINE
  8
0
 62
     0
 10
170.594
 20
167.969
 30
0.0
 11
170.667
 21
167.506
 31
0.0
  0
LINE
  8
0
 62
     0
 10
170.667
 20
167.506
 30
0.0
 11
170.881
 21
167.087
 31
0.0
  0
LINE
  8
0
 62
     0
 10
170.881
 20
167.087
 30
0.0
 11
171.212
 21
166.755
 31
0.0
  0
LINE
  8
0
 62
     0
 10
171.212
 20
166.755
 30
0.0
 11
171.631
 21
166.543
 31
0.0
  0
LINE
  8
0
 62
     0
 10
171.631
 20
166.543
 30
0.0
 11
172.093
 21
166.468
 31
0.0
  0
LINE
  8
0
 62
     0
 10
172.093
 20
166.468
 30
0.0
 11
172.558
 21
166.543
 31
0.0
  0
LINE
  8
0
 62
     0
 10
172.558
 20
166.543
 30
0.0
 11
172.975
 21
166.755
 31
0.0
  0
LINE
  8
0
 62
     0
 10
172.975
 20
166.755
 30
0.0
 11
173.308
 21
167.087
 31
0.0
  0
LINE
  8
0
 62
     0
 10
173.308
 20
167.087
 30
0.0
 11
173.521
 21
167.506
 31
0.0
  0
LINE
  8
0
 62
     0
 10
173.521
 20
167.506
 30
0.0
 11
173.594
 21
167.969
 31
0.0
  0
LINE
  8
0
 62
     0
 10
173.594
 20
167.969
 30
0.0
 11
173.521
 21
168.432
 31
0.0
  0
LINE
  8
0
 62
     0
 10
173.521
 20
168.432
 30
0.0
 11
173.308
 21
168.851
 31
0.0
  0
LINE
  8
0
 62
     0
 10
173.308
 20
168.851
 30
0.0
 11
172.975
 21
169.183
 31
0.0
  0
LINE
  8
0
 62
     0
 10
172.975
 20
169.183
 30
0.0
 11
172.558
 21
169.395
 31
0.0
  0
LINE
  8
0
 62
     0
 10
172.558
 20
169.395
 30
0.0
 11
172.093
 21
169.468
 31
0.0
  0
LINE
  8
0
 62
     0
 10
172.093
 20
169.468
 30
0.0
 11
171.631
 21
169.395
 31
0.0
  0
LINE
  8
0
 62
     0
 10
255.13
 20
169.395
 30
0.0
 11
254.713
 21
169.183
 31
0.0
  0
LINE
  8
0
 62
     0
 10
254.713
 20
169.183
 30
0.0
 11
254.38
 21
168.851
 31
0.0
  0
LINE
  8
0
 62
     0
 10
254.38
 20
168.851
 30
0.0
 11
254.168
 21
168.432
 31
0.0
  0
LINE
  8
0
 62
     0
 10
254.168
 20
168.432
 30
0.0
 11
254.094
 21
167.969
 31
0.0
  0
LINE
  8
0
 62
     0
 10
254.094
 20
167.969
 30
0.0
 11
254.168
 21
167.506
 31
0.0
  0
LINE
  8
0
 62
     0
 10
254.168
 20
167.506
 30
0.0
 11
254.38
 21
167.087
 31
0.0
  0
LINE
  8
0
 62
     0
 10
254.38
 20
167.087
 30
0.0
 11
254.713
 21
166.755
 31
0.0
  0
LINE
  8
0
 62
     0
 10
254.713
 20
166.755
 30
0.0
 11
255.13
 21
166.543
 31
0.0
  0
LINE
  8
0
 62
     0
 10
255.13
 20
166.543
 30
0.0
 11
255.595
 21
166.468
 31
0.0
  0
LINE
  8
0
 62
     0
 10
255.595
 20
166.468
 30
0.0
 11
256.057
 21
166.543
 31
0.0
  0
LINE
  8
0
 62
     0
 10
256.057
 20
166.543
 30
0.0
 11
256.477
 21
166.755
 31
0.0
  0
LINE
  8
0
 62
     0
 10
256.477
 20
166.755
 30
0.0
 11
256.808
 21
167.087
 31
0.0
  0
LINE
  8
0
 62
     0
 10
256.808
 20
167.087
 30
0.0
 11
257.021
 21
167.506
 31
0.0
  0
LINE
  8
0
 62
     0
 10
257.021
 20
167.506
 30
0.0
 11
257.094
 21
167.969
 31
0.0
  0
LINE
  8
0
 62
     0
 10
257.094
 20
167.969
 30
0.0
 11
257.021
 21
168.432
 31
0.0
  0
LINE
  8
0
 62
     0
 10
257.021
 20
168.432
 30
0.0
 11
256.808
 21
168.851
 31
0.0
  0
LINE
  8
0
 62
     0
 10
256.808
 20
168.851
 30
0.0
 11
256.477
 21
169.183
 31
0.0
  0
LINE
  8
0
 62
     0
 10
256.477
 20
169.183
 30
0.0
 11
256.057
 21
169.395
 31
0.0
  0
LINE
  8
0
 62
     0
 10
256.057
 20
169.395
 30
0.0
 11
255.595
 21
169.468
 31
0.0
  0
LINE
  8
0
 62
     0
 10
255.595
 20
169.468
 30
0.0
 11
255.13
 21
169.395
 31
0.0
  0
LINE
  8
0
 62
     0
 10
4.63021
 20
169.395
 30
0.0
 11
4.21128
 21
169.183
 31
0.0
  0
LINE
  8
0
 62
     0
 10
4.21128
 20
169.183
 30
0.0
 11
3.87918
 21
168.851
 31
0.0
  0
LINE
  8
0
 62
     0
 10
3.87918
 20
168.851
 30
0.0
 11
3.66695
 21
168.432
 31
0.0
  0
LINE
  8
0
 62
     0
 10
3.66695
 20
168.432
 30
0.0
 11
3.59392
 21
167.969
 31
0.0
  0
LINE
  8
0
 62
     0
 10
3.59392
 20
167.969
 30
0.0
 11
3.66695
 21
167.506
 31
0.0
  0
LINE
  8
0
 62
     0
 10
3.66695
 20
167.506
 30
0.0
 11
3.87918
 21
167.087
 31
0.0
  0
LINE
  8
0
 62
     0
 10
3.87918
 20
167.087
 30
0.0
 11
4.21128
 21
166.755
 31
0.0
  0
LINE
  8
0
 62
     0
 10
4.21128
 20
166.755
 30
0.0
 11
4.63021
 21
166.543
 31
0.0
  0
LINE
  8
0
 62
     0
 10
4.63021
 20
166.543
 30
0.0
 11
5.09323
 21
166.468
 31
0.0
  0
LINE
  8
0
 62
     0
 10
5.09323
 20
166.468
 30
0.0
 11
5.55625
 21
166.543
 31
0.0
  0
LINE
  8
0
 62
     0
 10
5.55625
 20
166.543
 30
0.0
 11
5.97517
 21
166.755
 31
0.0
  0
LINE
  8
0
 62
     0
 10
5.97517
 20
166.755
 30
0.0
 11
6.30728
 21
167.087
 31
0.0
  0
LINE
  8
0
 62
     0
 10
6.30728
 20
167.087
 30
0.0
 11
6.51951
 21
167.506
 31
0.0
  0
LINE
  8
0
 62
     0
 10
6.51951
 20
167.506
 30
0.0
 11
6.59391
 21
167.969
 31
0.0
  0
LINE
  8
0
 62
     0
 10
6.59391
 20
167.969
 30
0.0
 11
6.51951
 21
168.432
 31
0.0
  0
LINE
  8
0
 62
     0
 10
6.51951
 20
168.432
 30
0.0
 11
6.30728
 21
168.851
 31
0.0
  0
LINE
  8
0
 62
     0
 10
6.30728
 20
168.851
 30
0.0
 11
5.97517
 21
169.183
 31
0.0
  0
LINE
  8
0
 62
     0
 10
5.97517
 20
169.183
 30
0.0
 11
5.55625
 21
169.395
 31
0.0
  0
LINE
  8
0
 62
     0
 10
5.55625
 20
169.395
 30
0.0
 11
5.09323
 21
169.468
 31
0.0
  0
LINE
  8
0
 62
     0
 10
5.09323
 20
169.468
 30
0.0
 11
4.63021
 21
169.395
 31
0.0
  0
ENDSEC
  0
EOF
