  0
SECTION
  2
HEADER
  9
$ACADVER
  1
AC1014
  9
$HANDSEED
  5
FFFF
  9
$MEASUREMENT
 70
     1
  0
ENDSEC
  0
SECTION
  2
TABLES
  0
TABLE
  2
VPORT
  5
8
330
0
100
AcDbSymbolTable
 70
     4
  0
VPORT
  5
2E
330
8
100
AcDbSymbolTableRecord
100
AcDbViewportTableRecord
  2
*ACTIVE
 70
     0
 10
0.0
 20
0.0
 11
1.0
 21
1.0
 12
210.0
 22
148.5
 13
0.0
 23
0.0
 14
10.0
 24
10.0
 15
10.0
 25
10.0
 16
0.0
 26
0.0
 36
1.0
 17
0.0
 27
0.0
 37
0.0
 40
341.0
 41
1.24
 42
50.0
 43
0.0
 44
0.0
 50
0.0
 51
0.0
 71
     0
 72
   100
 73
     1
 74
     3
 75
     0
 76
     0
 77
     0
 78
     0
  0
ENDTAB
  0
TABLE
  2
LTYPE
  5
5
330
0
100
AcDbSymbolTable
 70
     1
  0
LTYPE
  5
14
330
5
100
AcDbSymbolTableRecord
100
AcDbLinetypeTableRecord
  2
BYBLOCK
 70
     0
  3

 72
    65
 73
     0
 40
0.0
  0
LTYPE
  5
15
330
5
100
AcDbSymbolTableRecord
100
AcDbLinetypeTableRecord
  2
BYLAYER
 70
     0
  3

 72
    65
 73
     0
 40
0.0
  0
LTYPE
  5
16
330
5
100
AcDbSymbolTableRecord
100
AcDbLinetypeTableRecord
  2
CONTINUOUS
 70
     0
  3
Solid line
 72
    65
 73
     0
 40
0.0
  0
ENDTAB
  0
TABLE
  2
LAYER
  5
2
100
AcDbSymbolTable
 70
2
  0
LAYER
  5
50
100
AcDbSymbolTableRecord
100
AcDbLayerTableRecord
  2
0
 70
0
  6
CONTINUOUS
  0
LAYER
  5
51
100
AcDbSymbolTableRecord
100
AcDbLayerTableRecord
  2
Layer_1
 70
0
  6
CONTINUOUS
  0
ENDTAB
  0
TABLE
  2
STYLE
  5
3
330
0
100
AcDbSymbolTable
 70
     1
  0
STYLE
  5
11
330
3
100
AcDbSymbolTableRecord
100
AcDbTextStyleTableRecord
  2
STANDARD
 70
     0
 40
0.0
 41
1.0
 50
0.0
 71
     0
 42
2.5
  3
txt
  4

  0
ENDTAB
  0
TABLE
  2
VIEW
  5
6
330
0
100
AcDbSymbolTable
 70
     0
  0
ENDTAB
  0
TABLE
  2
UCS
  5
7
330
0
100
AcDbSymbolTable
 70
     0
  0
ENDTAB
  0
TABLE
  2
APPID
  5
9
330
0
100
AcDbSymbolTable
 70
     2
  0
APPID
  5
12
330
9
100
AcDbSymbolTableRecord
100
AcDbRegAppTableRecord
  2
ACAD
 70
     0
  0
ENDTAB
  0
TABLE
  2
DIMSTYLE
  5
A
330
0
100
AcDbSymbolTable
 70
     1
  0
DIMSTYLE
105
27
330
A
100
AcDbSymbolTableRecord
100
AcDbDimStyleTableRecord
  2
ISO-25
 70
     0
  3

  4

  5

  6

  7

 40
1.0
 41
2.5
 42
0.625
 43
3.75
 44
1.25
 45
0.0
 46
0.0
 47
0.0
 48
0.0
140
2.5
141
2.5
142
0.0
143
0.03937007874016
144
1.0
145
0.0
146
1.0
147
0.625
 71
     0
 72
     0
 73
     0
 74
     0
 75
     0
 76
     0
 77
     1
 78
     8
170
     0
171
     3
172
     1
173
     0
174
     0
175
     0
176
     0
177
     0
178
     0
270
     2
271
     2
272
     2
273
     2
274
     3
340
11
275
     0
280
     0
281
     0
282
     0
283
     0
284
     8
285
     0
286
     0
287
     3
288
     0
  0
ENDTAB
  0
TABLE
  2
BLOCK_RECORD
  5
1
330
0
100
AcDbSymbolTable
 70
     1
  0
BLOCK_RECORD
  5
1F
330
1
100
AcDbSymbolTableRecord
100
AcDbBlockTableRecord
  2
*MODEL_SPACE
  0
BLOCK_RECORD
  5
1B
330
1
100
AcDbSymbolTableRecord
100
AcDbBlockTableRecord
  2
*PAPER_SPACE
  0
ENDTAB
  0
ENDSEC
  0
SECTION
  2
BLOCKS
  0
BLOCK
  5
20
330
1F
100
AcDbEntity
  8
0
100
AcDbBlockBegin
  2
*MODEL_SPACE
 70
     0
 10
0.0
 20
0.0
 30
0.0
  3
*MODEL_SPACE
  1

  0
ENDBLK
  5
21
330
1F
100
AcDbEntity
  8
0
100
AcDbBlockEnd
  0
BLOCK
  5
1C
330
1B
100
AcDbEntity
 67
     1
  8
0
100
AcDbBlockBegin
  2
*PAPER_SPACE
  1

  0
ENDBLK
  5
1D
330
1B
100
AcDbEntity
 67
     1
  8
0
100
AcDbBlockEnd
  0
ENDSEC
  0
SECTION
  2
ENTITIES
  0
LINE
  5
100
100
AcDbEntity
  8
Layer_1
 62
7
100
AcDbLine
 10
269.761720
 20
224.120834
 30
0.0
 11
270.387720
 21
224.096834
 31
0.0
  0
LINE
  5
101
100
AcDbEntity
  8
Layer_1
 62
7
100
AcDbLine
 10
270.387720
 20
224.096834
 30
0.0
 11
271.012720
 21
224.022834
 31
0.0
  0
LINE
  5
102
100
AcDbEntity
  8
Layer_1
 62
7
100
AcDbLine
 10
271.012720
 20
224.022834
 30
0.0
 11
271.627720
 21
223.899834
 31
0.0
  0
LINE
  5
103
100
AcDbEntity
  8
Layer_1
 62
7
100
AcDbLine
 10
271.627720
 20
223.899834
 30
0.0
 11
272.233720
 21
223.729834
 31
0.0
  0
LINE
  5
104
100
AcDbEntity
  8
Layer_1
 62
7
100
AcDbLine
 10
272.233720
 20
223.729834
 30
0.0
 11
272.822720
 21
223.512834
 31
0.0
  0
LINE
  5
105
100
AcDbEntity
  8
Layer_1
 62
7
100
AcDbLine
 10
272.822720
 20
223.512834
 30
0.0
 11
273.392720
 21
223.249834
 31
0.0
  0
LINE
  5
106
100
AcDbEntity
  8
Layer_1
 62
7
100
AcDbLine
 10
273.392720
 20
223.249834
 30
0.0
 11
273.940720
 21
222.942834
 31
0.0
  0
LINE
  5
107
100
AcDbEntity
  8
Layer_1
 62
7
100
AcDbLine
 10
273.940720
 20
222.942834
 30
0.0
 11
274.463720
 21
222.593834
 31
0.0
  0
LINE
  5
108
100
AcDbEntity
  8
Layer_1
 62
7
100
AcDbLine
 10
274.463720
 20
222.593834
 30
0.0
 11
274.956720
 21
222.204834
 31
0.0
  0
LINE
  5
109
100
AcDbEntity
  8
Layer_1
 62
7
100
AcDbLine
 10
274.956720
 20
222.204834
 30
0.0
 11
275.417720
 21
221.777834
 31
0.0
  0
LINE
  5
10a
100
AcDbEntity
  8
Layer_1
 62
7
100
AcDbLine
 10
275.417720
 20
221.777834
 30
0.0
 11
275.844720
 21
221.316834
 31
0.0
  0
LINE
  5
10b
100
AcDbEntity
  8
Layer_1
 62
7
100
AcDbLine
 10
275.844720
 20
221.316834
 30
0.0
 11
276.233720
 21
220.823834
 31
0.0
  0
LINE
  5
10c
100
AcDbEntity
  8
Layer_1
 62
7
100
AcDbLine
 10
276.233720
 20
220.823834
 30
0.0
 11
276.582720
 21
220.300834
 31
0.0
  0
LINE
  5
10d
100
AcDbEntity
  8
Layer_1
 62
7
100
AcDbLine
 10
276.582720
 20
220.300834
 30
0.0
 11
276.889720
 21
219.752834
 31
0.0
  0
LINE
  5
10e
100
AcDbEntity
  8
Layer_1
 62
7
100
AcDbLine
 10
276.889720
 20
219.752834
 30
0.0
 11
277.152720
 21
219.182834
 31
0.0
  0
LINE
  5
10f
100
AcDbEntity
  8
Layer_1
 62
7
100
AcDbLine
 10
277.152720
 20
219.182834
 30
0.0
 11
277.369720
 21
218.593834
 31
0.0
  0
LINE
  5
110
100
AcDbEntity
  8
Layer_1
 62
7
100
AcDbLine
 10
277.369720
 20
218.593834
 30
0.0
 11
277.539720
 21
217.988834
 31
0.0
  0
LINE
  5
111
100
AcDbEntity
  8
Layer_1
 62
7
100
AcDbLine
 10
277.539720
 20
217.988834
 30
0.0
 11
277.662720
 21
217.372834
 31
0.0
  0
LINE
  5
112
100
AcDbEntity
  8
Layer_1
 62
7
100
AcDbLine
 10
277.662720
 20
217.372834
 30
0.0
 11
277.736720
 21
216.748834
 31
0.0
  0
LINE
  5
113
100
AcDbEntity
  8
Layer_1
 62
7
100
AcDbLine
 10
277.736720
 20
216.748834
 30
0.0
 11
277.760720
 21
216.120834
 31
0.0
  0
LINE
  5
114
100
AcDbEntity
  8
Layer_1
 62
7
100
AcDbLine
 10
277.760720
 20
216.120834
 30
0.0
 11
277.761720
 21
59.044830
 31
0.0
  0
LINE
  5
115
100
AcDbEntity
  8
Layer_1
 62
7
100
AcDbLine
 10
277.761720
 20
59.044830
 30
0.0
 11
277.736720
 21
58.417830
 31
0.0
  0
LINE
  5
116
100
AcDbEntity
  8
Layer_1
 62
7
100
AcDbLine
 10
277.736720
 20
58.417830
 30
0.0
 11
277.662720
 21
57.793830
 31
0.0
  0
LINE
  5
117
100
AcDbEntity
  8
Layer_1
 62
7
100
AcDbLine
 10
277.662720
 20
57.793830
 30
0.0
 11
277.539720
 21
57.177830
 31
0.0
  0
LINE
  5
118
100
AcDbEntity
  8
Layer_1
 62
7
100
AcDbLine
 10
277.539720
 20
57.177830
 30
0.0
 11
277.369720
 21
56.572830
 31
0.0
  0
LINE
  5
119
100
AcDbEntity
  8
Layer_1
 62
7
100
AcDbLine
 10
277.369720
 20
56.572830
 30
0.0
 11
277.152720
 21
55.983830
 31
0.0
  0
LINE
  5
11a
100
AcDbEntity
  8
Layer_1
 62
7
100
AcDbLine
 10
277.152720
 20
55.983830
 30
0.0
 11
276.889720
 21
55.413830
 31
0.0
  0
LINE
  5
11b
100
AcDbEntity
  8
Layer_1
 62
7
100
AcDbLine
 10
276.889720
 20
55.413830
 30
0.0
 11
276.582720
 21
54.865830
 31
0.0
  0
LINE
  5
11c
100
AcDbEntity
  8
Layer_1
 62
7
100
AcDbLine
 10
276.582720
 20
54.865830
 30
0.0
 11
276.233720
 21
54.342830
 31
0.0
  0
LINE
  5
11d
100
AcDbEntity
  8
Layer_1
 62
7
100
AcDbLine
 10
276.233720
 20
54.342830
 30
0.0
 11
275.844720
 21
53.849830
 31
0.0
  0
LINE
  5
11e
100
AcDbEntity
  8
Layer_1
 62
7
100
AcDbLine
 10
275.844720
 20
53.849830
 30
0.0
 11
275.417720
 21
53.388830
 31
0.0
  0
LINE
  5
11f
100
AcDbEntity
  8
Layer_1
 62
7
100
AcDbLine
 10
275.417720
 20
53.388830
 30
0.0
 11
274.956720
 21
52.961830
 31
0.0
  0
LINE
  5
120
100
AcDbEntity
  8
Layer_1
 62
7
100
AcDbLine
 10
274.956720
 20
52.961830
 30
0.0
 11
274.463720
 21
52.572830
 31
0.0
  0
LINE
  5
121
100
AcDbEntity
  8
Layer_1
 62
7
100
AcDbLine
 10
274.463720
 20
52.572830
 30
0.0
 11
273.940720
 21
52.223830
 31
0.0
  0
LINE
  5
122
100
AcDbEntity
  8
Layer_1
 62
7
100
AcDbLine
 10
273.940720
 20
52.223830
 30
0.0
 11
273.392720
 21
51.916830
 31
0.0
  0
LINE
  5
123
100
AcDbEntity
  8
Layer_1
 62
7
100
AcDbLine
 10
273.392720
 20
51.916830
 30
0.0
 11
272.822720
 21
51.653830
 31
0.0
  0
LINE
  5
124
100
AcDbEntity
  8
Layer_1
 62
7
100
AcDbLine
 10
272.822720
 20
51.653830
 30
0.0
 11
272.233720
 21
51.436830
 31
0.0
  0
LINE
  5
125
100
AcDbEntity
  8
Layer_1
 62
7
100
AcDbLine
 10
272.233720
 20
51.436830
 30
0.0
 11
271.627720
 21
51.266830
 31
0.0
  0
LINE
  5
126
100
AcDbEntity
  8
Layer_1
 62
7
100
AcDbLine
 10
271.627720
 20
51.266830
 30
0.0
 11
271.012720
 21
51.143830
 31
0.0
  0
LINE
  5
127
100
AcDbEntity
  8
Layer_1
 62
7
100
AcDbLine
 10
271.012720
 20
51.143830
 30
0.0
 11
270.387720
 21
51.069830
 31
0.0
  0
LINE
  5
128
100
AcDbEntity
  8
Layer_1
 62
7
100
AcDbLine
 10
270.387720
 20
51.069830
 30
0.0
 11
269.761720
 21
51.044830
 31
0.0
  0
LINE
  5
129
100
AcDbEntity
  8
Layer_1
 62
7
100
AcDbLine
 10
269.761720
 20
51.044830
 30
0.0
 11
25.060713
 21
51.044830
 31
0.0
  0
LINE
  5
12a
100
AcDbEntity
  8
Layer_1
 62
7
100
AcDbLine
 10
25.060713
 20
51.044830
 30
0.0
 11
24.432713
 21
51.069830
 31
0.0
  0
LINE
  5
12b
100
AcDbEntity
  8
Layer_1
 62
7
100
AcDbLine
 10
24.432713
 20
51.069830
 30
0.0
 11
23.808714
 21
51.143830
 31
0.0
  0
LINE
  5
12c
100
AcDbEntity
  8
Layer_1
 62
7
100
AcDbLine
 10
23.808714
 20
51.143830
 30
0.0
 11
23.192714
 21
51.266830
 31
0.0
  0
LINE
  5
12d
100
AcDbEntity
  8
Layer_1
 62
7
100
AcDbLine
 10
23.192714
 20
51.266830
 30
0.0
 11
22.587713
 21
51.436830
 31
0.0
  0
LINE
  5
12e
100
AcDbEntity
  8
Layer_1
 62
7
100
AcDbLine
 10
22.587713
 20
51.436830
 30
0.0
 11
21.998714
 21
51.653830
 31
0.0
  0
LINE
  5
12f
100
AcDbEntity
  8
Layer_1
 62
7
100
AcDbLine
 10
21.998714
 20
51.653830
 30
0.0
 11
21.428713
 21
51.916830
 31
0.0
  0
LINE
  5
130
100
AcDbEntity
  8
Layer_1
 62
7
100
AcDbLine
 10
21.428713
 20
51.916830
 30
0.0
 11
20.880713
 21
52.223830
 31
0.0
  0
LINE
  5
131
100
AcDbEntity
  8
Layer_1
 62
7
100
AcDbLine
 10
20.880713
 20
52.223830
 30
0.0
 11
20.357713
 21
52.572830
 31
0.0
  0
LINE
  5
132
100
AcDbEntity
  8
Layer_1
 62
7
100
AcDbLine
 10
20.357713
 20
52.572830
 30
0.0
 11
19.864713
 21
52.961830
 31
0.0
  0
LINE
  5
133
100
AcDbEntity
  8
Layer_1
 62
7
100
AcDbLine
 10
19.864713
 20
52.961830
 30
0.0
 11
19.403713
 21
53.388830
 31
0.0
  0
LINE
  5
134
100
AcDbEntity
  8
Layer_1
 62
7
100
AcDbLine
 10
19.403713
 20
53.388830
 30
0.0
 11
18.976713
 21
53.849830
 31
0.0
  0
LINE
  5
135
100
AcDbEntity
  8
Layer_1
 62
7
100
AcDbLine
 10
18.976713
 20
53.849830
 30
0.0
 11
18.587713
 21
54.342830
 31
0.0
  0
LINE
  5
136
100
AcDbEntity
  8
Layer_1
 62
7
100
AcDbLine
 10
18.587713
 20
54.342830
 30
0.0
 11
18.238713
 21
54.865830
 31
0.0
  0
LINE
  5
137
100
AcDbEntity
  8
Layer_1
 62
7
100
AcDbLine
 10
18.238713
 20
54.865830
 30
0.0
 11
17.931713
 21
55.413830
 31
0.0
  0
LINE
  5
138
100
AcDbEntity
  8
Layer_1
 62
7
100
AcDbLine
 10
17.931713
 20
55.413830
 30
0.0
 11
17.668713
 21
55.983830
 31
0.0
  0
LINE
  5
139
100
AcDbEntity
  8
Layer_1
 62
7
100
AcDbLine
 10
17.668713
 20
55.983830
 30
0.0
 11
17.451713
 21
56.572830
 31
0.0
  0
LINE
  5
13a
100
AcDbEntity
  8
Layer_1
 62
7
100
AcDbLine
 10
17.451713
 20
56.572830
 30
0.0
 11
17.281713
 21
57.177830
 31
0.0
  0
LINE
  5
13b
100
AcDbEntity
  8
Layer_1
 62
7
100
AcDbLine
 10
17.281713
 20
57.177830
 30
0.0
 11
17.158713
 21
57.793830
 31
0.0
  0
LINE
  5
13c
100
AcDbEntity
  8
Layer_1
 62
7
100
AcDbLine
 10
17.158713
 20
57.793830
 30
0.0
 11
17.084713
 21
58.417830
 31
0.0
  0
LINE
  5
13d
100
AcDbEntity
  8
Layer_1
 62
7
100
AcDbLine
 10
17.084713
 20
58.417830
 30
0.0
 11
17.059713
 21
59.045830
 31
0.0
  0
LINE
  5
13e
100
AcDbEntity
  8
Layer_1
 62
7
100
AcDbLine
 10
17.059713
 20
59.045830
 30
0.0
 11
17.060713
 21
216.120834
 31
0.0
  0
LINE
  5
13f
100
AcDbEntity
  8
Layer_1
 62
7
100
AcDbLine
 10
17.060713
 20
216.120834
 30
0.0
 11
17.084713
 21
216.748834
 31
0.0
  0
LINE
  5
140
100
AcDbEntity
  8
Layer_1
 62
7
100
AcDbLine
 10
17.084713
 20
216.748834
 30
0.0
 11
17.158713
 21
217.372834
 31
0.0
  0
LINE
  5
141
100
AcDbEntity
  8
Layer_1
 62
7
100
AcDbLine
 10
17.158713
 20
217.372834
 30
0.0
 11
17.281714
 21
217.988834
 31
0.0
  0
LINE
  5
142
100
AcDbEntity
  8
Layer_1
 62
7
100
AcDbLine
 10
17.281714
 20
217.988834
 30
0.0
 11
17.451714
 21
218.593834
 31
0.0
  0
LINE
  5
143
100
AcDbEntity
  8
Layer_1
 62
7
100
AcDbLine
 10
17.451714
 20
218.593834
 30
0.0
 11
17.668714
 21
219.182834
 31
0.0
  0
LINE
  5
144
100
AcDbEntity
  8
Layer_1
 62
7
100
AcDbLine
 10
17.668714
 20
219.182834
 30
0.0
 11
17.931714
 21
219.752834
 31
0.0
  0
LINE
  5
145
100
AcDbEntity
  8
Layer_1
 62
7
100
AcDbLine
 10
17.931714
 20
219.752834
 30
0.0
 11
18.238713
 21
220.300834
 31
0.0
  0
LINE
  5
146
100
AcDbEntity
  8
Layer_1
 62
7
100
AcDbLine
 10
18.238713
 20
220.300834
 30
0.0
 11
18.587713
 21
220.823834
 31
0.0
  0
LINE
  5
147
100
AcDbEntity
  8
Layer_1
 62
7
100
AcDbLine
 10
18.587713
 20
220.823834
 30
0.0
 11
18.976714
 21
221.316834
 31
0.0
  0
LINE
  5
148
100
AcDbEntity
  8
Layer_1
 62
7
100
AcDbLine
 10
18.976714
 20
221.316834
 30
0.0
 11
19.403714
 21
221.777834
 31
0.0
  0
LINE
  5
149
100
AcDbEntity
  8
Layer_1
 62
7
100
AcDbLine
 10
19.403714
 20
221.777834
 30
0.0
 11
19.864713
 21
222.204834
 31
0.0
  0
LINE
  5
14a
100
AcDbEntity
  8
Layer_1
 62
7
100
AcDbLine
 10
19.864713
 20
222.204834
 30
0.0
 11
20.357713
 21
222.593834
 31
0.0
  0
LINE
  5
14b
100
AcDbEntity
  8
Layer_1
 62
7
100
AcDbLine
 10
20.357713
 20
222.593834
 30
0.0
 11
20.880713
 21
222.942834
 31
0.0
  0
LINE
  5
14c
100
AcDbEntity
  8
Layer_1
 62
7
100
AcDbLine
 10
20.880713
 20
222.942834
 30
0.0
 11
21.428713
 21
223.249834
 31
0.0
  0
LINE
  5
14d
100
AcDbEntity
  8
Layer_1
 62
7
100
AcDbLine
 10
21.428713
 20
223.249834
 30
0.0
 11
21.998714
 21
223.512834
 31
0.0
  0
LINE
  5
14e
100
AcDbEntity
  8
Layer_1
 62
7
100
AcDbLine
 10
21.998714
 20
223.512834
 30
0.0
 11
22.587713
 21
223.729834
 31
0.0
  0
LINE
  5
14f
100
AcDbEntity
  8
Layer_1
 62
7
100
AcDbLine
 10
22.587713
 20
223.729834
 30
0.0
 11
23.192714
 21
223.899834
 31
0.0
  0
LINE
  5
150
100
AcDbEntity
  8
Layer_1
 62
7
100
AcDbLine
 10
23.192714
 20
223.899834
 30
0.0
 11
23.808714
 21
224.022834
 31
0.0
  0
LINE
  5
151
100
AcDbEntity
  8
Layer_1
 62
7
100
AcDbLine
 10
23.808714
 20
224.022834
 30
0.0
 11
24.432713
 21
224.096834
 31
0.0
  0
LINE
  5
152
100
AcDbEntity
  8
Layer_1
 62
7
100
AcDbLine
 10
24.432713
 20
224.096834
 30
0.0
 11
25.060713
 21
224.121834
 31
0.0
  0
LINE
  5
153
100
AcDbEntity
  8
Layer_1
 62
7
100
AcDbLine
 10
25.060713
 20
224.121834
 30
0.0
 11
269.761720
 21
224.120834
 31
0.0
  0
LINE
  5
154
100
AcDbEntity
  8
Layer_1
 62
7
100
AcDbLine
 10
272.228720
 20
57.476830
 30
0.0
 11
271.838720
 21
57.277830
 31
0.0
  0
LINE
  5
155
100
AcDbEntity
  8
Layer_1
 62
7
100
AcDbLine
 10
271.838720
 20
57.277830
 30
0.0
 11
271.528720
 21
56.967830
 31
0.0
  0
LINE
  5
156
100
AcDbEntity
  8
Layer_1
 62
7
100
AcDbLine
 10
271.528720
 20
56.967830
 30
0.0
 11
271.329720
 21
56.577830
 31
0.0
  0
LINE
  5
157
100
AcDbEntity
  8
Layer_1
 62
7
100
AcDbLine
 10
271.329720
 20
56.577830
 30
0.0
 11
271.261720
 21
56.144830
 31
0.0
  0
LINE
  5
158
100
AcDbEntity
  8
Layer_1
 62
7
100
AcDbLine
 10
271.261720
 20
56.144830
 30
0.0
 11
271.329720
 21
55.712830
 31
0.0
  0
LINE
  5
159
100
AcDbEntity
  8
Layer_1
 62
7
100
AcDbLine
 10
271.329720
 20
55.712830
 30
0.0
 11
271.528720
 21
55.322830
 31
0.0
  0
LINE
  5
15a
100
AcDbEntity
  8
Layer_1
 62
7
100
AcDbLine
 10
271.528720
 20
55.322830
 30
0.0
 11
271.838720
 21
55.012830
 31
0.0
  0
LINE
  5
15b
100
AcDbEntity
  8
Layer_1
 62
7
100
AcDbLine
 10
271.838720
 20
55.012830
 30
0.0
 11
272.228720
 21
54.813830
 31
0.0
  0
LINE
  5
15c
100
AcDbEntity
  8
Layer_1
 62
7
100
AcDbLine
 10
272.228720
 20
54.813830
 30
0.0
 11
272.661720
 21
54.745830
 31
0.0
  0
LINE
  5
15d
100
AcDbEntity
  8
Layer_1
 62
7
100
AcDbLine
 10
272.661720
 20
54.745830
 30
0.0
 11
273.093720
 21
54.813830
 31
0.0
  0
LINE
  5
15e
100
AcDbEntity
  8
Layer_1
 62
7
100
AcDbLine
 10
273.093720
 20
54.813830
 30
0.0
 11
273.483720
 21
55.012830
 31
0.0
  0
LINE
  5
15f
100
AcDbEntity
  8
Layer_1
 62
7
100
AcDbLine
 10
273.483720
 20
55.012830
 30
0.0
 11
273.793720
 21
55.322830
 31
0.0
  0
LINE
  5
160
100
AcDbEntity
  8
Layer_1
 62
7
100
AcDbLine
 10
273.793720
 20
55.322830
 30
0.0
 11
273.992720
 21
55.712830
 31
0.0
  0
LINE
  5
161
100
AcDbEntity
  8
Layer_1
 62
7
100
AcDbLine
 10
273.992720
 20
55.712830
 30
0.0
 11
274.060720
 21
56.144830
 31
0.0
  0
LINE
  5
162
100
AcDbEntity
  8
Layer_1
 62
7
100
AcDbLine
 10
274.060720
 20
56.144830
 30
0.0
 11
273.992720
 21
56.577830
 31
0.0
  0
LINE
  5
163
100
AcDbEntity
  8
Layer_1
 62
7
100
AcDbLine
 10
273.992720
 20
56.577830
 30
0.0
 11
273.793720
 21
56.967830
 31
0.0
  0
LINE
  5
164
100
AcDbEntity
  8
Layer_1
 62
7
100
AcDbLine
 10
273.793720
 20
56.967830
 30
0.0
 11
273.483720
 21
57.277830
 31
0.0
  0
LINE
  5
165
100
AcDbEntity
  8
Layer_1
 62
7
100
AcDbLine
 10
273.483720
 20
57.277830
 30
0.0
 11
273.093720
 21
57.476830
 31
0.0
  0
LINE
  5
166
100
AcDbEntity
  8
Layer_1
 62
7
100
AcDbLine
 10
273.093720
 20
57.476830
 30
0.0
 11
272.661720
 21
57.544830
 31
0.0
  0
LINE
  5
167
100
AcDbEntity
  8
Layer_1
 62
7
100
AcDbLine
 10
272.661720
 20
57.544830
 30
0.0
 11
272.228720
 21
57.476830
 31
0.0
  0
LINE
  5
168
100
AcDbEntity
  8
Layer_1
 62
7
100
AcDbLine
 10
188.728720
 20
57.476830
 30
0.0
 11
188.337720
 21
57.277830
 31
0.0
  0
LINE
  5
169
100
AcDbEntity
  8
Layer_1
 62
7
100
AcDbLine
 10
188.337720
 20
57.277830
 30
0.0
 11
188.028720
 21
56.967830
 31
0.0
  0
LINE
  5
16a
100
AcDbEntity
  8
Layer_1
 62
7
100
AcDbLine
 10
188.028720
 20
56.967830
 30
0.0
 11
187.829720
 21
56.577830
 31
0.0
  0
LINE
  5
16b
100
AcDbEntity
  8
Layer_1
 62
7
100
AcDbLine
 10
187.829720
 20
56.577830
 30
0.0
 11
187.760720
 21
56.144830
 31
0.0
  0
LINE
  5
16c
100
AcDbEntity
  8
Layer_1
 62
7
100
AcDbLine
 10
187.760720
 20
56.144830
 30
0.0
 11
187.829720
 21
55.712830
 31
0.0
  0
LINE
  5
16d
100
AcDbEntity
  8
Layer_1
 62
7
100
AcDbLine
 10
187.829720
 20
55.712830
 30
0.0
 11
188.028720
 21
55.322830
 31
0.0
  0
LINE
  5
16e
100
AcDbEntity
  8
Layer_1
 62
7
100
AcDbLine
 10
188.028720
 20
55.322830
 30
0.0
 11
188.337720
 21
55.012830
 31
0.0
  0
LINE
  5
16f
100
AcDbEntity
  8
Layer_1
 62
7
100
AcDbLine
 10
188.337720
 20
55.012830
 30
0.0
 11
188.728720
 21
54.813830
 31
0.0
  0
LINE
  5
170
100
AcDbEntity
  8
Layer_1
 62
7
100
AcDbLine
 10
188.728720
 20
54.813830
 30
0.0
 11
189.160720
 21
54.745830
 31
0.0
  0
LINE
  5
171
100
AcDbEntity
  8
Layer_1
 62
7
100
AcDbLine
 10
189.160720
 20
54.745830
 30
0.0
 11
189.593720
 21
54.813830
 31
0.0
  0
LINE
  5
172
100
AcDbEntity
  8
Layer_1
 62
7
100
AcDbLine
 10
189.593720
 20
54.813830
 30
0.0
 11
189.983720
 21
55.012830
 31
0.0
  0
LINE
  5
173
100
AcDbEntity
  8
Layer_1
 62
7
100
AcDbLine
 10
189.983720
 20
55.012830
 30
0.0
 11
190.293720
 21
55.322830
 31
0.0
  0
LINE
  5
174
100
AcDbEntity
  8
Layer_1
 62
7
100
AcDbLine
 10
190.293720
 20
55.322830
 30
0.0
 11
190.492720
 21
55.712830
 31
0.0
  0
LINE
  5
175
100
AcDbEntity
  8
Layer_1
 62
7
100
AcDbLine
 10
190.492720
 20
55.712830
 30
0.0
 11
190.560720
 21
56.144830
 31
0.0
  0
LINE
  5
176
100
AcDbEntity
  8
Layer_1
 62
7
100
AcDbLine
 10
190.560720
 20
56.144830
 30
0.0
 11
190.492720
 21
56.577830
 31
0.0
  0
LINE
  5
177
100
AcDbEntity
  8
Layer_1
 62
7
100
AcDbLine
 10
190.492720
 20
56.577830
 30
0.0
 11
190.293720
 21
56.967830
 31
0.0
  0
LINE
  5
178
100
AcDbEntity
  8
Layer_1
 62
7
100
AcDbLine
 10
190.293720
 20
56.967830
 30
0.0
 11
189.983720
 21
57.277830
 31
0.0
  0
LINE
  5
179
100
AcDbEntity
  8
Layer_1
 62
7
100
AcDbLine
 10
189.983720
 20
57.277830
 30
0.0
 11
189.593720
 21
57.476830
 31
0.0
  0
LINE
  5
17a
100
AcDbEntity
  8
Layer_1
 62
7
100
AcDbLine
 10
189.593720
 20
57.476830
 30
0.0
 11
189.160720
 21
57.544830
 31
0.0
  0
LINE
  5
17b
100
AcDbEntity
  8
Layer_1
 62
7
100
AcDbLine
 10
189.160720
 20
57.544830
 30
0.0
 11
188.728720
 21
57.476830
 31
0.0
  0
LINE
  5
17c
100
AcDbEntity
  8
Layer_1
 62
7
100
AcDbLine
 10
105.227710
 20
57.476830
 30
0.0
 11
104.837710
 21
57.277830
 31
0.0
  0
LINE
  5
17d
100
AcDbEntity
  8
Layer_1
 62
7
100
AcDbLine
 10
104.837710
 20
57.277830
 30
0.0
 11
104.527710
 21
56.967830
 31
0.0
  0
LINE
  5
17e
100
AcDbEntity
  8
Layer_1
 62
7
100
AcDbLine
 10
104.527710
 20
56.967830
 30
0.0
 11
104.328710
 21
56.577830
 31
0.0
  0
LINE
  5
17f
100
AcDbEntity
  8
Layer_1
 62
7
100
AcDbLine
 10
104.328710
 20
56.577830
 30
0.0
 11
104.260710
 21
56.144830
 31
0.0
  0
LINE
  5
180
100
AcDbEntity
  8
Layer_1
 62
7
100
AcDbLine
 10
104.260710
 20
56.144830
 30
0.0
 11
104.328710
 21
55.712830
 31
0.0
  0
LINE
  5
181
100
AcDbEntity
  8
Layer_1
 62
7
100
AcDbLine
 10
104.328710
 20
55.712830
 30
0.0
 11
104.527710
 21
55.322830
 31
0.0
  0
LINE
  5
182
100
AcDbEntity
  8
Layer_1
 62
7
100
AcDbLine
 10
104.527710
 20
55.322830
 30
0.0
 11
104.837710
 21
55.012830
 31
0.0
  0
LINE
  5
183
100
AcDbEntity
  8
Layer_1
 62
7
100
AcDbLine
 10
104.837710
 20
55.012830
 30
0.0
 11
105.227710
 21
54.813830
 31
0.0
  0
LINE
  5
184
100
AcDbEntity
  8
Layer_1
 62
7
100
AcDbLine
 10
105.227710
 20
54.813830
 30
0.0
 11
105.660720
 21
54.745830
 31
0.0
  0
LINE
  5
185
100
AcDbEntity
  8
Layer_1
 62
7
100
AcDbLine
 10
105.660720
 20
54.745830
 30
0.0
 11
106.092710
 21
54.813830
 31
0.0
  0
LINE
  5
186
100
AcDbEntity
  8
Layer_1
 62
7
100
AcDbLine
 10
106.092710
 20
54.813830
 30
0.0
 11
106.483720
 21
55.012830
 31
0.0
  0
LINE
  5
187
100
AcDbEntity
  8
Layer_1
 62
7
100
AcDbLine
 10
106.483720
 20
55.012830
 30
0.0
 11
106.792710
 21
55.322830
 31
0.0
  0
LINE
  5
188
100
AcDbEntity
  8
Layer_1
 62
7
100
AcDbLine
 10
106.792710
 20
55.322830
 30
0.0
 11
106.991720
 21
55.712830
 31
0.0
  0
LINE
  5
189
100
AcDbEntity
  8
Layer_1
 62
7
100
AcDbLine
 10
106.991720
 20
55.712830
 30
0.0
 11
107.060720
 21
56.144830
 31
0.0
  0
LINE
  5
18a
100
AcDbEntity
  8
Layer_1
 62
7
100
AcDbLine
 10
107.060720
 20
56.144830
 30
0.0
 11
106.991720
 21
56.577830
 31
0.0
  0
LINE
  5
18b
100
AcDbEntity
  8
Layer_1
 62
7
100
AcDbLine
 10
106.991720
 20
56.577830
 30
0.0
 11
106.792710
 21
56.967830
 31
0.0
  0
LINE
  5
18c
100
AcDbEntity
  8
Layer_1
 62
7
100
AcDbLine
 10
106.792710
 20
56.967830
 30
0.0
 11
106.483720
 21
57.277830
 31
0.0
  0
LINE
  5
18d
100
AcDbEntity
  8
Layer_1
 62
7
100
AcDbLine
 10
106.483720
 20
57.277830
 30
0.0
 11
106.092710
 21
57.476830
 31
0.0
  0
LINE
  5
18e
100
AcDbEntity
  8
Layer_1
 62
7
100
AcDbLine
 10
106.092710
 20
57.476830
 30
0.0
 11
105.660720
 21
57.544830
 31
0.0
  0
LINE
  5
18f
100
AcDbEntity
  8
Layer_1
 62
7
100
AcDbLine
 10
105.660720
 20
57.544830
 30
0.0
 11
105.227710
 21
57.476830
 31
0.0
  0
LINE
  5
190
100
AcDbEntity
  8
Layer_1
 62
7
100
AcDbLine
 10
21.727714
 20
57.476830
 30
0.0
 11
21.337713
 21
57.277830
 31
0.0
  0
LINE
  5
191
100
AcDbEntity
  8
Layer_1
 62
7
100
AcDbLine
 10
21.337713
 20
57.277830
 30
0.0
 11
21.027713
 21
56.967830
 31
0.0
  0
LINE
  5
192
100
AcDbEntity
  8
Layer_1
 62
7
100
AcDbLine
 10
21.027713
 20
56.967830
 30
0.0
 11
20.828713
 21
56.577830
 31
0.0
  0
LINE
  5
193
100
AcDbEntity
  8
Layer_1
 62
7
100
AcDbLine
 10
20.828713
 20
56.577830
 30
0.0
 11
20.759713
 21
56.144830
 31
0.0
  0
LINE
  5
194
100
AcDbEntity
  8
Layer_1
 62
7
100
AcDbLine
 10
20.759713
 20
56.144830
 30
0.0
 11
20.828713
 21
55.712830
 31
0.0
  0
LINE
  5
195
100
AcDbEntity
  8
Layer_1
 62
7
100
AcDbLine
 10
20.828713
 20
55.712830
 30
0.0
 11
21.027713
 21
55.322830
 31
0.0
  0
LINE
  5
196
100
AcDbEntity
  8
Layer_1
 62
7
100
AcDbLine
 10
21.027713
 20
55.322830
 30
0.0
 11
21.337713
 21
55.012830
 31
0.0
  0
LINE
  5
197
100
AcDbEntity
  8
Layer_1
 62
7
100
AcDbLine
 10
21.337713
 20
55.012830
 30
0.0
 11
21.727714
 21
54.813830
 31
0.0
  0
LINE
  5
198
100
AcDbEntity
  8
Layer_1
 62
7
100
AcDbLine
 10
21.727714
 20
54.813830
 30
0.0
 11
22.159714
 21
54.745830
 31
0.0
  0
LINE
  5
199
100
AcDbEntity
  8
Layer_1
 62
7
100
AcDbLine
 10
22.159714
 20
54.745830
 30
0.0
 11
22.592713
 21
54.813830
 31
0.0
  0
LINE
  5
19a
100
AcDbEntity
  8
Layer_1
 62
7
100
AcDbLine
 10
22.592713
 20
54.813830
 30
0.0
 11
22.982713
 21
55.012830
 31
0.0
  0
LINE
  5
19b
100
AcDbEntity
  8
Layer_1
 62
7
100
AcDbLine
 10
22.982713
 20
55.012830
 30
0.0
 11
23.292713
 21
55.322830
 31
0.0
  0
LINE
  5
19c
100
AcDbEntity
  8
Layer_1
 62
7
100
AcDbLine
 10
23.292713
 20
55.322830
 30
0.0
 11
23.491713
 21
55.712830
 31
0.0
  0
LINE
  5
19d
100
AcDbEntity
  8
Layer_1
 62
7
100
AcDbLine
 10
23.491713
 20
55.712830
 30
0.0
 11
23.559713
 21
56.144830
 31
0.0
  0
LINE
  5
19e
100
AcDbEntity
  8
Layer_1
 62
7
100
AcDbLine
 10
23.559713
 20
56.144830
 30
0.0
 11
23.491713
 21
56.577830
 31
0.0
  0
LINE
  5
19f
100
AcDbEntity
  8
Layer_1
 62
7
100
AcDbLine
 10
23.491713
 20
56.577830
 30
0.0
 11
23.292713
 21
56.967830
 31
0.0
  0
LINE
  5
1a0
100
AcDbEntity
  8
Layer_1
 62
7
100
AcDbLine
 10
23.292713
 20
56.967830
 30
0.0
 11
22.982713
 21
57.277830
 31
0.0
  0
LINE
  5
1a1
100
AcDbEntity
  8
Layer_1
 62
7
100
AcDbLine
 10
22.982713
 20
57.277830
 30
0.0
 11
22.592713
 21
57.476830
 31
0.0
  0
LINE
  5
1a2
100
AcDbEntity
  8
Layer_1
 62
7
100
AcDbLine
 10
22.592713
 20
57.476830
 30
0.0
 11
22.159714
 21
57.544830
 31
0.0
  0
LINE
  5
1a3
100
AcDbEntity
  8
Layer_1
 62
7
100
AcDbLine
 10
22.159714
 20
57.544830
 30
0.0
 11
21.727714
 21
57.476830
 31
0.0
  0
LINE
  5
1a4
100
AcDbEntity
  8
Layer_1
 62
7
100
AcDbLine
 10
34.785713
 20
82.570830
 30
0.0
 11
34.785713
 21
81.570830
 31
0.0
  0
LINE
  5
1a5
100
AcDbEntity
  8
Layer_1
 62
7
100
AcDbLine
 10
34.785713
 20
81.570830
 30
0.0
 11
33.985713
 21
81.570830
 31
0.0
  0
LINE
  5
1a6
100
AcDbEntity
  8
Layer_1
 62
7
100
AcDbLine
 10
33.985713
 20
81.570830
 30
0.0
 11
33.985713
 21
78.670830
 31
0.0
  0
LINE
  5
1a7
100
AcDbEntity
  8
Layer_1
 62
7
100
AcDbLine
 10
33.985713
 20
78.670830
 30
0.0
 11
34.785713
 21
78.670830
 31
0.0
  0
LINE
  5
1a8
100
AcDbEntity
  8
Layer_1
 62
7
100
AcDbLine
 10
34.785713
 20
78.670830
 30
0.0
 11
34.785713
 21
72.670830
 31
0.0
  0
LINE
  5
1a9
100
AcDbEntity
  8
Layer_1
 62
7
100
AcDbLine
 10
34.785713
 20
72.670830
 30
0.0
 11
33.985713
 21
72.670830
 31
0.0
  0
LINE
  5
1aa
100
AcDbEntity
  8
Layer_1
 62
7
100
AcDbLine
 10
33.985713
 20
72.670830
 30
0.0
 11
33.985713
 21
69.770830
 31
0.0
  0
LINE
  5
1ab
100
AcDbEntity
  8
Layer_1
 62
7
100
AcDbLine
 10
33.985713
 20
69.770830
 30
0.0
 11
34.785713
 21
69.770830
 31
0.0
  0
LINE
  5
1ac
100
AcDbEntity
  8
Layer_1
 62
7
100
AcDbLine
 10
34.785713
 20
69.770830
 30
0.0
 11
34.785713
 21
68.770830
 31
0.0
  0
LINE
  5
1ad
100
AcDbEntity
  8
Layer_1
 62
7
100
AcDbLine
 10
34.785713
 20
68.770830
 30
0.0
 11
48.585714
 21
68.770830
 31
0.0
  0
LINE
  5
1ae
100
AcDbEntity
  8
Layer_1
 62
7
100
AcDbLine
 10
48.585714
 20
68.770830
 30
0.0
 11
48.585714
 21
69.770830
 31
0.0
  0
LINE
  5
1af
100
AcDbEntity
  8
Layer_1
 62
7
100
AcDbLine
 10
48.585714
 20
69.770830
 30
0.0
 11
49.385714
 21
69.770830
 31
0.0
  0
LINE
  5
1b0
100
AcDbEntity
  8
Layer_1
 62
7
100
AcDbLine
 10
49.385714
 20
69.770830
 30
0.0
 11
49.385714
 21
72.670830
 31
0.0
  0
LINE
  5
1b1
100
AcDbEntity
  8
Layer_1
 62
7
100
AcDbLine
 10
49.385714
 20
72.670830
 30
0.0
 11
48.585714
 21
72.670830
 31
0.0
  0
LINE
  5
1b2
100
AcDbEntity
  8
Layer_1
 62
7
100
AcDbLine
 10
48.585714
 20
72.670830
 30
0.0
 11
48.585714
 21
78.670830
 31
0.0
  0
LINE
  5
1b3
100
AcDbEntity
  8
Layer_1
 62
7
100
AcDbLine
 10
48.585714
 20
78.670830
 30
0.0
 11
49.385714
 21
78.670830
 31
0.0
  0
LINE
  5
1b4
100
AcDbEntity
  8
Layer_1
 62
7
100
AcDbLine
 10
49.385714
 20
78.670830
 30
0.0
 11
49.385714
 21
81.570830
 31
0.0
  0
LINE
  5
1b5
100
AcDbEntity
  8
Layer_1
 62
7
100
AcDbLine
 10
49.385714
 20
81.570830
 30
0.0
 11
48.585714
 21
81.570830
 31
0.0
  0
LINE
  5
1b6
100
AcDbEntity
  8
Layer_1
 62
7
100
AcDbLine
 10
48.585714
 20
81.570830
 30
0.0
 11
48.585714
 21
82.570830
 31
0.0
  0
LINE
  5
1b7
100
AcDbEntity
  8
Layer_1
 62
7
100
AcDbLine
 10
48.585714
 20
82.570830
 30
0.0
 11
34.785713
 21
82.570830
 31
0.0
  0
LINE
  5
1b8
100
AcDbEntity
  8
Layer_1
 62
7
100
AcDbLine
 10
53.835714
 20
82.570830
 30
0.0
 11
53.835714
 21
81.570830
 31
0.0
  0
LINE
  5
1b9
100
AcDbEntity
  8
Layer_1
 62
7
100
AcDbLine
 10
53.835714
 20
81.570830
 30
0.0
 11
53.034715
 21
81.570830
 31
0.0
  0
LINE
  5
1ba
100
AcDbEntity
  8
Layer_1
 62
7
100
AcDbLine
 10
53.034715
 20
81.570830
 30
0.0
 11
53.034715
 21
78.670830
 31
0.0
  0
LINE
  5
1bb
100
AcDbEntity
  8
Layer_1
 62
7
100
AcDbLine
 10
53.034715
 20
78.670830
 30
0.0
 11
53.835714
 21
78.670830
 31
0.0
  0
LINE
  5
1bc
100
AcDbEntity
  8
Layer_1
 62
7
100
AcDbLine
 10
53.835714
 20
78.670830
 30
0.0
 11
53.835714
 21
72.670830
 31
0.0
  0
LINE
  5
1bd
100
AcDbEntity
  8
Layer_1
 62
7
100
AcDbLine
 10
53.835714
 20
72.670830
 30
0.0
 11
53.034715
 21
72.670830
 31
0.0
  0
LINE
  5
1be
100
AcDbEntity
  8
Layer_1
 62
7
100
AcDbLine
 10
53.034715
 20
72.670830
 30
0.0
 11
53.034715
 21
69.770830
 31
0.0
  0
LINE
  5
1bf
100
AcDbEntity
  8
Layer_1
 62
7
100
AcDbLine
 10
53.034715
 20
69.770830
 30
0.0
 11
53.835714
 21
69.770830
 31
0.0
  0
LINE
  5
1c0
100
AcDbEntity
  8
Layer_1
 62
7
100
AcDbLine
 10
53.835714
 20
69.770830
 30
0.0
 11
53.835714
 21
68.770830
 31
0.0
  0
LINE
  5
1c1
100
AcDbEntity
  8
Layer_1
 62
7
100
AcDbLine
 10
53.835714
 20
68.770830
 30
0.0
 11
67.634714
 21
68.770830
 31
0.0
  0
LINE
  5
1c2
100
AcDbEntity
  8
Layer_1
 62
7
100
AcDbLine
 10
67.634714
 20
68.770830
 30
0.0
 11
67.634714
 21
69.770830
 31
0.0
  0
LINE
  5
1c3
100
AcDbEntity
  8
Layer_1
 62
7
100
AcDbLine
 10
67.634714
 20
69.770830
 30
0.0
 11
68.435714
 21
69.770830
 31
0.0
  0
LINE
  5
1c4
100
AcDbEntity
  8
Layer_1
 62
7
100
AcDbLine
 10
68.435714
 20
69.770830
 30
0.0
 11
68.435714
 21
72.670830
 31
0.0
  0
LINE
  5
1c5
100
AcDbEntity
  8
Layer_1
 62
7
100
AcDbLine
 10
68.435714
 20
72.670830
 30
0.0
 11
67.634714
 21
72.670830
 31
0.0
  0
LINE
  5
1c6
100
AcDbEntity
  8
Layer_1
 62
7
100
AcDbLine
 10
67.634714
 20
72.670830
 30
0.0
 11
67.634714
 21
78.670830
 31
0.0
  0
LINE
  5
1c7
100
AcDbEntity
  8
Layer_1
 62
7
100
AcDbLine
 10
67.634714
 20
78.670830
 30
0.0
 11
68.435714
 21
78.670830
 31
0.0
  0
LINE
  5
1c8
100
AcDbEntity
  8
Layer_1
 62
7
100
AcDbLine
 10
68.435714
 20
78.670830
 30
0.0
 11
68.435714
 21
81.570830
 31
0.0
  0
LINE
  5
1c9
100
AcDbEntity
  8
Layer_1
 62
7
100
AcDbLine
 10
68.435714
 20
81.570830
 30
0.0
 11
67.634714
 21
81.570830
 31
0.0
  0
LINE
  5
1ca
100
AcDbEntity
  8
Layer_1
 62
7
100
AcDbLine
 10
67.634714
 20
81.570830
 30
0.0
 11
67.634714
 21
82.570830
 31
0.0
  0
LINE
  5
1cb
100
AcDbEntity
  8
Layer_1
 62
7
100
AcDbLine
 10
67.634714
 20
82.570830
 30
0.0
 11
53.835714
 21
82.570830
 31
0.0
  0
LINE
  5
1cc
100
AcDbEntity
  8
Layer_1
 62
7
100
AcDbLine
 10
72.884714
 20
82.570830
 30
0.0
 11
72.884714
 21
81.570830
 31
0.0
  0
LINE
  5
1cd
100
AcDbEntity
  8
Layer_1
 62
7
100
AcDbLine
 10
72.884714
 20
81.570830
 30
0.0
 11
72.084715
 21
81.570830
 31
0.0
  0
LINE
  5
1ce
100
AcDbEntity
  8
Layer_1
 62
7
100
AcDbLine
 10
72.084715
 20
81.570830
 30
0.0
 11
72.084715
 21
78.670830
 31
0.0
  0
LINE
  5
1cf
100
AcDbEntity
  8
Layer_1
 62
7
100
AcDbLine
 10
72.084715
 20
78.670830
 30
0.0
 11
72.884714
 21
78.670830
 31
0.0
  0
LINE
  5
1d0
100
AcDbEntity
  8
Layer_1
 62
7
100
AcDbLine
 10
72.884714
 20
78.670830
 30
0.0
 11
72.884714
 21
72.670830
 31
0.0
  0
LINE
  5
1d1
100
AcDbEntity
  8
Layer_1
 62
7
100
AcDbLine
 10
72.884714
 20
72.670830
 30
0.0
 11
72.084715
 21
72.670830
 31
0.0
  0
LINE
  5
1d2
100
AcDbEntity
  8
Layer_1
 62
7
100
AcDbLine
 10
72.084715
 20
72.670830
 30
0.0
 11
72.084715
 21
69.770830
 31
0.0
  0
LINE
  5
1d3
100
AcDbEntity
  8
Layer_1
 62
7
100
AcDbLine
 10
72.084715
 20
69.770830
 30
0.0
 11
72.884714
 21
69.770830
 31
0.0
  0
LINE
  5
1d4
100
AcDbEntity
  8
Layer_1
 62
7
100
AcDbLine
 10
72.884714
 20
69.770830
 30
0.0
 11
72.884714
 21
68.770830
 31
0.0
  0
LINE
  5
1d5
100
AcDbEntity
  8
Layer_1
 62
7
100
AcDbLine
 10
72.884714
 20
68.770830
 30
0.0
 11
86.685714
 21
68.770830
 31
0.0
  0
LINE
  5
1d6
100
AcDbEntity
  8
Layer_1
 62
7
100
AcDbLine
 10
86.685714
 20
68.770830
 30
0.0
 11
86.685714
 21
69.770830
 31
0.0
  0
LINE
  5
1d7
100
AcDbEntity
  8
Layer_1
 62
7
100
AcDbLine
 10
86.685714
 20
69.770830
 30
0.0
 11
87.485714
 21
69.770830
 31
0.0
  0
LINE
  5
1d8
100
AcDbEntity
  8
Layer_1
 62
7
100
AcDbLine
 10
87.485714
 20
69.770830
 30
0.0
 11
87.485714
 21
72.670830
 31
0.0
  0
LINE
  5
1d9
100
AcDbEntity
  8
Layer_1
 62
7
100
AcDbLine
 10
87.485714
 20
72.670830
 30
0.0
 11
86.685714
 21
72.670830
 31
0.0
  0
LINE
  5
1da
100
AcDbEntity
  8
Layer_1
 62
7
100
AcDbLine
 10
86.685714
 20
72.670830
 30
0.0
 11
86.685714
 21
78.670830
 31
0.0
  0
LINE
  5
1db
100
AcDbEntity
  8
Layer_1
 62
7
100
AcDbLine
 10
86.685714
 20
78.670830
 30
0.0
 11
87.485714
 21
78.670830
 31
0.0
  0
LINE
  5
1dc
100
AcDbEntity
  8
Layer_1
 62
7
100
AcDbLine
 10
87.485714
 20
78.670830
 30
0.0
 11
87.485714
 21
81.570830
 31
0.0
  0
LINE
  5
1dd
100
AcDbEntity
  8
Layer_1
 62
7
100
AcDbLine
 10
87.485714
 20
81.570830
 30
0.0
 11
86.685714
 21
81.570830
 31
0.0
  0
LINE
  5
1de
100
AcDbEntity
  8
Layer_1
 62
7
100
AcDbLine
 10
86.685714
 20
81.570830
 30
0.0
 11
86.685714
 21
82.570830
 31
0.0
  0
LINE
  5
1df
100
AcDbEntity
  8
Layer_1
 62
7
100
AcDbLine
 10
86.685714
 20
82.570830
 30
0.0
 11
72.884714
 21
82.570830
 31
0.0
  0
LINE
  5
1e0
100
AcDbEntity
  8
Layer_1
 62
7
100
AcDbLine
 10
91.934714
 20
82.570830
 30
0.0
 11
91.934714
 21
81.570830
 31
0.0
  0
LINE
  5
1e1
100
AcDbEntity
  8
Layer_1
 62
7
100
AcDbLine
 10
91.934714
 20
81.570830
 30
0.0
 11
91.134715
 21
81.570830
 31
0.0
  0
LINE
  5
1e2
100
AcDbEntity
  8
Layer_1
 62
7
100
AcDbLine
 10
91.134715
 20
81.570830
 30
0.0
 11
91.134715
 21
78.670830
 31
0.0
  0
LINE
  5
1e3
100
AcDbEntity
  8
Layer_1
 62
7
100
AcDbLine
 10
91.134715
 20
78.670830
 30
0.0
 11
91.934714
 21
78.670830
 31
0.0
  0
LINE
  5
1e4
100
AcDbEntity
  8
Layer_1
 62
7
100
AcDbLine
 10
91.934714
 20
78.670830
 30
0.0
 11
91.934714
 21
72.670830
 31
0.0
  0
LINE
  5
1e5
100
AcDbEntity
  8
Layer_1
 62
7
100
AcDbLine
 10
91.934714
 20
72.670830
 30
0.0
 11
91.134715
 21
72.670830
 31
0.0
  0
LINE
  5
1e6
100
AcDbEntity
  8
Layer_1
 62
7
100
AcDbLine
 10
91.134715
 20
72.670830
 30
0.0
 11
91.134715
 21
69.770830
 31
0.0
  0
LINE
  5
1e7
100
AcDbEntity
  8
Layer_1
 62
7
100
AcDbLine
 10
91.134715
 20
69.770830
 30
0.0
 11
91.934714
 21
69.770830
 31
0.0
  0
LINE
  5
1e8
100
AcDbEntity
  8
Layer_1
 62
7
100
AcDbLine
 10
91.934714
 20
69.770830
 30
0.0
 11
91.934714
 21
68.770830
 31
0.0
  0
LINE
  5
1e9
100
AcDbEntity
  8
Layer_1
 62
7
100
AcDbLine
 10
91.934714
 20
68.770830
 30
0.0
 11
105.735710
 21
68.770830
 31
0.0
  0
LINE
  5
1ea
100
AcDbEntity
  8
Layer_1
 62
7
100
AcDbLine
 10
105.735710
 20
68.770830
 30
0.0
 11
105.735710
 21
69.770830
 31
0.0
  0
LINE
  5
1eb
100
AcDbEntity
  8
Layer_1
 62
7
100
AcDbLine
 10
105.735710
 20
69.770830
 30
0.0
 11
106.535710
 21
69.770830
 31
0.0
  0
LINE
  5
1ec
100
AcDbEntity
  8
Layer_1
 62
7
100
AcDbLine
 10
106.535710
 20
69.770830
 30
0.0
 11
106.535710
 21
72.670830
 31
0.0
  0
LINE
  5
1ed
100
AcDbEntity
  8
Layer_1
 62
7
100
AcDbLine
 10
106.535710
 20
72.670830
 30
0.0
 11
105.735710
 21
72.670830
 31
0.0
  0
LINE
  5
1ee
100
AcDbEntity
  8
Layer_1
 62
7
100
AcDbLine
 10
105.735710
 20
72.670830
 30
0.0
 11
105.735710
 21
78.670830
 31
0.0
  0
LINE
  5
1ef
100
AcDbEntity
  8
Layer_1
 62
7
100
AcDbLine
 10
105.735710
 20
78.670830
 30
0.0
 11
106.535710
 21
78.670830
 31
0.0
  0
LINE
  5
1f0
100
AcDbEntity
  8
Layer_1
 62
7
100
AcDbLine
 10
106.535710
 20
78.670830
 30
0.0
 11
106.535710
 21
81.570830
 31
0.0
  0
LINE
  5
1f1
100
AcDbEntity
  8
Layer_1
 62
7
100
AcDbLine
 10
106.535710
 20
81.570830
 30
0.0
 11
105.735710
 21
81.570830
 31
0.0
  0
LINE
  5
1f2
100
AcDbEntity
  8
Layer_1
 62
7
100
AcDbLine
 10
105.735710
 20
81.570830
 30
0.0
 11
105.735710
 21
82.570830
 31
0.0
  0
LINE
  5
1f3
100
AcDbEntity
  8
Layer_1
 62
7
100
AcDbLine
 10
105.735710
 20
82.570830
 30
0.0
 11
91.934714
 21
82.570830
 31
0.0
  0
LINE
  5
1f4
100
AcDbEntity
  8
Layer_1
 62
7
100
AcDbLine
 10
110.984710
 20
82.570830
 30
0.0
 11
110.984710
 21
81.570830
 31
0.0
  0
LINE
  5
1f5
100
AcDbEntity
  8
Layer_1
 62
7
100
AcDbLine
 10
110.984710
 20
81.570830
 30
0.0
 11
110.184720
 21
81.570830
 31
0.0
  0
LINE
  5
1f6
100
AcDbEntity
  8
Layer_1
 62
7
100
AcDbLine
 10
110.184720
 20
81.570830
 30
0.0
 11
110.184720
 21
78.670830
 31
0.0
  0
LINE
  5
1f7
100
AcDbEntity
  8
Layer_1
 62
7
100
AcDbLine
 10
110.184720
 20
78.670830
 30
0.0
 11
110.984710
 21
78.670830
 31
0.0
  0
LINE
  5
1f8
100
AcDbEntity
  8
Layer_1
 62
7
100
AcDbLine
 10
110.984710
 20
78.670830
 30
0.0
 11
110.984710
 21
72.670830
 31
0.0
  0
LINE
  5
1f9
100
AcDbEntity
  8
Layer_1
 62
7
100
AcDbLine
 10
110.984710
 20
72.670830
 30
0.0
 11
110.184720
 21
72.670830
 31
0.0
  0
LINE
  5
1fa
100
AcDbEntity
  8
Layer_1
 62
7
100
AcDbLine
 10
110.184720
 20
72.670830
 30
0.0
 11
110.184720
 21
69.770830
 31
0.0
  0
LINE
  5
1fb
100
AcDbEntity
  8
Layer_1
 62
7
100
AcDbLine
 10
110.184720
 20
69.770830
 30
0.0
 11
110.984710
 21
69.770830
 31
0.0
  0
LINE
  5
1fc
100
AcDbEntity
  8
Layer_1
 62
7
100
AcDbLine
 10
110.984710
 20
69.770830
 30
0.0
 11
110.984710
 21
68.770830
 31
0.0
  0
LINE
  5
1fd
100
AcDbEntity
  8
Layer_1
 62
7
100
AcDbLine
 10
110.984710
 20
68.770830
 30
0.0
 11
124.785720
 21
68.770830
 31
0.0
  0
LINE
  5
1fe
100
AcDbEntity
  8
Layer_1
 62
7
100
AcDbLine
 10
124.785720
 20
68.770830
 30
0.0
 11
124.785720
 21
69.770830
 31
0.0
  0
LINE
  5
1ff
100
AcDbEntity
  8
Layer_1
 62
7
100
AcDbLine
 10
124.785720
 20
69.770830
 30
0.0
 11
125.584720
 21
69.770830
 31
0.0
  0
LINE
  5
200
100
AcDbEntity
  8
Layer_1
 62
7
100
AcDbLine
 10
125.584720
 20
69.770830
 30
0.0
 11
125.584720
 21
72.670830
 31
0.0
  0
LINE
  5
201
100
AcDbEntity
  8
Layer_1
 62
7
100
AcDbLine
 10
125.584720
 20
72.670830
 30
0.0
 11
124.785720
 21
72.670830
 31
0.0
  0
LINE
  5
202
100
AcDbEntity
  8
Layer_1
 62
7
100
AcDbLine
 10
124.785720
 20
72.670830
 30
0.0
 11
124.785720
 21
78.670830
 31
0.0
  0
LINE
  5
203
100
AcDbEntity
  8
Layer_1
 62
7
100
AcDbLine
 10
124.785720
 20
78.670830
 30
0.0
 11
125.584720
 21
78.670830
 31
0.0
  0
LINE
  5
204
100
AcDbEntity
  8
Layer_1
 62
7
100
AcDbLine
 10
125.584720
 20
78.670830
 30
0.0
 11
125.584720
 21
81.570830
 31
0.0
  0
LINE
  5
205
100
AcDbEntity
  8
Layer_1
 62
7
100
AcDbLine
 10
125.584720
 20
81.570830
 30
0.0
 11
124.785720
 21
81.570830
 31
0.0
  0
LINE
  5
206
100
AcDbEntity
  8
Layer_1
 62
7
100
AcDbLine
 10
124.785720
 20
81.570830
 30
0.0
 11
124.785720
 21
82.570830
 31
0.0
  0
LINE
  5
207
100
AcDbEntity
  8
Layer_1
 62
7
100
AcDbLine
 10
124.785720
 20
82.570830
 30
0.0
 11
110.984710
 21
82.570830
 31
0.0
  0
LINE
  5
208
100
AcDbEntity
  8
Layer_1
 62
7
100
AcDbLine
 10
130.034720
 20
82.570830
 30
0.0
 11
130.034720
 21
81.570830
 31
0.0
  0
LINE
  5
209
100
AcDbEntity
  8
Layer_1
 62
7
100
AcDbLine
 10
130.034720
 20
81.570830
 30
0.0
 11
129.234720
 21
81.570830
 31
0.0
  0
LINE
  5
20a
100
AcDbEntity
  8
Layer_1
 62
7
100
AcDbLine
 10
129.234720
 20
81.570830
 30
0.0
 11
129.234720
 21
78.670830
 31
0.0
  0
LINE
  5
20b
100
AcDbEntity
  8
Layer_1
 62
7
100
AcDbLine
 10
129.234720
 20
78.670830
 30
0.0
 11
130.034720
 21
78.670830
 31
0.0
  0
LINE
  5
20c
100
AcDbEntity
  8
Layer_1
 62
7
100
AcDbLine
 10
130.034720
 20
78.670830
 30
0.0
 11
130.034720
 21
72.670830
 31
0.0
  0
LINE
  5
20d
100
AcDbEntity
  8
Layer_1
 62
7
100
AcDbLine
 10
130.034720
 20
72.670830
 30
0.0
 11
129.234720
 21
72.670830
 31
0.0
  0
LINE
  5
20e
100
AcDbEntity
  8
Layer_1
 62
7
100
AcDbLine
 10
129.234720
 20
72.670830
 30
0.0
 11
129.234720
 21
69.770830
 31
0.0
  0
LINE
  5
20f
100
AcDbEntity
  8
Layer_1
 62
7
100
AcDbLine
 10
129.234720
 20
69.770830
 30
0.0
 11
130.034720
 21
69.770830
 31
0.0
  0
LINE
  5
210
100
AcDbEntity
  8
Layer_1
 62
7
100
AcDbLine
 10
130.034720
 20
69.770830
 30
0.0
 11
130.034720
 21
68.770830
 31
0.0
  0
LINE
  5
211
100
AcDbEntity
  8
Layer_1
 62
7
100
AcDbLine
 10
130.034720
 20
68.770830
 30
0.0
 11
143.834720
 21
68.770830
 31
0.0
  0
LINE
  5
212
100
AcDbEntity
  8
Layer_1
 62
7
100
AcDbLine
 10
143.834720
 20
68.770830
 30
0.0
 11
143.834720
 21
69.770830
 31
0.0
  0
LINE
  5
213
100
AcDbEntity
  8
Layer_1
 62
7
100
AcDbLine
 10
143.834720
 20
69.770830
 30
0.0
 11
144.635720
 21
69.770830
 31
0.0
  0
LINE
  5
214
100
AcDbEntity
  8
Layer_1
 62
7
100
AcDbLine
 10
144.635720
 20
69.770830
 30
0.0
 11
144.635720
 21
72.670830
 31
0.0
  0
LINE
  5
215
100
AcDbEntity
  8
Layer_1
 62
7
100
AcDbLine
 10
144.635720
 20
72.670830
 30
0.0
 11
143.834720
 21
72.670830
 31
0.0
  0
LINE
  5
216
100
AcDbEntity
  8
Layer_1
 62
7
100
AcDbLine
 10
143.834720
 20
72.670830
 30
0.0
 11
143.834720
 21
78.670830
 31
0.0
  0
LINE
  5
217
100
AcDbEntity
  8
Layer_1
 62
7
100
AcDbLine
 10
143.834720
 20
78.670830
 30
0.0
 11
144.635720
 21
78.670830
 31
0.0
  0
LINE
  5
218
100
AcDbEntity
  8
Layer_1
 62
7
100
AcDbLine
 10
144.635720
 20
78.670830
 30
0.0
 11
144.635720
 21
81.570830
 31
0.0
  0
LINE
  5
219
100
AcDbEntity
  8
Layer_1
 62
7
100
AcDbLine
 10
144.635720
 20
81.570830
 30
0.0
 11
143.834720
 21
81.570830
 31
0.0
  0
LINE
  5
21a
100
AcDbEntity
  8
Layer_1
 62
7
100
AcDbLine
 10
143.834720
 20
81.570830
 30
0.0
 11
143.834720
 21
82.570830
 31
0.0
  0
LINE
  5
21b
100
AcDbEntity
  8
Layer_1
 62
7
100
AcDbLine
 10
143.834720
 20
82.570830
 30
0.0
 11
130.034720
 21
82.570830
 31
0.0
  0
LINE
  5
21c
100
AcDbEntity
  8
Layer_1
 62
7
100
AcDbLine
 10
149.084720
 20
82.570830
 30
0.0
 11
149.084720
 21
81.570830
 31
0.0
  0
LINE
  5
21d
100
AcDbEntity
  8
Layer_1
 62
7
100
AcDbLine
 10
149.084720
 20
81.570830
 30
0.0
 11
148.285720
 21
81.570830
 31
0.0
  0
LINE
  5
21e
100
AcDbEntity
  8
Layer_1
 62
7
100
AcDbLine
 10
148.285720
 20
81.570830
 30
0.0
 11
148.285720
 21
78.670830
 31
0.0
  0
LINE
  5
21f
100
AcDbEntity
  8
Layer_1
 62
7
100
AcDbLine
 10
148.285720
 20
78.670830
 30
0.0
 11
149.084720
 21
78.670830
 31
0.0
  0
LINE
  5
220
100
AcDbEntity
  8
Layer_1
 62
7
100
AcDbLine
 10
149.084720
 20
78.670830
 30
0.0
 11
149.084720
 21
72.670830
 31
0.0
  0
LINE
  5
221
100
AcDbEntity
  8
Layer_1
 62
7
100
AcDbLine
 10
149.084720
 20
72.670830
 30
0.0
 11
148.285720
 21
72.670830
 31
0.0
  0
LINE
  5
222
100
AcDbEntity
  8
Layer_1
 62
7
100
AcDbLine
 10
148.285720
 20
72.670830
 30
0.0
 11
148.285720
 21
69.770830
 31
0.0
  0
LINE
  5
223
100
AcDbEntity
  8
Layer_1
 62
7
100
AcDbLine
 10
148.285720
 20
69.770830
 30
0.0
 11
149.084720
 21
69.770830
 31
0.0
  0
LINE
  5
224
100
AcDbEntity
  8
Layer_1
 62
7
100
AcDbLine
 10
149.084720
 20
69.770830
 30
0.0
 11
149.084720
 21
68.770830
 31
0.0
  0
LINE
  5
225
100
AcDbEntity
  8
Layer_1
 62
7
100
AcDbLine
 10
149.084720
 20
68.770830
 30
0.0
 11
162.885720
 21
68.770830
 31
0.0
  0
LINE
  5
226
100
AcDbEntity
  8
Layer_1
 62
7
100
AcDbLine
 10
162.885720
 20
68.770830
 30
0.0
 11
162.885720
 21
69.770830
 31
0.0
  0
LINE
  5
227
100
AcDbEntity
  8
Layer_1
 62
7
100
AcDbLine
 10
162.885720
 20
69.770830
 30
0.0
 11
163.684720
 21
69.770830
 31
0.0
  0
LINE
  5
228
100
AcDbEntity
  8
Layer_1
 62
7
100
AcDbLine
 10
163.684720
 20
69.770830
 30
0.0
 11
163.684720
 21
72.670830
 31
0.0
  0
LINE
  5
229
100
AcDbEntity
  8
Layer_1
 62
7
100
AcDbLine
 10
163.684720
 20
72.670830
 30
0.0
 11
162.885720
 21
72.670830
 31
0.0
  0
LINE
  5
22a
100
AcDbEntity
  8
Layer_1
 62
7
100
AcDbLine
 10
162.885720
 20
72.670830
 30
0.0
 11
162.885720
 21
78.670830
 31
0.0
  0
LINE
  5
22b
100
AcDbEntity
  8
Layer_1
 62
7
100
AcDbLine
 10
162.885720
 20
78.670830
 30
0.0
 11
163.684720
 21
78.670830
 31
0.0
  0
LINE
  5
22c
100
AcDbEntity
  8
Layer_1
 62
7
100
AcDbLine
 10
163.684720
 20
78.670830
 30
0.0
 11
163.684720
 21
81.570830
 31
0.0
  0
LINE
  5
22d
100
AcDbEntity
  8
Layer_1
 62
7
100
AcDbLine
 10
163.684720
 20
81.570830
 30
0.0
 11
162.885720
 21
81.570830
 31
0.0
  0
LINE
  5
22e
100
AcDbEntity
  8
Layer_1
 62
7
100
AcDbLine
 10
162.885720
 20
81.570830
 30
0.0
 11
162.885720
 21
82.570830
 31
0.0
  0
LINE
  5
22f
100
AcDbEntity
  8
Layer_1
 62
7
100
AcDbLine
 10
162.885720
 20
82.570830
 30
0.0
 11
149.084720
 21
82.570830
 31
0.0
  0
LINE
  5
230
100
AcDbEntity
  8
Layer_1
 62
7
100
AcDbLine
 10
168.135720
 20
82.570830
 30
0.0
 11
168.135720
 21
81.570830
 31
0.0
  0
LINE
  5
231
100
AcDbEntity
  8
Layer_1
 62
7
100
AcDbLine
 10
168.135720
 20
81.570830
 30
0.0
 11
167.335720
 21
81.570830
 31
0.0
  0
LINE
  5
232
100
AcDbEntity
  8
Layer_1
 62
7
100
AcDbLine
 10
167.335720
 20
81.570830
 30
0.0
 11
167.335720
 21
78.670830
 31
0.0
  0
LINE
  5
233
100
AcDbEntity
  8
Layer_1
 62
7
100
AcDbLine
 10
167.335720
 20
78.670830
 30
0.0
 11
168.135720
 21
78.670830
 31
0.0
  0
LINE
  5
234
100
AcDbEntity
  8
Layer_1
 62
7
100
AcDbLine
 10
168.135720
 20
78.670830
 30
0.0
 11
168.135720
 21
72.670830
 31
0.0
  0
LINE
  5
235
100
AcDbEntity
  8
Layer_1
 62
7
100
AcDbLine
 10
168.135720
 20
72.670830
 30
0.0
 11
167.335720
 21
72.670830
 31
0.0
  0
LINE
  5
236
100
AcDbEntity
  8
Layer_1
 62
7
100
AcDbLine
 10
167.335720
 20
72.670830
 30
0.0
 11
167.335720
 21
69.770830
 31
0.0
  0
LINE
  5
237
100
AcDbEntity
  8
Layer_1
 62
7
100
AcDbLine
 10
167.335720
 20
69.770830
 30
0.0
 11
168.135720
 21
69.770830
 31
0.0
  0
LINE
  5
238
100
AcDbEntity
  8
Layer_1
 62
7
100
AcDbLine
 10
168.135720
 20
69.770830
 30
0.0
 11
168.135720
 21
68.770830
 31
0.0
  0
LINE
  5
239
100
AcDbEntity
  8
Layer_1
 62
7
100
AcDbLine
 10
168.135720
 20
68.770830
 30
0.0
 11
181.935720
 21
68.770830
 31
0.0
  0
LINE
  5
23a
100
AcDbEntity
  8
Layer_1
 62
7
100
AcDbLine
 10
181.935720
 20
68.770830
 30
0.0
 11
181.935720
 21
69.770830
 31
0.0
  0
LINE
  5
23b
100
AcDbEntity
  8
Layer_1
 62
7
100
AcDbLine
 10
181.935720
 20
69.770830
 30
0.0
 11
182.734720
 21
69.770830
 31
0.0
  0
LINE
  5
23c
100
AcDbEntity
  8
Layer_1
 62
7
100
AcDbLine
 10
182.734720
 20
69.770830
 30
0.0
 11
182.734720
 21
72.670830
 31
0.0
  0
LINE
  5
23d
100
AcDbEntity
  8
Layer_1
 62
7
100
AcDbLine
 10
182.734720
 20
72.670830
 30
0.0
 11
181.935720
 21
72.670830
 31
0.0
  0
LINE
  5
23e
100
AcDbEntity
  8
Layer_1
 62
7
100
AcDbLine
 10
181.935720
 20
72.670830
 30
0.0
 11
181.935720
 21
78.670830
 31
0.0
  0
LINE
  5
23f
100
AcDbEntity
  8
Layer_1
 62
7
100
AcDbLine
 10
181.935720
 20
78.670830
 30
0.0
 11
182.734720
 21
78.670830
 31
0.0
  0
LINE
  5
240
100
AcDbEntity
  8
Layer_1
 62
7
100
AcDbLine
 10
182.734720
 20
78.670830
 30
0.0
 11
182.734720
 21
81.570830
 31
0.0
  0
LINE
  5
241
100
AcDbEntity
  8
Layer_1
 62
7
100
AcDbLine
 10
182.734720
 20
81.570830
 30
0.0
 11
181.935720
 21
81.570830
 31
0.0
  0
LINE
  5
242
100
AcDbEntity
  8
Layer_1
 62
7
100
AcDbLine
 10
181.935720
 20
81.570830
 30
0.0
 11
181.935720
 21
82.570830
 31
0.0
  0
LINE
  5
243
100
AcDbEntity
  8
Layer_1
 62
7
100
AcDbLine
 10
181.935720
 20
82.570830
 30
0.0
 11
168.135720
 21
82.570830
 31
0.0
  0
LINE
  5
244
100
AcDbEntity
  8
Layer_1
 62
7
100
AcDbLine
 10
187.185720
 20
82.570830
 30
0.0
 11
187.185720
 21
81.570830
 31
0.0
  0
LINE
  5
245
100
AcDbEntity
  8
Layer_1
 62
7
100
AcDbLine
 10
187.185720
 20
81.570830
 30
0.0
 11
186.385720
 21
81.570830
 31
0.0
  0
LINE
  5
246
100
AcDbEntity
  8
Layer_1
 62
7
100
AcDbLine
 10
186.385720
 20
81.570830
 30
0.0
 11
186.385720
 21
78.670830
 31
0.0
  0
LINE
  5
247
100
AcDbEntity
  8
Layer_1
 62
7
100
AcDbLine
 10
186.385720
 20
78.670830
 30
0.0
 11
187.185720
 21
78.670830
 31
0.0
  0
LINE
  5
248
100
AcDbEntity
  8
Layer_1
 62
7
100
AcDbLine
 10
187.185720
 20
78.670830
 30
0.0
 11
187.185720
 21
72.670830
 31
0.0
  0
LINE
  5
249
100
AcDbEntity
  8
Layer_1
 62
7
100
AcDbLine
 10
187.185720
 20
72.670830
 30
0.0
 11
186.385720
 21
72.670830
 31
0.0
  0
LINE
  5
24a
100
AcDbEntity
  8
Layer_1
 62
7
100
AcDbLine
 10
186.385720
 20
72.670830
 30
0.0
 11
186.385720
 21
69.770830
 31
0.0
  0
LINE
  5
24b
100
AcDbEntity
  8
Layer_1
 62
7
100
AcDbLine
 10
186.385720
 20
69.770830
 30
0.0
 11
187.185720
 21
69.770830
 31
0.0
  0
LINE
  5
24c
100
AcDbEntity
  8
Layer_1
 62
7
100
AcDbLine
 10
187.185720
 20
69.770830
 30
0.0
 11
187.185720
 21
68.770830
 31
0.0
  0
LINE
  5
24d
100
AcDbEntity
  8
Layer_1
 62
7
100
AcDbLine
 10
187.185720
 20
68.770830
 30
0.0
 11
200.985720
 21
68.770830
 31
0.0
  0
LINE
  5
24e
100
AcDbEntity
  8
Layer_1
 62
7
100
AcDbLine
 10
200.985720
 20
68.770830
 30
0.0
 11
200.985720
 21
69.770830
 31
0.0
  0
LINE
  5
24f
100
AcDbEntity
  8
Layer_1
 62
7
100
AcDbLine
 10
200.985720
 20
69.770830
 30
0.0
 11
201.785720
 21
69.770830
 31
0.0
  0
LINE
  5
250
100
AcDbEntity
  8
Layer_1
 62
7
100
AcDbLine
 10
201.785720
 20
69.770830
 30
0.0
 11
201.785720
 21
72.670830
 31
0.0
  0
LINE
  5
251
100
AcDbEntity
  8
Layer_1
 62
7
100
AcDbLine
 10
201.785720
 20
72.670830
 30
0.0
 11
200.985720
 21
72.670830
 31
0.0
  0
LINE
  5
252
100
AcDbEntity
  8
Layer_1
 62
7
100
AcDbLine
 10
200.985720
 20
72.670830
 30
0.0
 11
200.985720
 21
78.670830
 31
0.0
  0
LINE
  5
253
100
AcDbEntity
  8
Layer_1
 62
7
100
AcDbLine
 10
200.985720
 20
78.670830
 30
0.0
 11
201.785720
 21
78.670830
 31
0.0
  0
LINE
  5
254
100
AcDbEntity
  8
Layer_1
 62
7
100
AcDbLine
 10
201.785720
 20
78.670830
 30
0.0
 11
201.785720
 21
81.570830
 31
0.0
  0
LINE
  5
255
100
AcDbEntity
  8
Layer_1
 62
7
100
AcDbLine
 10
201.785720
 20
81.570830
 30
0.0
 11
200.985720
 21
81.570830
 31
0.0
  0
LINE
  5
256
100
AcDbEntity
  8
Layer_1
 62
7
100
AcDbLine
 10
200.985720
 20
81.570830
 30
0.0
 11
200.985720
 21
82.570830
 31
0.0
  0
LINE
  5
257
100
AcDbEntity
  8
Layer_1
 62
7
100
AcDbLine
 10
200.985720
 20
82.570830
 30
0.0
 11
187.185720
 21
82.570830
 31
0.0
  0
LINE
  5
258
100
AcDbEntity
  8
Layer_1
 62
7
100
AcDbLine
 10
206.235720
 20
82.570830
 30
0.0
 11
206.235720
 21
81.570830
 31
0.0
  0
LINE
  5
259
100
AcDbEntity
  8
Layer_1
 62
7
100
AcDbLine
 10
206.235720
 20
81.570830
 30
0.0
 11
205.435720
 21
81.570830
 31
0.0
  0
LINE
  5
25a
100
AcDbEntity
  8
Layer_1
 62
7
100
AcDbLine
 10
205.435720
 20
81.570830
 30
0.0
 11
205.435720
 21
78.670830
 31
0.0
  0
LINE
  5
25b
100
AcDbEntity
  8
Layer_1
 62
7
100
AcDbLine
 10
205.435720
 20
78.670830
 30
0.0
 11
206.235720
 21
78.670830
 31
0.0
  0
LINE
  5
25c
100
AcDbEntity
  8
Layer_1
 62
7
100
AcDbLine
 10
206.235720
 20
78.670830
 30
0.0
 11
206.235720
 21
72.670830
 31
0.0
  0
LINE
  5
25d
100
AcDbEntity
  8
Layer_1
 62
7
100
AcDbLine
 10
206.235720
 20
72.670830
 30
0.0
 11
205.435720
 21
72.670830
 31
0.0
  0
LINE
  5
25e
100
AcDbEntity
  8
Layer_1
 62
7
100
AcDbLine
 10
205.435720
 20
72.670830
 30
0.0
 11
205.435720
 21
69.770830
 31
0.0
  0
LINE
  5
25f
100
AcDbEntity
  8
Layer_1
 62
7
100
AcDbLine
 10
205.435720
 20
69.770830
 30
0.0
 11
206.235720
 21
69.770830
 31
0.0
  0
LINE
  5
260
100
AcDbEntity
  8
Layer_1
 62
7
100
AcDbLine
 10
206.235720
 20
69.770830
 30
0.0
 11
206.235720
 21
68.770830
 31
0.0
  0
LINE
  5
261
100
AcDbEntity
  8
Layer_1
 62
7
100
AcDbLine
 10
206.235720
 20
68.770830
 30
0.0
 11
220.035720
 21
68.770830
 31
0.0
  0
LINE
  5
262
100
AcDbEntity
  8
Layer_1
 62
7
100
AcDbLine
 10
220.035720
 20
68.770830
 30
0.0
 11
220.035720
 21
69.770830
 31
0.0
  0
LINE
  5
263
100
AcDbEntity
  8
Layer_1
 62
7
100
AcDbLine
 10
220.035720
 20
69.770830
 30
0.0
 11
220.835720
 21
69.770830
 31
0.0
  0
LINE
  5
264
100
AcDbEntity
  8
Layer_1
 62
7
100
AcDbLine
 10
220.835720
 20
69.770830
 30
0.0
 11
220.835720
 21
72.670830
 31
0.0
  0
LINE
  5
265
100
AcDbEntity
  8
Layer_1
 62
7
100
AcDbLine
 10
220.835720
 20
72.670830
 30
0.0
 11
220.035720
 21
72.670830
 31
0.0
  0
LINE
  5
266
100
AcDbEntity
  8
Layer_1
 62
7
100
AcDbLine
 10
220.035720
 20
72.670830
 30
0.0
 11
220.035720
 21
78.670830
 31
0.0
  0
LINE
  5
267
100
AcDbEntity
  8
Layer_1
 62
7
100
AcDbLine
 10
220.035720
 20
78.670830
 30
0.0
 11
220.835720
 21
78.670830
 31
0.0
  0
LINE
  5
268
100
AcDbEntity
  8
Layer_1
 62
7
100
AcDbLine
 10
220.835720
 20
78.670830
 30
0.0
 11
220.835720
 21
81.570830
 31
0.0
  0
LINE
  5
269
100
AcDbEntity
  8
Layer_1
 62
7
100
AcDbLine
 10
220.835720
 20
81.570830
 30
0.0
 11
220.035720
 21
81.570830
 31
0.0
  0
LINE
  5
26a
100
AcDbEntity
  8
Layer_1
 62
7
100
AcDbLine
 10
220.035720
 20
81.570830
 30
0.0
 11
220.035720
 21
82.570830
 31
0.0
  0
LINE
  5
26b
100
AcDbEntity
  8
Layer_1
 62
7
100
AcDbLine
 10
220.035720
 20
82.570830
 30
0.0
 11
206.235720
 21
82.570830
 31
0.0
  0
LINE
  5
26c
100
AcDbEntity
  8
Layer_1
 62
7
100
AcDbLine
 10
34.785713
 20
111.145830
 30
0.0
 11
34.785713
 21
110.145830
 31
0.0
  0
LINE
  5
26d
100
AcDbEntity
  8
Layer_1
 62
7
100
AcDbLine
 10
34.785713
 20
110.145830
 30
0.0
 11
33.985713
 21
110.145830
 31
0.0
  0
LINE
  5
26e
100
AcDbEntity
  8
Layer_1
 62
7
100
AcDbLine
 10
33.985713
 20
110.145830
 30
0.0
 11
33.985713
 21
107.245830
 31
0.0
  0
LINE
  5
26f
100
AcDbEntity
  8
Layer_1
 62
7
100
AcDbLine
 10
33.985713
 20
107.245830
 30
0.0
 11
34.785713
 21
107.245830
 31
0.0
  0
LINE
  5
270
100
AcDbEntity
  8
Layer_1
 62
7
100
AcDbLine
 10
34.785713
 20
107.245830
 30
0.0
 11
34.785713
 21
101.245830
 31
0.0
  0
LINE
  5
271
100
AcDbEntity
  8
Layer_1
 62
7
100
AcDbLine
 10
34.785713
 20
101.245830
 30
0.0
 11
33.985713
 21
101.245830
 31
0.0
  0
LINE
  5
272
100
AcDbEntity
  8
Layer_1
 62
7
100
AcDbLine
 10
33.985713
 20
101.245830
 30
0.0
 11
33.985713
 21
98.345830
 31
0.0
  0
LINE
  5
273
100
AcDbEntity
  8
Layer_1
 62
7
100
AcDbLine
 10
33.985713
 20
98.345830
 30
0.0
 11
34.785713
 21
98.345830
 31
0.0
  0
LINE
  5
274
100
AcDbEntity
  8
Layer_1
 62
7
100
AcDbLine
 10
34.785713
 20
98.345830
 30
0.0
 11
34.785713
 21
97.345830
 31
0.0
  0
LINE
  5
275
100
AcDbEntity
  8
Layer_1
 62
7
100
AcDbLine
 10
34.785713
 20
97.345830
 30
0.0
 11
48.585714
 21
97.345830
 31
0.0
  0
LINE
  5
276
100
AcDbEntity
  8
Layer_1
 62
7
100
AcDbLine
 10
48.585714
 20
97.345830
 30
0.0
 11
48.585714
 21
98.345830
 31
0.0
  0
LINE
  5
277
100
AcDbEntity
  8
Layer_1
 62
7
100
AcDbLine
 10
48.585714
 20
98.345830
 30
0.0
 11
49.385714
 21
98.345830
 31
0.0
  0
LINE
  5
278
100
AcDbEntity
  8
Layer_1
 62
7
100
AcDbLine
 10
49.385714
 20
98.345830
 30
0.0
 11
49.385714
 21
101.245830
 31
0.0
  0
LINE
  5
279
100
AcDbEntity
  8
Layer_1
 62
7
100
AcDbLine
 10
49.385714
 20
101.245830
 30
0.0
 11
48.585714
 21
101.245830
 31
0.0
  0
LINE
  5
27a
100
AcDbEntity
  8
Layer_1
 62
7
100
AcDbLine
 10
48.585714
 20
101.245830
 30
0.0
 11
48.585714
 21
107.245830
 31
0.0
  0
LINE
  5
27b
100
AcDbEntity
  8
Layer_1
 62
7
100
AcDbLine
 10
48.585714
 20
107.245830
 30
0.0
 11
49.385714
 21
107.245830
 31
0.0
  0
LINE
  5
27c
100
AcDbEntity
  8
Layer_1
 62
7
100
AcDbLine
 10
49.385714
 20
107.245830
 30
0.0
 11
49.385714
 21
110.145830
 31
0.0
  0
LINE
  5
27d
100
AcDbEntity
  8
Layer_1
 62
7
100
AcDbLine
 10
49.385714
 20
110.145830
 30
0.0
 11
48.585714
 21
110.145830
 31
0.0
  0
LINE
  5
27e
100
AcDbEntity
  8
Layer_1
 62
7
100
AcDbLine
 10
48.585714
 20
110.145830
 30
0.0
 11
48.585714
 21
111.145830
 31
0.0
  0
LINE
  5
27f
100
AcDbEntity
  8
Layer_1
 62
7
100
AcDbLine
 10
48.585714
 20
111.145830
 30
0.0
 11
34.785713
 21
111.145830
 31
0.0
  0
LINE
  5
280
100
AcDbEntity
  8
Layer_1
 62
7
100
AcDbLine
 10
53.835714
 20
111.145830
 30
0.0
 11
53.835714
 21
110.145830
 31
0.0
  0
LINE
  5
281
100
AcDbEntity
  8
Layer_1
 62
7
100
AcDbLine
 10
53.835714
 20
110.145830
 30
0.0
 11
53.034715
 21
110.145830
 31
0.0
  0
LINE
  5
282
100
AcDbEntity
  8
Layer_1
 62
7
100
AcDbLine
 10
53.034715
 20
110.145830
 30
0.0
 11
53.034715
 21
107.245830
 31
0.0
  0
LINE
  5
283
100
AcDbEntity
  8
Layer_1
 62
7
100
AcDbLine
 10
53.034715
 20
107.245830
 30
0.0
 11
53.835714
 21
107.245830
 31
0.0
  0
LINE
  5
284
100
AcDbEntity
  8
Layer_1
 62
7
100
AcDbLine
 10
53.835714
 20
107.245830
 30
0.0
 11
53.835714
 21
101.245830
 31
0.0
  0
LINE
  5
285
100
AcDbEntity
  8
Layer_1
 62
7
100
AcDbLine
 10
53.835714
 20
101.245830
 30
0.0
 11
53.034715
 21
101.245830
 31
0.0
  0
LINE
  5
286
100
AcDbEntity
  8
Layer_1
 62
7
100
AcDbLine
 10
53.034715
 20
101.245830
 30
0.0
 11
53.034715
 21
98.345830
 31
0.0
  0
LINE
  5
287
100
AcDbEntity
  8
Layer_1
 62
7
100
AcDbLine
 10
53.034715
 20
98.345830
 30
0.0
 11
53.835714
 21
98.345830
 31
0.0
  0
LINE
  5
288
100
AcDbEntity
  8
Layer_1
 62
7
100
AcDbLine
 10
53.835714
 20
98.345830
 30
0.0
 11
53.835714
 21
97.345830
 31
0.0
  0
LINE
  5
289
100
AcDbEntity
  8
Layer_1
 62
7
100
AcDbLine
 10
53.835714
 20
97.345830
 30
0.0
 11
67.634714
 21
97.345830
 31
0.0
  0
LINE
  5
28a
100
AcDbEntity
  8
Layer_1
 62
7
100
AcDbLine
 10
67.634714
 20
97.345830
 30
0.0
 11
67.634714
 21
98.345830
 31
0.0
  0
LINE
  5
28b
100
AcDbEntity
  8
Layer_1
 62
7
100
AcDbLine
 10
67.634714
 20
98.345830
 30
0.0
 11
68.435714
 21
98.345830
 31
0.0
  0
LINE
  5
28c
100
AcDbEntity
  8
Layer_1
 62
7
100
AcDbLine
 10
68.435714
 20
98.345830
 30
0.0
 11
68.435714
 21
101.245830
 31
0.0
  0
LINE
  5
28d
100
AcDbEntity
  8
Layer_1
 62
7
100
AcDbLine
 10
68.435714
 20
101.245830
 30
0.0
 11
67.634714
 21
101.245830
 31
0.0
  0
LINE
  5
28e
100
AcDbEntity
  8
Layer_1
 62
7
100
AcDbLine
 10
67.634714
 20
101.245830
 30
0.0
 11
67.634714
 21
107.245830
 31
0.0
  0
LINE
  5
28f
100
AcDbEntity
  8
Layer_1
 62
7
100
AcDbLine
 10
67.634714
 20
107.245830
 30
0.0
 11
68.435714
 21
107.245830
 31
0.0
  0
LINE
  5
290
100
AcDbEntity
  8
Layer_1
 62
7
100
AcDbLine
 10
68.435714
 20
107.245830
 30
0.0
 11
68.435714
 21
110.145830
 31
0.0
  0
LINE
  5
291
100
AcDbEntity
  8
Layer_1
 62
7
100
AcDbLine
 10
68.435714
 20
110.145830
 30
0.0
 11
67.634714
 21
110.145830
 31
0.0
  0
LINE
  5
292
100
AcDbEntity
  8
Layer_1
 62
7
100
AcDbLine
 10
67.634714
 20
110.145830
 30
0.0
 11
67.634714
 21
111.145830
 31
0.0
  0
LINE
  5
293
100
AcDbEntity
  8
Layer_1
 62
7
100
AcDbLine
 10
67.634714
 20
111.145830
 30
0.0
 11
53.835714
 21
111.145830
 31
0.0
  0
LINE
  5
294
100
AcDbEntity
  8
Layer_1
 62
7
100
AcDbLine
 10
72.884714
 20
111.145830
 30
0.0
 11
72.884714
 21
110.145830
 31
0.0
  0
LINE
  5
295
100
AcDbEntity
  8
Layer_1
 62
7
100
AcDbLine
 10
72.884714
 20
110.145830
 30
0.0
 11
72.084715
 21
110.145830
 31
0.0
  0
LINE
  5
296
100
AcDbEntity
  8
Layer_1
 62
7
100
AcDbLine
 10
72.084715
 20
110.145830
 30
0.0
 11
72.084715
 21
107.245830
 31
0.0
  0
LINE
  5
297
100
AcDbEntity
  8
Layer_1
 62
7
100
AcDbLine
 10
72.084715
 20
107.245830
 30
0.0
 11
72.884714
 21
107.245830
 31
0.0
  0
LINE
  5
298
100
AcDbEntity
  8
Layer_1
 62
7
100
AcDbLine
 10
72.884714
 20
107.245830
 30
0.0
 11
72.884714
 21
101.245830
 31
0.0
  0
LINE
  5
299
100
AcDbEntity
  8
Layer_1
 62
7
100
AcDbLine
 10
72.884714
 20
101.245830
 30
0.0
 11
72.084715
 21
101.245830
 31
0.0
  0
LINE
  5
29a
100
AcDbEntity
  8
Layer_1
 62
7
100
AcDbLine
 10
72.084715
 20
101.245830
 30
0.0
 11
72.084715
 21
98.345830
 31
0.0
  0
LINE
  5
29b
100
AcDbEntity
  8
Layer_1
 62
7
100
AcDbLine
 10
72.084715
 20
98.345830
 30
0.0
 11
72.884714
 21
98.345830
 31
0.0
  0
LINE
  5
29c
100
AcDbEntity
  8
Layer_1
 62
7
100
AcDbLine
 10
72.884714
 20
98.345830
 30
0.0
 11
72.884714
 21
97.345830
 31
0.0
  0
LINE
  5
29d
100
AcDbEntity
  8
Layer_1
 62
7
100
AcDbLine
 10
72.884714
 20
97.345830
 30
0.0
 11
86.685714
 21
97.345830
 31
0.0
  0
LINE
  5
29e
100
AcDbEntity
  8
Layer_1
 62
7
100
AcDbLine
 10
86.685714
 20
97.345830
 30
0.0
 11
86.685714
 21
98.345830
 31
0.0
  0
LINE
  5
29f
100
AcDbEntity
  8
Layer_1
 62
7
100
AcDbLine
 10
86.685714
 20
98.345830
 30
0.0
 11
87.485714
 21
98.345830
 31
0.0
  0
LINE
  5
2a0
100
AcDbEntity
  8
Layer_1
 62
7
100
AcDbLine
 10
87.485714
 20
98.345830
 30
0.0
 11
87.485714
 21
101.245830
 31
0.0
  0
LINE
  5
2a1
100
AcDbEntity
  8
Layer_1
 62
7
100
AcDbLine
 10
87.485714
 20
101.245830
 30
0.0
 11
86.685714
 21
101.245830
 31
0.0
  0
LINE
  5
2a2
100
AcDbEntity
  8
Layer_1
 62
7
100
AcDbLine
 10
86.685714
 20
101.245830
 30
0.0
 11
86.685714
 21
107.245830
 31
0.0
  0
LINE
  5
2a3
100
AcDbEntity
  8
Layer_1
 62
7
100
AcDbLine
 10
86.685714
 20
107.245830
 30
0.0
 11
87.485714
 21
107.245830
 31
0.0
  0
LINE
  5
2a4
100
AcDbEntity
  8
Layer_1
 62
7
100
AcDbLine
 10
87.485714
 20
107.245830
 30
0.0
 11
87.485714
 21
110.145830
 31
0.0
  0
LINE
  5
2a5
100
AcDbEntity
  8
Layer_1
 62
7
100
AcDbLine
 10
87.485714
 20
110.145830
 30
0.0
 11
86.685714
 21
110.145830
 31
0.0
  0
LINE
  5
2a6
100
AcDbEntity
  8
Layer_1
 62
7
100
AcDbLine
 10
86.685714
 20
110.145830
 30
0.0
 11
86.685714
 21
111.145830
 31
0.0
  0
LINE
  5
2a7
100
AcDbEntity
  8
Layer_1
 62
7
100
AcDbLine
 10
86.685714
 20
111.145830
 30
0.0
 11
72.884714
 21
111.145830
 31
0.0
  0
LINE
  5
2a8
100
AcDbEntity
  8
Layer_1
 62
7
100
AcDbLine
 10
91.934714
 20
111.145830
 30
0.0
 11
91.934714
 21
110.145830
 31
0.0
  0
LINE
  5
2a9
100
AcDbEntity
  8
Layer_1
 62
7
100
AcDbLine
 10
91.934714
 20
110.145830
 30
0.0
 11
91.134715
 21
110.145830
 31
0.0
  0
LINE
  5
2aa
100
AcDbEntity
  8
Layer_1
 62
7
100
AcDbLine
 10
91.134715
 20
110.145830
 30
0.0
 11
91.134715
 21
107.245830
 31
0.0
  0
LINE
  5
2ab
100
AcDbEntity
  8
Layer_1
 62
7
100
AcDbLine
 10
91.134715
 20
107.245830
 30
0.0
 11
91.934714
 21
107.245830
 31
0.0
  0
LINE
  5
2ac
100
AcDbEntity
  8
Layer_1
 62
7
100
AcDbLine
 10
91.934714
 20
107.245830
 30
0.0
 11
91.934714
 21
101.245830
 31
0.0
  0
LINE
  5
2ad
100
AcDbEntity
  8
Layer_1
 62
7
100
AcDbLine
 10
91.934714
 20
101.245830
 30
0.0
 11
91.134715
 21
101.245830
 31
0.0
  0
LINE
  5
2ae
100
AcDbEntity
  8
Layer_1
 62
7
100
AcDbLine
 10
91.134715
 20
101.245830
 30
0.0
 11
91.134715
 21
98.345830
 31
0.0
  0
LINE
  5
2af
100
AcDbEntity
  8
Layer_1
 62
7
100
AcDbLine
 10
91.134715
 20
98.345830
 30
0.0
 11
91.934714
 21
98.345830
 31
0.0
  0
LINE
  5
2b0
100
AcDbEntity
  8
Layer_1
 62
7
100
AcDbLine
 10
91.934714
 20
98.345830
 30
0.0
 11
91.934714
 21
97.345830
 31
0.0
  0
LINE
  5
2b1
100
AcDbEntity
  8
Layer_1
 62
7
100
AcDbLine
 10
91.934714
 20
97.345830
 30
0.0
 11
105.735710
 21
97.345830
 31
0.0
  0
LINE
  5
2b2
100
AcDbEntity
  8
Layer_1
 62
7
100
AcDbLine
 10
105.735710
 20
97.345830
 30
0.0
 11
105.735710
 21
98.345830
 31
0.0
  0
LINE
  5
2b3
100
AcDbEntity
  8
Layer_1
 62
7
100
AcDbLine
 10
105.735710
 20
98.345830
 30
0.0
 11
106.535710
 21
98.345830
 31
0.0
  0
LINE
  5
2b4
100
AcDbEntity
  8
Layer_1
 62
7
100
AcDbLine
 10
106.535710
 20
98.345830
 30
0.0
 11
106.535710
 21
101.245830
 31
0.0
  0
LINE
  5
2b5
100
AcDbEntity
  8
Layer_1
 62
7
100
AcDbLine
 10
106.535710
 20
101.245830
 30
0.0
 11
105.735710
 21
101.245830
 31
0.0
  0
LINE
  5
2b6
100
AcDbEntity
  8
Layer_1
 62
7
100
AcDbLine
 10
105.735710
 20
101.245830
 30
0.0
 11
105.735710
 21
107.245830
 31
0.0
  0
LINE
  5
2b7
100
AcDbEntity
  8
Layer_1
 62
7
100
AcDbLine
 10
105.735710
 20
107.245830
 30
0.0
 11
106.535710
 21
107.245830
 31
0.0
  0
LINE
  5
2b8
100
AcDbEntity
  8
Layer_1
 62
7
100
AcDbLine
 10
106.535710
 20
107.245830
 30
0.0
 11
106.535710
 21
110.145830
 31
0.0
  0
LINE
  5
2b9
100
AcDbEntity
  8
Layer_1
 62
7
100
AcDbLine
 10
106.535710
 20
110.145830
 30
0.0
 11
105.735710
 21
110.145830
 31
0.0
  0
LINE
  5
2ba
100
AcDbEntity
  8
Layer_1
 62
7
100
AcDbLine
 10
105.735710
 20
110.145830
 30
0.0
 11
105.735710
 21
111.145830
 31
0.0
  0
LINE
  5
2bb
100
AcDbEntity
  8
Layer_1
 62
7
100
AcDbLine
 10
105.735710
 20
111.145830
 30
0.0
 11
91.934714
 21
111.145830
 31
0.0
  0
LINE
  5
2bc
100
AcDbEntity
  8
Layer_1
 62
7
100
AcDbLine
 10
110.984710
 20
111.145830
 30
0.0
 11
110.984710
 21
110.145830
 31
0.0
  0
LINE
  5
2bd
100
AcDbEntity
  8
Layer_1
 62
7
100
AcDbLine
 10
110.984710
 20
110.145830
 30
0.0
 11
110.184720
 21
110.145830
 31
0.0
  0
LINE
  5
2be
100
AcDbEntity
  8
Layer_1
 62
7
100
AcDbLine
 10
110.184720
 20
110.145830
 30
0.0
 11
110.184720
 21
107.245830
 31
0.0
  0
LINE
  5
2bf
100
AcDbEntity
  8
Layer_1
 62
7
100
AcDbLine
 10
110.184720
 20
107.245830
 30
0.0
 11
110.984710
 21
107.245830
 31
0.0
  0
LINE
  5
2c0
100
AcDbEntity
  8
Layer_1
 62
7
100
AcDbLine
 10
110.984710
 20
107.245830
 30
0.0
 11
110.984710
 21
101.245830
 31
0.0
  0
LINE
  5
2c1
100
AcDbEntity
  8
Layer_1
 62
7
100
AcDbLine
 10
110.984710
 20
101.245830
 30
0.0
 11
110.184720
 21
101.245830
 31
0.0
  0
LINE
  5
2c2
100
AcDbEntity
  8
Layer_1
 62
7
100
AcDbLine
 10
110.184720
 20
101.245830
 30
0.0
 11
110.184720
 21
98.345830
 31
0.0
  0
LINE
  5
2c3
100
AcDbEntity
  8
Layer_1
 62
7
100
AcDbLine
 10
110.184720
 20
98.345830
 30
0.0
 11
110.984710
 21
98.345830
 31
0.0
  0
LINE
  5
2c4
100
AcDbEntity
  8
Layer_1
 62
7
100
AcDbLine
 10
110.984710
 20
98.345830
 30
0.0
 11
110.984710
 21
97.345830
 31
0.0
  0
LINE
  5
2c5
100
AcDbEntity
  8
Layer_1
 62
7
100
AcDbLine
 10
110.984710
 20
97.345830
 30
0.0
 11
124.785720
 21
97.345830
 31
0.0
  0
LINE
  5
2c6
100
AcDbEntity
  8
Layer_1
 62
7
100
AcDbLine
 10
124.785720
 20
97.345830
 30
0.0
 11
124.785720
 21
98.345830
 31
0.0
  0
LINE
  5
2c7
100
AcDbEntity
  8
Layer_1
 62
7
100
AcDbLine
 10
124.785720
 20
98.345830
 30
0.0
 11
125.584720
 21
98.345830
 31
0.0
  0
LINE
  5
2c8
100
AcDbEntity
  8
Layer_1
 62
7
100
AcDbLine
 10
125.584720
 20
98.345830
 30
0.0
 11
125.584720
 21
101.245830
 31
0.0
  0
LINE
  5
2c9
100
AcDbEntity
  8
Layer_1
 62
7
100
AcDbLine
 10
125.584720
 20
101.245830
 30
0.0
 11
124.785720
 21
101.245830
 31
0.0
  0
LINE
  5
2ca
100
AcDbEntity
  8
Layer_1
 62
7
100
AcDbLine
 10
124.785720
 20
101.245830
 30
0.0
 11
124.785720
 21
107.245830
 31
0.0
  0
LINE
  5
2cb
100
AcDbEntity
  8
Layer_1
 62
7
100
AcDbLine
 10
124.785720
 20
107.245830
 30
0.0
 11
125.584720
 21
107.245830
 31
0.0
  0
LINE
  5
2cc
100
AcDbEntity
  8
Layer_1
 62
7
100
AcDbLine
 10
125.584720
 20
107.245830
 30
0.0
 11
125.584720
 21
110.145830
 31
0.0
  0
LINE
  5
2cd
100
AcDbEntity
  8
Layer_1
 62
7
100
AcDbLine
 10
125.584720
 20
110.145830
 30
0.0
 11
124.785720
 21
110.145830
 31
0.0
  0
LINE
  5
2ce
100
AcDbEntity
  8
Layer_1
 62
7
100
AcDbLine
 10
124.785720
 20
110.145830
 30
0.0
 11
124.785720
 21
111.145830
 31
0.0
  0
LINE
  5
2cf
100
AcDbEntity
  8
Layer_1
 62
7
100
AcDbLine
 10
124.785720
 20
111.145830
 30
0.0
 11
110.984710
 21
111.145830
 31
0.0
  0
LINE
  5
2d0
100
AcDbEntity
  8
Layer_1
 62
7
100
AcDbLine
 10
130.034720
 20
111.145830
 30
0.0
 11
130.034720
 21
110.145830
 31
0.0
  0
LINE
  5
2d1
100
AcDbEntity
  8
Layer_1
 62
7
100
AcDbLine
 10
130.034720
 20
110.145830
 30
0.0
 11
129.234720
 21
110.145830
 31
0.0
  0
LINE
  5
2d2
100
AcDbEntity
  8
Layer_1
 62
7
100
AcDbLine
 10
129.234720
 20
110.145830
 30
0.0
 11
129.234720
 21
107.245830
 31
0.0
  0
LINE
  5
2d3
100
AcDbEntity
  8
Layer_1
 62
7
100
AcDbLine
 10
129.234720
 20
107.245830
 30
0.0
 11
130.034720
 21
107.245830
 31
0.0
  0
LINE
  5
2d4
100
AcDbEntity
  8
Layer_1
 62
7
100
AcDbLine
 10
130.034720
 20
107.245830
 30
0.0
 11
130.034720
 21
101.245830
 31
0.0
  0
LINE
  5
2d5
100
AcDbEntity
  8
Layer_1
 62
7
100
AcDbLine
 10
130.034720
 20
101.245830
 30
0.0
 11
129.234720
 21
101.245830
 31
0.0
  0
LINE
  5
2d6
100
AcDbEntity
  8
Layer_1
 62
7
100
AcDbLine
 10
129.234720
 20
101.245830
 30
0.0
 11
129.234720
 21
98.345830
 31
0.0
  0
LINE
  5
2d7
100
AcDbEntity
  8
Layer_1
 62
7
100
AcDbLine
 10
129.234720
 20
98.345830
 30
0.0
 11
130.034720
 21
98.345830
 31
0.0
  0
LINE
  5
2d8
100
AcDbEntity
  8
Layer_1
 62
7
100
AcDbLine
 10
130.034720
 20
98.345830
 30
0.0
 11
130.034720
 21
97.345830
 31
0.0
  0
LINE
  5
2d9
100
AcDbEntity
  8
Layer_1
 62
7
100
AcDbLine
 10
130.034720
 20
97.345830
 30
0.0
 11
143.834720
 21
97.345830
 31
0.0
  0
LINE
  5
2da
100
AcDbEntity
  8
Layer_1
 62
7
100
AcDbLine
 10
143.834720
 20
97.345830
 30
0.0
 11
143.834720
 21
98.345830
 31
0.0
  0
LINE
  5
2db
100
AcDbEntity
  8
Layer_1
 62
7
100
AcDbLine
 10
143.834720
 20
98.345830
 30
0.0
 11
144.635720
 21
98.345830
 31
0.0
  0
LINE
  5
2dc
100
AcDbEntity
  8
Layer_1
 62
7
100
AcDbLine
 10
144.635720
 20
98.345830
 30
0.0
 11
144.635720
 21
101.245830
 31
0.0
  0
LINE
  5
2dd
100
AcDbEntity
  8
Layer_1
 62
7
100
AcDbLine
 10
144.635720
 20
101.245830
 30
0.0
 11
143.834720
 21
101.245830
 31
0.0
  0
LINE
  5
2de
100
AcDbEntity
  8
Layer_1
 62
7
100
AcDbLine
 10
143.834720
 20
101.245830
 30
0.0
 11
143.834720
 21
107.245830
 31
0.0
  0
LINE
  5
2df
100
AcDbEntity
  8
Layer_1
 62
7
100
AcDbLine
 10
143.834720
 20
107.245830
 30
0.0
 11
144.635720
 21
107.245830
 31
0.0
  0
LINE
  5
2e0
100
AcDbEntity
  8
Layer_1
 62
7
100
AcDbLine
 10
144.635720
 20
107.245830
 30
0.0
 11
144.635720
 21
110.145830
 31
0.0
  0
LINE
  5
2e1
100
AcDbEntity
  8
Layer_1
 62
7
100
AcDbLine
 10
144.635720
 20
110.145830
 30
0.0
 11
143.834720
 21
110.145830
 31
0.0
  0
LINE
  5
2e2
100
AcDbEntity
  8
Layer_1
 62
7
100
AcDbLine
 10
143.834720
 20
110.145830
 30
0.0
 11
143.834720
 21
111.145830
 31
0.0
  0
LINE
  5
2e3
100
AcDbEntity
  8
Layer_1
 62
7
100
AcDbLine
 10
143.834720
 20
111.145830
 30
0.0
 11
130.034720
 21
111.145830
 31
0.0
  0
LINE
  5
2e4
100
AcDbEntity
  8
Layer_1
 62
7
100
AcDbLine
 10
149.084720
 20
111.145830
 30
0.0
 11
149.084720
 21
110.145830
 31
0.0
  0
LINE
  5
2e5
100
AcDbEntity
  8
Layer_1
 62
7
100
AcDbLine
 10
149.084720
 20
110.145830
 30
0.0
 11
148.285720
 21
110.145830
 31
0.0
  0
LINE
  5
2e6
100
AcDbEntity
  8
Layer_1
 62
7
100
AcDbLine
 10
148.285720
 20
110.145830
 30
0.0
 11
148.285720
 21
107.245830
 31
0.0
  0
LINE
  5
2e7
100
AcDbEntity
  8
Layer_1
 62
7
100
AcDbLine
 10
148.285720
 20
107.245830
 30
0.0
 11
149.084720
 21
107.245830
 31
0.0
  0
LINE
  5
2e8
100
AcDbEntity
  8
Layer_1
 62
7
100
AcDbLine
 10
149.084720
 20
107.245830
 30
0.0
 11
149.084720
 21
101.245830
 31
0.0
  0
LINE
  5
2e9
100
AcDbEntity
  8
Layer_1
 62
7
100
AcDbLine
 10
149.084720
 20
101.245830
 30
0.0
 11
148.285720
 21
101.245830
 31
0.0
  0
LINE
  5
2ea
100
AcDbEntity
  8
Layer_1
 62
7
100
AcDbLine
 10
148.285720
 20
101.245830
 30
0.0
 11
148.285720
 21
98.345830
 31
0.0
  0
LINE
  5
2eb
100
AcDbEntity
  8
Layer_1
 62
7
100
AcDbLine
 10
148.285720
 20
98.345830
 30
0.0
 11
149.084720
 21
98.345830
 31
0.0
  0
LINE
  5
2ec
100
AcDbEntity
  8
Layer_1
 62
7
100
AcDbLine
 10
149.084720
 20
98.345830
 30
0.0
 11
149.084720
 21
97.345830
 31
0.0
  0
LINE
  5
2ed
100
AcDbEntity
  8
Layer_1
 62
7
100
AcDbLine
 10
149.084720
 20
97.345830
 30
0.0
 11
162.885720
 21
97.345830
 31
0.0
  0
LINE
  5
2ee
100
AcDbEntity
  8
Layer_1
 62
7
100
AcDbLine
 10
162.885720
 20
97.345830
 30
0.0
 11
162.885720
 21
98.345830
 31
0.0
  0
LINE
  5
2ef
100
AcDbEntity
  8
Layer_1
 62
7
100
AcDbLine
 10
162.885720
 20
98.345830
 30
0.0
 11
163.684720
 21
98.345830
 31
0.0
  0
LINE
  5
2f0
100
AcDbEntity
  8
Layer_1
 62
7
100
AcDbLine
 10
163.684720
 20
98.345830
 30
0.0
 11
163.684720
 21
101.245830
 31
0.0
  0
LINE
  5
2f1
100
AcDbEntity
  8
Layer_1
 62
7
100
AcDbLine
 10
163.684720
 20
101.245830
 30
0.0
 11
162.885720
 21
101.245830
 31
0.0
  0
LINE
  5
2f2
100
AcDbEntity
  8
Layer_1
 62
7
100
AcDbLine
 10
162.885720
 20
101.245830
 30
0.0
 11
162.885720
 21
107.245830
 31
0.0
  0
LINE
  5
2f3
100
AcDbEntity
  8
Layer_1
 62
7
100
AcDbLine
 10
162.885720
 20
107.245830
 30
0.0
 11
163.684720
 21
107.245830
 31
0.0
  0
LINE
  5
2f4
100
AcDbEntity
  8
Layer_1
 62
7
100
AcDbLine
 10
163.684720
 20
107.245830
 30
0.0
 11
163.684720
 21
110.145830
 31
0.0
  0
LINE
  5
2f5
100
AcDbEntity
  8
Layer_1
 62
7
100
AcDbLine
 10
163.684720
 20
110.145830
 30
0.0
 11
162.885720
 21
110.145830
 31
0.0
  0
LINE
  5
2f6
100
AcDbEntity
  8
Layer_1
 62
7
100
AcDbLine
 10
162.885720
 20
110.145830
 30
0.0
 11
162.885720
 21
111.145830
 31
0.0
  0
LINE
  5
2f7
100
AcDbEntity
  8
Layer_1
 62
7
100
AcDbLine
 10
162.885720
 20
111.145830
 30
0.0
 11
149.084720
 21
111.145830
 31
0.0
  0
LINE
  5
2f8
100
AcDbEntity
  8
Layer_1
 62
7
100
AcDbLine
 10
168.135720
 20
111.145830
 30
0.0
 11
168.135720
 21
110.145830
 31
0.0
  0
LINE
  5
2f9
100
AcDbEntity
  8
Layer_1
 62
7
100
AcDbLine
 10
168.135720
 20
110.145830
 30
0.0
 11
167.335720
 21
110.145830
 31
0.0
  0
LINE
  5
2fa
100
AcDbEntity
  8
Layer_1
 62
7
100
AcDbLine
 10
167.335720
 20
110.145830
 30
0.0
 11
167.335720
 21
107.245830
 31
0.0
  0
LINE
  5
2fb
100
AcDbEntity
  8
Layer_1
 62
7
100
AcDbLine
 10
167.335720
 20
107.245830
 30
0.0
 11
168.135720
 21
107.245830
 31
0.0
  0
LINE
  5
2fc
100
AcDbEntity
  8
Layer_1
 62
7
100
AcDbLine
 10
168.135720
 20
107.245830
 30
0.0
 11
168.135720
 21
101.245830
 31
0.0
  0
LINE
  5
2fd
100
AcDbEntity
  8
Layer_1
 62
7
100
AcDbLine
 10
168.135720
 20
101.245830
 30
0.0
 11
167.335720
 21
101.245830
 31
0.0
  0
LINE
  5
2fe
100
AcDbEntity
  8
Layer_1
 62
7
100
AcDbLine
 10
167.335720
 20
101.245830
 30
0.0
 11
167.335720
 21
98.345830
 31
0.0
  0
LINE
  5
2ff
100
AcDbEntity
  8
Layer_1
 62
7
100
AcDbLine
 10
167.335720
 20
98.345830
 30
0.0
 11
168.135720
 21
98.345830
 31
0.0
  0
LINE
  5
300
100
AcDbEntity
  8
Layer_1
 62
7
100
AcDbLine
 10
168.135720
 20
98.345830
 30
0.0
 11
168.135720
 21
97.345830
 31
0.0
  0
LINE
  5
301
100
AcDbEntity
  8
Layer_1
 62
7
100
AcDbLine
 10
168.135720
 20
97.345830
 30
0.0
 11
181.935720
 21
97.345830
 31
0.0
  0
LINE
  5
302
100
AcDbEntity
  8
Layer_1
 62
7
100
AcDbLine
 10
181.935720
 20
97.345830
 30
0.0
 11
181.935720
 21
98.345830
 31
0.0
  0
LINE
  5
303
100
AcDbEntity
  8
Layer_1
 62
7
100
AcDbLine
 10
181.935720
 20
98.345830
 30
0.0
 11
182.734720
 21
98.345830
 31
0.0
  0
LINE
  5
304
100
AcDbEntity
  8
Layer_1
 62
7
100
AcDbLine
 10
182.734720
 20
98.345830
 30
0.0
 11
182.734720
 21
101.245830
 31
0.0
  0
LINE
  5
305
100
AcDbEntity
  8
Layer_1
 62
7
100
AcDbLine
 10
182.734720
 20
101.245830
 30
0.0
 11
181.935720
 21
101.245830
 31
0.0
  0
LINE
  5
306
100
AcDbEntity
  8
Layer_1
 62
7
100
AcDbLine
 10
181.935720
 20
101.245830
 30
0.0
 11
181.935720
 21
107.245830
 31
0.0
  0
LINE
  5
307
100
AcDbEntity
  8
Layer_1
 62
7
100
AcDbLine
 10
181.935720
 20
107.245830
 30
0.0
 11
182.734720
 21
107.245830
 31
0.0
  0
LINE
  5
308
100
AcDbEntity
  8
Layer_1
 62
7
100
AcDbLine
 10
182.734720
 20
107.245830
 30
0.0
 11
182.734720
 21
110.145830
 31
0.0
  0
LINE
  5
309
100
AcDbEntity
  8
Layer_1
 62
7
100
AcDbLine
 10
182.734720
 20
110.145830
 30
0.0
 11
181.935720
 21
110.145830
 31
0.0
  0
LINE
  5
30a
100
AcDbEntity
  8
Layer_1
 62
7
100
AcDbLine
 10
181.935720
 20
110.145830
 30
0.0
 11
181.935720
 21
111.145830
 31
0.0
  0
LINE
  5
30b
100
AcDbEntity
  8
Layer_1
 62
7
100
AcDbLine
 10
181.935720
 20
111.145830
 30
0.0
 11
168.135720
 21
111.145830
 31
0.0
  0
LINE
  5
30c
100
AcDbEntity
  8
Layer_1
 62
7
100
AcDbLine
 10
187.185720
 20
111.145830
 30
0.0
 11
187.185720
 21
110.145830
 31
0.0
  0
LINE
  5
30d
100
AcDbEntity
  8
Layer_1
 62
7
100
AcDbLine
 10
187.185720
 20
110.145830
 30
0.0
 11
186.385720
 21
110.145830
 31
0.0
  0
LINE
  5
30e
100
AcDbEntity
  8
Layer_1
 62
7
100
AcDbLine
 10
186.385720
 20
110.145830
 30
0.0
 11
186.385720
 21
107.245830
 31
0.0
  0
LINE
  5
30f
100
AcDbEntity
  8
Layer_1
 62
7
100
AcDbLine
 10
186.385720
 20
107.245830
 30
0.0
 11
187.185720
 21
107.245830
 31
0.0
  0
LINE
  5
310
100
AcDbEntity
  8
Layer_1
 62
7
100
AcDbLine
 10
187.185720
 20
107.245830
 30
0.0
 11
187.185720
 21
101.245830
 31
0.0
  0
LINE
  5
311
100
AcDbEntity
  8
Layer_1
 62
7
100
AcDbLine
 10
187.185720
 20
101.245830
 30
0.0
 11
186.385720
 21
101.245830
 31
0.0
  0
LINE
  5
312
100
AcDbEntity
  8
Layer_1
 62
7
100
AcDbLine
 10
186.385720
 20
101.245830
 30
0.0
 11
186.385720
 21
98.345830
 31
0.0
  0
LINE
  5
313
100
AcDbEntity
  8
Layer_1
 62
7
100
AcDbLine
 10
186.385720
 20
98.345830
 30
0.0
 11
187.185720
 21
98.345830
 31
0.0
  0
LINE
  5
314
100
AcDbEntity
  8
Layer_1
 62
7
100
AcDbLine
 10
187.185720
 20
98.345830
 30
0.0
 11
187.185720
 21
97.345830
 31
0.0
  0
LINE
  5
315
100
AcDbEntity
  8
Layer_1
 62
7
100
AcDbLine
 10
187.185720
 20
97.345830
 30
0.0
 11
200.985720
 21
97.345830
 31
0.0
  0
LINE
  5
316
100
AcDbEntity
  8
Layer_1
 62
7
100
AcDbLine
 10
200.985720
 20
97.345830
 30
0.0
 11
200.985720
 21
98.345830
 31
0.0
  0
LINE
  5
317
100
AcDbEntity
  8
Layer_1
 62
7
100
AcDbLine
 10
200.985720
 20
98.345830
 30
0.0
 11
201.785720
 21
98.345830
 31
0.0
  0
LINE
  5
318
100
AcDbEntity
  8
Layer_1
 62
7
100
AcDbLine
 10
201.785720
 20
98.345830
 30
0.0
 11
201.785720
 21
101.245830
 31
0.0
  0
LINE
  5
319
100
AcDbEntity
  8
Layer_1
 62
7
100
AcDbLine
 10
201.785720
 20
101.245830
 30
0.0
 11
200.985720
 21
101.245830
 31
0.0
  0
LINE
  5
31a
100
AcDbEntity
  8
Layer_1
 62
7
100
AcDbLine
 10
200.985720
 20
101.245830
 30
0.0
 11
200.985720
 21
107.245830
 31
0.0
  0
LINE
  5
31b
100
AcDbEntity
  8
Layer_1
 62
7
100
AcDbLine
 10
200.985720
 20
107.245830
 30
0.0
 11
201.785720
 21
107.245830
 31
0.0
  0
LINE
  5
31c
100
AcDbEntity
  8
Layer_1
 62
7
100
AcDbLine
 10
201.785720
 20
107.245830
 30
0.0
 11
201.785720
 21
110.145830
 31
0.0
  0
LINE
  5
31d
100
AcDbEntity
  8
Layer_1
 62
7
100
AcDbLine
 10
201.785720
 20
110.145830
 30
0.0
 11
200.985720
 21
110.145830
 31
0.0
  0
LINE
  5
31e
100
AcDbEntity
  8
Layer_1
 62
7
100
AcDbLine
 10
200.985720
 20
110.145830
 30
0.0
 11
200.985720
 21
111.145830
 31
0.0
  0
LINE
  5
31f
100
AcDbEntity
  8
Layer_1
 62
7
100
AcDbLine
 10
200.985720
 20
111.145830
 30
0.0
 11
187.185720
 21
111.145830
 31
0.0
  0
LINE
  5
320
100
AcDbEntity
  8
Layer_1
 62
7
100
AcDbLine
 10
206.235720
 20
111.145830
 30
0.0
 11
206.235720
 21
110.145830
 31
0.0
  0
LINE
  5
321
100
AcDbEntity
  8
Layer_1
 62
7
100
AcDbLine
 10
206.235720
 20
110.145830
 30
0.0
 11
205.435720
 21
110.145830
 31
0.0
  0
LINE
  5
322
100
AcDbEntity
  8
Layer_1
 62
7
100
AcDbLine
 10
205.435720
 20
110.145830
 30
0.0
 11
205.435720
 21
107.245830
 31
0.0
  0
LINE
  5
323
100
AcDbEntity
  8
Layer_1
 62
7
100
AcDbLine
 10
205.435720
 20
107.245830
 30
0.0
 11
206.235720
 21
107.245830
 31
0.0
  0
LINE
  5
324
100
AcDbEntity
  8
Layer_1
 62
7
100
AcDbLine
 10
206.235720
 20
107.245830
 30
0.0
 11
206.235720
 21
101.245830
 31
0.0
  0
LINE
  5
325
100
AcDbEntity
  8
Layer_1
 62
7
100
AcDbLine
 10
206.235720
 20
101.245830
 30
0.0
 11
205.435720
 21
101.245830
 31
0.0
  0
LINE
  5
326
100
AcDbEntity
  8
Layer_1
 62
7
100
AcDbLine
 10
205.435720
 20
101.245830
 30
0.0
 11
205.435720
 21
98.345830
 31
0.0
  0
LINE
  5
327
100
AcDbEntity
  8
Layer_1
 62
7
100
AcDbLine
 10
205.435720
 20
98.345830
 30
0.0
 11
206.235720
 21
98.345830
 31
0.0
  0
LINE
  5
328
100
AcDbEntity
  8
Layer_1
 62
7
100
AcDbLine
 10
206.235720
 20
98.345830
 30
0.0
 11
206.235720
 21
97.345830
 31
0.0
  0
LINE
  5
329
100
AcDbEntity
  8
Layer_1
 62
7
100
AcDbLine
 10
206.235720
 20
97.345830
 30
0.0
 11
220.035720
 21
97.345830
 31
0.0
  0
LINE
  5
32a
100
AcDbEntity
  8
Layer_1
 62
7
100
AcDbLine
 10
220.035720
 20
97.345830
 30
0.0
 11
220.035720
 21
98.345830
 31
0.0
  0
LINE
  5
32b
100
AcDbEntity
  8
Layer_1
 62
7
100
AcDbLine
 10
220.035720
 20
98.345830
 30
0.0
 11
220.835720
 21
98.345830
 31
0.0
  0
LINE
  5
32c
100
AcDbEntity
  8
Layer_1
 62
7
100
AcDbLine
 10
220.835720
 20
98.345830
 30
0.0
 11
220.835720
 21
101.245830
 31
0.0
  0
LINE
  5
32d
100
AcDbEntity
  8
Layer_1
 62
7
100
AcDbLine
 10
220.835720
 20
101.245830
 30
0.0
 11
220.035720
 21
101.245830
 31
0.0
  0
LINE
  5
32e
100
AcDbEntity
  8
Layer_1
 62
7
100
AcDbLine
 10
220.035720
 20
101.245830
 30
0.0
 11
220.035720
 21
107.245830
 31
0.0
  0
LINE
  5
32f
100
AcDbEntity
  8
Layer_1
 62
7
100
AcDbLine
 10
220.035720
 20
107.245830
 30
0.0
 11
220.835720
 21
107.245830
 31
0.0
  0
LINE
  5
330
100
AcDbEntity
  8
Layer_1
 62
7
100
AcDbLine
 10
220.835720
 20
107.245830
 30
0.0
 11
220.835720
 21
110.145830
 31
0.0
  0
LINE
  5
331
100
AcDbEntity
  8
Layer_1
 62
7
100
AcDbLine
 10
220.835720
 20
110.145830
 30
0.0
 11
220.035720
 21
110.145830
 31
0.0
  0
LINE
  5
332
100
AcDbEntity
  8
Layer_1
 62
7
100
AcDbLine
 10
220.035720
 20
110.145830
 30
0.0
 11
220.035720
 21
111.145830
 31
0.0
  0
LINE
  5
333
100
AcDbEntity
  8
Layer_1
 62
7
100
AcDbLine
 10
220.035720
 20
111.145830
 30
0.0
 11
206.235720
 21
111.145830
 31
0.0
  0
LINE
  5
334
100
AcDbEntity
  8
Layer_1
 62
7
100
AcDbLine
 10
34.785713
 20
139.720830
 30
0.0
 11
34.785713
 21
138.720830
 31
0.0
  0
LINE
  5
335
100
AcDbEntity
  8
Layer_1
 62
7
100
AcDbLine
 10
34.785713
 20
138.720830
 30
0.0
 11
33.985713
 21
138.720830
 31
0.0
  0
LINE
  5
336
100
AcDbEntity
  8
Layer_1
 62
7
100
AcDbLine
 10
33.985713
 20
138.720830
 30
0.0
 11
33.985713
 21
135.820830
 31
0.0
  0
LINE
  5
337
100
AcDbEntity
  8
Layer_1
 62
7
100
AcDbLine
 10
33.985713
 20
135.820830
 30
0.0
 11
34.785713
 21
135.820830
 31
0.0
  0
LINE
  5
338
100
AcDbEntity
  8
Layer_1
 62
7
100
AcDbLine
 10
34.785713
 20
135.820830
 30
0.0
 11
34.785713
 21
129.820830
 31
0.0
  0
LINE
  5
339
100
AcDbEntity
  8
Layer_1
 62
7
100
AcDbLine
 10
34.785713
 20
129.820830
 30
0.0
 11
33.985713
 21
129.820830
 31
0.0
  0
LINE
  5
33a
100
AcDbEntity
  8
Layer_1
 62
7
100
AcDbLine
 10
33.985713
 20
129.820830
 30
0.0
 11
33.985713
 21
126.920830
 31
0.0
  0
LINE
  5
33b
100
AcDbEntity
  8
Layer_1
 62
7
100
AcDbLine
 10
33.985713
 20
126.920830
 30
0.0
 11
34.785713
 21
126.920830
 31
0.0
  0
LINE
  5
33c
100
AcDbEntity
  8
Layer_1
 62
7
100
AcDbLine
 10
34.785713
 20
126.920830
 30
0.0
 11
34.785713
 21
125.920830
 31
0.0
  0
LINE
  5
33d
100
AcDbEntity
  8
Layer_1
 62
7
100
AcDbLine
 10
34.785713
 20
125.920830
 30
0.0
 11
48.585714
 21
125.920830
 31
0.0
  0
LINE
  5
33e
100
AcDbEntity
  8
Layer_1
 62
7
100
AcDbLine
 10
48.585714
 20
125.920830
 30
0.0
 11
48.585714
 21
126.920830
 31
0.0
  0
LINE
  5
33f
100
AcDbEntity
  8
Layer_1
 62
7
100
AcDbLine
 10
48.585714
 20
126.920830
 30
0.0
 11
49.385714
 21
126.920830
 31
0.0
  0
LINE
  5
340
100
AcDbEntity
  8
Layer_1
 62
7
100
AcDbLine
 10
49.385714
 20
126.920830
 30
0.0
 11
49.385714
 21
129.820830
 31
0.0
  0
LINE
  5
341
100
AcDbEntity
  8
Layer_1
 62
7
100
AcDbLine
 10
49.385714
 20
129.820830
 30
0.0
 11
48.585714
 21
129.820830
 31
0.0
  0
LINE
  5
342
100
AcDbEntity
  8
Layer_1
 62
7
100
AcDbLine
 10
48.585714
 20
129.820830
 30
0.0
 11
48.585714
 21
135.820830
 31
0.0
  0
LINE
  5
343
100
AcDbEntity
  8
Layer_1
 62
7
100
AcDbLine
 10
48.585714
 20
135.820830
 30
0.0
 11
49.385714
 21
135.820830
 31
0.0
  0
LINE
  5
344
100
AcDbEntity
  8
Layer_1
 62
7
100
AcDbLine
 10
49.385714
 20
135.820830
 30
0.0
 11
49.385714
 21
138.720830
 31
0.0
  0
LINE
  5
345
100
AcDbEntity
  8
Layer_1
 62
7
100
AcDbLine
 10
49.385714
 20
138.720830
 30
0.0
 11
48.585714
 21
138.720830
 31
0.0
  0
LINE
  5
346
100
AcDbEntity
  8
Layer_1
 62
7
100
AcDbLine
 10
48.585714
 20
138.720830
 30
0.0
 11
48.585714
 21
139.720830
 31
0.0
  0
LINE
  5
347
100
AcDbEntity
  8
Layer_1
 62
7
100
AcDbLine
 10
48.585714
 20
139.720830
 30
0.0
 11
34.785713
 21
139.720830
 31
0.0
  0
LINE
  5
348
100
AcDbEntity
  8
Layer_1
 62
7
100
AcDbLine
 10
53.835714
 20
139.720830
 30
0.0
 11
53.835714
 21
138.720830
 31
0.0
  0
LINE
  5
349
100
AcDbEntity
  8
Layer_1
 62
7
100
AcDbLine
 10
53.835714
 20
138.720830
 30
0.0
 11
53.034715
 21
138.720830
 31
0.0
  0
LINE
  5
34a
100
AcDbEntity
  8
Layer_1
 62
7
100
AcDbLine
 10
53.034715
 20
138.720830
 30
0.0
 11
53.034715
 21
135.820830
 31
0.0
  0
LINE
  5
34b
100
AcDbEntity
  8
Layer_1
 62
7
100
AcDbLine
 10
53.034715
 20
135.820830
 30
0.0
 11
53.835714
 21
135.820830
 31
0.0
  0
LINE
  5
34c
100
AcDbEntity
  8
Layer_1
 62
7
100
AcDbLine
 10
53.835714
 20
135.820830
 30
0.0
 11
53.835714
 21
129.820830
 31
0.0
  0
LINE
  5
34d
100
AcDbEntity
  8
Layer_1
 62
7
100
AcDbLine
 10
53.835714
 20
129.820830
 30
0.0
 11
53.034715
 21
129.820830
 31
0.0
  0
LINE
  5
34e
100
AcDbEntity
  8
Layer_1
 62
7
100
AcDbLine
 10
53.034715
 20
129.820830
 30
0.0
 11
53.034715
 21
126.920830
 31
0.0
  0
LINE
  5
34f
100
AcDbEntity
  8
Layer_1
 62
7
100
AcDbLine
 10
53.034715
 20
126.920830
 30
0.0
 11
53.835714
 21
126.920830
 31
0.0
  0
LINE
  5
350
100
AcDbEntity
  8
Layer_1
 62
7
100
AcDbLine
 10
53.835714
 20
126.920830
 30
0.0
 11
53.835714
 21
125.920830
 31
0.0
  0
LINE
  5
351
100
AcDbEntity
  8
Layer_1
 62
7
100
AcDbLine
 10
53.835714
 20
125.920830
 30
0.0
 11
67.634714
 21
125.920830
 31
0.0
  0
LINE
  5
352
100
AcDbEntity
  8
Layer_1
 62
7
100
AcDbLine
 10
67.634714
 20
125.920830
 30
0.0
 11
67.634714
 21
126.920830
 31
0.0
  0
LINE
  5
353
100
AcDbEntity
  8
Layer_1
 62
7
100
AcDbLine
 10
67.634714
 20
126.920830
 30
0.0
 11
68.435714
 21
126.920830
 31
0.0
  0
LINE
  5
354
100
AcDbEntity
  8
Layer_1
 62
7
100
AcDbLine
 10
68.435714
 20
126.920830
 30
0.0
 11
68.435714
 21
129.820830
 31
0.0
  0
LINE
  5
355
100
AcDbEntity
  8
Layer_1
 62
7
100
AcDbLine
 10
68.435714
 20
129.820830
 30
0.0
 11
67.634714
 21
129.820830
 31
0.0
  0
LINE
  5
356
100
AcDbEntity
  8
Layer_1
 62
7
100
AcDbLine
 10
67.634714
 20
129.820830
 30
0.0
 11
67.634714
 21
135.820830
 31
0.0
  0
LINE
  5
357
100
AcDbEntity
  8
Layer_1
 62
7
100
AcDbLine
 10
67.634714
 20
135.820830
 30
0.0
 11
68.435714
 21
135.820830
 31
0.0
  0
LINE
  5
358
100
AcDbEntity
  8
Layer_1
 62
7
100
AcDbLine
 10
68.435714
 20
135.820830
 30
0.0
 11
68.435714
 21
138.720830
 31
0.0
  0
LINE
  5
359
100
AcDbEntity
  8
Layer_1
 62
7
100
AcDbLine
 10
68.435714
 20
138.720830
 30
0.0
 11
67.634714
 21
138.720830
 31
0.0
  0
LINE
  5
35a
100
AcDbEntity
  8
Layer_1
 62
7
100
AcDbLine
 10
67.634714
 20
138.720830
 30
0.0
 11
67.634714
 21
139.720830
 31
0.0
  0
LINE
  5
35b
100
AcDbEntity
  8
Layer_1
 62
7
100
AcDbLine
 10
67.634714
 20
139.720830
 30
0.0
 11
53.835714
 21
139.720830
 31
0.0
  0
LINE
  5
35c
100
AcDbEntity
  8
Layer_1
 62
7
100
AcDbLine
 10
72.884714
 20
139.720830
 30
0.0
 11
72.884714
 21
138.720830
 31
0.0
  0
LINE
  5
35d
100
AcDbEntity
  8
Layer_1
 62
7
100
AcDbLine
 10
72.884714
 20
138.720830
 30
0.0
 11
72.084715
 21
138.720830
 31
0.0
  0
LINE
  5
35e
100
AcDbEntity
  8
Layer_1
 62
7
100
AcDbLine
 10
72.084715
 20
138.720830
 30
0.0
 11
72.084715
 21
135.820830
 31
0.0
  0
LINE
  5
35f
100
AcDbEntity
  8
Layer_1
 62
7
100
AcDbLine
 10
72.084715
 20
135.820830
 30
0.0
 11
72.884714
 21
135.820830
 31
0.0
  0
LINE
  5
360
100
AcDbEntity
  8
Layer_1
 62
7
100
AcDbLine
 10
72.884714
 20
135.820830
 30
0.0
 11
72.884714
 21
129.820830
 31
0.0
  0
LINE
  5
361
100
AcDbEntity
  8
Layer_1
 62
7
100
AcDbLine
 10
72.884714
 20
129.820830
 30
0.0
 11
72.084715
 21
129.820830
 31
0.0
  0
LINE
  5
362
100
AcDbEntity
  8
Layer_1
 62
7
100
AcDbLine
 10
72.084715
 20
129.820830
 30
0.0
 11
72.084715
 21
126.920830
 31
0.0
  0
LINE
  5
363
100
AcDbEntity
  8
Layer_1
 62
7
100
AcDbLine
 10
72.084715
 20
126.920830
 30
0.0
 11
72.884714
 21
126.920830
 31
0.0
  0
LINE
  5
364
100
AcDbEntity
  8
Layer_1
 62
7
100
AcDbLine
 10
72.884714
 20
126.920830
 30
0.0
 11
72.884714
 21
125.920830
 31
0.0
  0
LINE
  5
365
100
AcDbEntity
  8
Layer_1
 62
7
100
AcDbLine
 10
72.884714
 20
125.920830
 30
0.0
 11
86.685714
 21
125.920830
 31
0.0
  0
LINE
  5
366
100
AcDbEntity
  8
Layer_1
 62
7
100
AcDbLine
 10
86.685714
 20
125.920830
 30
0.0
 11
86.685714
 21
126.920830
 31
0.0
  0
LINE
  5
367
100
AcDbEntity
  8
Layer_1
 62
7
100
AcDbLine
 10
86.685714
 20
126.920830
 30
0.0
 11
87.485714
 21
126.920830
 31
0.0
  0
LINE
  5
368
100
AcDbEntity
  8
Layer_1
 62
7
100
AcDbLine
 10
87.485714
 20
126.920830
 30
0.0
 11
87.485714
 21
129.820830
 31
0.0
  0
LINE
  5
369
100
AcDbEntity
  8
Layer_1
 62
7
100
AcDbLine
 10
87.485714
 20
129.820830
 30
0.0
 11
86.685714
 21
129.820830
 31
0.0
  0
LINE
  5
36a
100
AcDbEntity
  8
Layer_1
 62
7
100
AcDbLine
 10
86.685714
 20
129.820830
 30
0.0
 11
86.685714
 21
135.820830
 31
0.0
  0
LINE
  5
36b
100
AcDbEntity
  8
Layer_1
 62
7
100
AcDbLine
 10
86.685714
 20
135.820830
 30
0.0
 11
87.485714
 21
135.820830
 31
0.0
  0
LINE
  5
36c
100
AcDbEntity
  8
Layer_1
 62
7
100
AcDbLine
 10
87.485714
 20
135.820830
 30
0.0
 11
87.485714
 21
138.720830
 31
0.0
  0
LINE
  5
36d
100
AcDbEntity
  8
Layer_1
 62
7
100
AcDbLine
 10
87.485714
 20
138.720830
 30
0.0
 11
86.685714
 21
138.720830
 31
0.0
  0
LINE
  5
36e
100
AcDbEntity
  8
Layer_1
 62
7
100
AcDbLine
 10
86.685714
 20
138.720830
 30
0.0
 11
86.685714
 21
139.720830
 31
0.0
  0
LINE
  5
36f
100
AcDbEntity
  8
Layer_1
 62
7
100
AcDbLine
 10
86.685714
 20
139.720830
 30
0.0
 11
72.884714
 21
139.720830
 31
0.0
  0
LINE
  5
370
100
AcDbEntity
  8
Layer_1
 62
7
100
AcDbLine
 10
91.934714
 20
139.720830
 30
0.0
 11
91.934714
 21
138.720830
 31
0.0
  0
LINE
  5
371
100
AcDbEntity
  8
Layer_1
 62
7
100
AcDbLine
 10
91.934714
 20
138.720830
 30
0.0
 11
91.134715
 21
138.720830
 31
0.0
  0
LINE
  5
372
100
AcDbEntity
  8
Layer_1
 62
7
100
AcDbLine
 10
91.134715
 20
138.720830
 30
0.0
 11
91.134715
 21
135.820830
 31
0.0
  0
LINE
  5
373
100
AcDbEntity
  8
Layer_1
 62
7
100
AcDbLine
 10
91.134715
 20
135.820830
 30
0.0
 11
91.934714
 21
135.820830
 31
0.0
  0
LINE
  5
374
100
AcDbEntity
  8
Layer_1
 62
7
100
AcDbLine
 10
91.934714
 20
135.820830
 30
0.0
 11
91.934714
 21
129.820830
 31
0.0
  0
LINE
  5
375
100
AcDbEntity
  8
Layer_1
 62
7
100
AcDbLine
 10
91.934714
 20
129.820830
 30
0.0
 11
91.134715
 21
129.820830
 31
0.0
  0
LINE
  5
376
100
AcDbEntity
  8
Layer_1
 62
7
100
AcDbLine
 10
91.134715
 20
129.820830
 30
0.0
 11
91.134715
 21
126.920830
 31
0.0
  0
LINE
  5
377
100
AcDbEntity
  8
Layer_1
 62
7
100
AcDbLine
 10
91.134715
 20
126.920830
 30
0.0
 11
91.934714
 21
126.920830
 31
0.0
  0
LINE
  5
378
100
AcDbEntity
  8
Layer_1
 62
7
100
AcDbLine
 10
91.934714
 20
126.920830
 30
0.0
 11
91.934714
 21
125.920830
 31
0.0
  0
LINE
  5
379
100
AcDbEntity
  8
Layer_1
 62
7
100
AcDbLine
 10
91.934714
 20
125.920830
 30
0.0
 11
105.735710
 21
125.920830
 31
0.0
  0
LINE
  5
37a
100
AcDbEntity
  8
Layer_1
 62
7
100
AcDbLine
 10
105.735710
 20
125.920830
 30
0.0
 11
105.735710
 21
126.920830
 31
0.0
  0
LINE
  5
37b
100
AcDbEntity
  8
Layer_1
 62
7
100
AcDbLine
 10
105.735710
 20
126.920830
 30
0.0
 11
106.535710
 21
126.920830
 31
0.0
  0
LINE
  5
37c
100
AcDbEntity
  8
Layer_1
 62
7
100
AcDbLine
 10
106.535710
 20
126.920830
 30
0.0
 11
106.535710
 21
129.820830
 31
0.0
  0
LINE
  5
37d
100
AcDbEntity
  8
Layer_1
 62
7
100
AcDbLine
 10
106.535710
 20
129.820830
 30
0.0
 11
105.735710
 21
129.820830
 31
0.0
  0
LINE
  5
37e
100
AcDbEntity
  8
Layer_1
 62
7
100
AcDbLine
 10
105.735710
 20
129.820830
 30
0.0
 11
105.735710
 21
135.820830
 31
0.0
  0
LINE
  5
37f
100
AcDbEntity
  8
Layer_1
 62
7
100
AcDbLine
 10
105.735710
 20
135.820830
 30
0.0
 11
106.535710
 21
135.820830
 31
0.0
  0
LINE
  5
380
100
AcDbEntity
  8
Layer_1
 62
7
100
AcDbLine
 10
106.535710
 20
135.820830
 30
0.0
 11
106.535710
 21
138.720830
 31
0.0
  0
LINE
  5
381
100
AcDbEntity
  8
Layer_1
 62
7
100
AcDbLine
 10
106.535710
 20
138.720830
 30
0.0
 11
105.735710
 21
138.720830
 31
0.0
  0
LINE
  5
382
100
AcDbEntity
  8
Layer_1
 62
7
100
AcDbLine
 10
105.735710
 20
138.720830
 30
0.0
 11
105.735710
 21
139.720830
 31
0.0
  0
LINE
  5
383
100
AcDbEntity
  8
Layer_1
 62
7
100
AcDbLine
 10
105.735710
 20
139.720830
 30
0.0
 11
91.934714
 21
139.720830
 31
0.0
  0
LINE
  5
384
100
AcDbEntity
  8
Layer_1
 62
7
100
AcDbLine
 10
110.984710
 20
139.720830
 30
0.0
 11
110.984710
 21
138.720830
 31
0.0
  0
LINE
  5
385
100
AcDbEntity
  8
Layer_1
 62
7
100
AcDbLine
 10
110.984710
 20
138.720830
 30
0.0
 11
110.184720
 21
138.720830
 31
0.0
  0
LINE
  5
386
100
AcDbEntity
  8
Layer_1
 62
7
100
AcDbLine
 10
110.184720
 20
138.720830
 30
0.0
 11
110.184720
 21
135.820830
 31
0.0
  0
LINE
  5
387
100
AcDbEntity
  8
Layer_1
 62
7
100
AcDbLine
 10
110.184720
 20
135.820830
 30
0.0
 11
110.984710
 21
135.820830
 31
0.0
  0
LINE
  5
388
100
AcDbEntity
  8
Layer_1
 62
7
100
AcDbLine
 10
110.984710
 20
135.820830
 30
0.0
 11
110.984710
 21
129.820830
 31
0.0
  0
LINE
  5
389
100
AcDbEntity
  8
Layer_1
 62
7
100
AcDbLine
 10
110.984710
 20
129.820830
 30
0.0
 11
110.184720
 21
129.820830
 31
0.0
  0
LINE
  5
38a
100
AcDbEntity
  8
Layer_1
 62
7
100
AcDbLine
 10
110.184720
 20
129.820830
 30
0.0
 11
110.184720
 21
126.920830
 31
0.0
  0
LINE
  5
38b
100
AcDbEntity
  8
Layer_1
 62
7
100
AcDbLine
 10
110.184720
 20
126.920830
 30
0.0
 11
110.984710
 21
126.920830
 31
0.0
  0
LINE
  5
38c
100
AcDbEntity
  8
Layer_1
 62
7
100
AcDbLine
 10
110.984710
 20
126.920830
 30
0.0
 11
110.984710
 21
125.920830
 31
0.0
  0
LINE
  5
38d
100
AcDbEntity
  8
Layer_1
 62
7
100
AcDbLine
 10
110.984710
 20
125.920830
 30
0.0
 11
124.785720
 21
125.920830
 31
0.0
  0
LINE
  5
38e
100
AcDbEntity
  8
Layer_1
 62
7
100
AcDbLine
 10
124.785720
 20
125.920830
 30
0.0
 11
124.785720
 21
126.920830
 31
0.0
  0
LINE
  5
38f
100
AcDbEntity
  8
Layer_1
 62
7
100
AcDbLine
 10
124.785720
 20
126.920830
 30
0.0
 11
125.584720
 21
126.920830
 31
0.0
  0
LINE
  5
390
100
AcDbEntity
  8
Layer_1
 62
7
100
AcDbLine
 10
125.584720
 20
126.920830
 30
0.0
 11
125.584720
 21
129.820830
 31
0.0
  0
LINE
  5
391
100
AcDbEntity
  8
Layer_1
 62
7
100
AcDbLine
 10
125.584720
 20
129.820830
 30
0.0
 11
124.785720
 21
129.820830
 31
0.0
  0
LINE
  5
392
100
AcDbEntity
  8
Layer_1
 62
7
100
AcDbLine
 10
124.785720
 20
129.820830
 30
0.0
 11
124.785720
 21
135.820830
 31
0.0
  0
LINE
  5
393
100
AcDbEntity
  8
Layer_1
 62
7
100
AcDbLine
 10
124.785720
 20
135.820830
 30
0.0
 11
125.584720
 21
135.820830
 31
0.0
  0
LINE
  5
394
100
AcDbEntity
  8
Layer_1
 62
7
100
AcDbLine
 10
125.584720
 20
135.820830
 30
0.0
 11
125.584720
 21
138.720830
 31
0.0
  0
LINE
  5
395
100
AcDbEntity
  8
Layer_1
 62
7
100
AcDbLine
 10
125.584720
 20
138.720830
 30
0.0
 11
124.785720
 21
138.720830
 31
0.0
  0
LINE
  5
396
100
AcDbEntity
  8
Layer_1
 62
7
100
AcDbLine
 10
124.785720
 20
138.720830
 30
0.0
 11
124.785720
 21
139.720830
 31
0.0
  0
LINE
  5
397
100
AcDbEntity
  8
Layer_1
 62
7
100
AcDbLine
 10
124.785720
 20
139.720830
 30
0.0
 11
110.984710
 21
139.720830
 31
0.0
  0
LINE
  5
398
100
AcDbEntity
  8
Layer_1
 62
7
100
AcDbLine
 10
130.034720
 20
139.720830
 30
0.0
 11
130.034720
 21
138.720830
 31
0.0
  0
LINE
  5
399
100
AcDbEntity
  8
Layer_1
 62
7
100
AcDbLine
 10
130.034720
 20
138.720830
 30
0.0
 11
129.234720
 21
138.720830
 31
0.0
  0
LINE
  5
39a
100
AcDbEntity
  8
Layer_1
 62
7
100
AcDbLine
 10
129.234720
 20
138.720830
 30
0.0
 11
129.234720
 21
135.820830
 31
0.0
  0
LINE
  5
39b
100
AcDbEntity
  8
Layer_1
 62
7
100
AcDbLine
 10
129.234720
 20
135.820830
 30
0.0
 11
130.034720
 21
135.820830
 31
0.0
  0
LINE
  5
39c
100
AcDbEntity
  8
Layer_1
 62
7
100
AcDbLine
 10
130.034720
 20
135.820830
 30
0.0
 11
130.034720
 21
129.820830
 31
0.0
  0
LINE
  5
39d
100
AcDbEntity
  8
Layer_1
 62
7
100
AcDbLine
 10
130.034720
 20
129.820830
 30
0.0
 11
129.234720
 21
129.820830
 31
0.0
  0
LINE
  5
39e
100
AcDbEntity
  8
Layer_1
 62
7
100
AcDbLine
 10
129.234720
 20
129.820830
 30
0.0
 11
129.234720
 21
126.920830
 31
0.0
  0
LINE
  5
39f
100
AcDbEntity
  8
Layer_1
 62
7
100
AcDbLine
 10
129.234720
 20
126.920830
 30
0.0
 11
130.034720
 21
126.920830
 31
0.0
  0
LINE
  5
3a0
100
AcDbEntity
  8
Layer_1
 62
7
100
AcDbLine
 10
130.034720
 20
126.920830
 30
0.0
 11
130.034720
 21
125.920830
 31
0.0
  0
LINE
  5
3a1
100
AcDbEntity
  8
Layer_1
 62
7
100
AcDbLine
 10
130.034720
 20
125.920830
 30
0.0
 11
143.834720
 21
125.920830
 31
0.0
  0
LINE
  5
3a2
100
AcDbEntity
  8
Layer_1
 62
7
100
AcDbLine
 10
143.834720
 20
125.920830
 30
0.0
 11
143.834720
 21
126.920830
 31
0.0
  0
LINE
  5
3a3
100
AcDbEntity
  8
Layer_1
 62
7
100
AcDbLine
 10
143.834720
 20
126.920830
 30
0.0
 11
144.635720
 21
126.920830
 31
0.0
  0
LINE
  5
3a4
100
AcDbEntity
  8
Layer_1
 62
7
100
AcDbLine
 10
144.635720
 20
126.920830
 30
0.0
 11
144.635720
 21
129.820830
 31
0.0
  0
LINE
  5
3a5
100
AcDbEntity
  8
Layer_1
 62
7
100
AcDbLine
 10
144.635720
 20
129.820830
 30
0.0
 11
143.834720
 21
129.820830
 31
0.0
  0
LINE
  5
3a6
100
AcDbEntity
  8
Layer_1
 62
7
100
AcDbLine
 10
143.834720
 20
129.820830
 30
0.0
 11
143.834720
 21
135.820830
 31
0.0
  0
LINE
  5
3a7
100
AcDbEntity
  8
Layer_1
 62
7
100
AcDbLine
 10
143.834720
 20
135.820830
 30
0.0
 11
144.635720
 21
135.820830
 31
0.0
  0
LINE
  5
3a8
100
AcDbEntity
  8
Layer_1
 62
7
100
AcDbLine
 10
144.635720
 20
135.820830
 30
0.0
 11
144.635720
 21
138.720830
 31
0.0
  0
LINE
  5
3a9
100
AcDbEntity
  8
Layer_1
 62
7
100
AcDbLine
 10
144.635720
 20
138.720830
 30
0.0
 11
143.834720
 21
138.720830
 31
0.0
  0
LINE
  5
3aa
100
AcDbEntity
  8
Layer_1
 62
7
100
AcDbLine
 10
143.834720
 20
138.720830
 30
0.0
 11
143.834720
 21
139.720830
 31
0.0
  0
LINE
  5
3ab
100
AcDbEntity
  8
Layer_1
 62
7
100
AcDbLine
 10
143.834720
 20
139.720830
 30
0.0
 11
130.034720
 21
139.720830
 31
0.0
  0
LINE
  5
3ac
100
AcDbEntity
  8
Layer_1
 62
7
100
AcDbLine
 10
149.084720
 20
139.720830
 30
0.0
 11
149.084720
 21
138.720830
 31
0.0
  0
LINE
  5
3ad
100
AcDbEntity
  8
Layer_1
 62
7
100
AcDbLine
 10
149.084720
 20
138.720830
 30
0.0
 11
148.285720
 21
138.720830
 31
0.0
  0
LINE
  5
3ae
100
AcDbEntity
  8
Layer_1
 62
7
100
AcDbLine
 10
148.285720
 20
138.720830
 30
0.0
 11
148.285720
 21
135.820830
 31
0.0
  0
LINE
  5
3af
100
AcDbEntity
  8
Layer_1
 62
7
100
AcDbLine
 10
148.285720
 20
135.820830
 30
0.0
 11
149.084720
 21
135.820830
 31
0.0
  0
LINE
  5
3b0
100
AcDbEntity
  8
Layer_1
 62
7
100
AcDbLine
 10
149.084720
 20
135.820830
 30
0.0
 11
149.084720
 21
129.820830
 31
0.0
  0
LINE
  5
3b1
100
AcDbEntity
  8
Layer_1
 62
7
100
AcDbLine
 10
149.084720
 20
129.820830
 30
0.0
 11
148.285720
 21
129.820830
 31
0.0
  0
LINE
  5
3b2
100
AcDbEntity
  8
Layer_1
 62
7
100
AcDbLine
 10
148.285720
 20
129.820830
 30
0.0
 11
148.285720
 21
126.920830
 31
0.0
  0
LINE
  5
3b3
100
AcDbEntity
  8
Layer_1
 62
7
100
AcDbLine
 10
148.285720
 20
126.920830
 30
0.0
 11
149.084720
 21
126.920830
 31
0.0
  0
LINE
  5
3b4
100
AcDbEntity
  8
Layer_1
 62
7
100
AcDbLine
 10
149.084720
 20
126.920830
 30
0.0
 11
149.084720
 21
125.920830
 31
0.0
  0
LINE
  5
3b5
100
AcDbEntity
  8
Layer_1
 62
7
100
AcDbLine
 10
149.084720
 20
125.920830
 30
0.0
 11
162.885720
 21
125.920830
 31
0.0
  0
LINE
  5
3b6
100
AcDbEntity
  8
Layer_1
 62
7
100
AcDbLine
 10
162.885720
 20
125.920830
 30
0.0
 11
162.885720
 21
126.920830
 31
0.0
  0
LINE
  5
3b7
100
AcDbEntity
  8
Layer_1
 62
7
100
AcDbLine
 10
162.885720
 20
126.920830
 30
0.0
 11
163.684720
 21
126.920830
 31
0.0
  0
LINE
  5
3b8
100
AcDbEntity
  8
Layer_1
 62
7
100
AcDbLine
 10
163.684720
 20
126.920830
 30
0.0
 11
163.684720
 21
129.820830
 31
0.0
  0
LINE
  5
3b9
100
AcDbEntity
  8
Layer_1
 62
7
100
AcDbLine
 10
163.684720
 20
129.820830
 30
0.0
 11
162.885720
 21
129.820830
 31
0.0
  0
LINE
  5
3ba
100
AcDbEntity
  8
Layer_1
 62
7
100
AcDbLine
 10
162.885720
 20
129.820830
 30
0.0
 11
162.885720
 21
135.820830
 31
0.0
  0
LINE
  5
3bb
100
AcDbEntity
  8
Layer_1
 62
7
100
AcDbLine
 10
162.885720
 20
135.820830
 30
0.0
 11
163.684720
 21
135.820830
 31
0.0
  0
LINE
  5
3bc
100
AcDbEntity
  8
Layer_1
 62
7
100
AcDbLine
 10
163.684720
 20
135.820830
 30
0.0
 11
163.684720
 21
138.720830
 31
0.0
  0
LINE
  5
3bd
100
AcDbEntity
  8
Layer_1
 62
7
100
AcDbLine
 10
163.684720
 20
138.720830
 30
0.0
 11
162.885720
 21
138.720830
 31
0.0
  0
LINE
  5
3be
100
AcDbEntity
  8
Layer_1
 62
7
100
AcDbLine
 10
162.885720
 20
138.720830
 30
0.0
 11
162.885720
 21
139.720830
 31
0.0
  0
LINE
  5
3bf
100
AcDbEntity
  8
Layer_1
 62
7
100
AcDbLine
 10
162.885720
 20
139.720830
 30
0.0
 11
149.084720
 21
139.720830
 31
0.0
  0
LINE
  5
3c0
100
AcDbEntity
  8
Layer_1
 62
7
100
AcDbLine
 10
168.135720
 20
139.720830
 30
0.0
 11
168.135720
 21
138.720830
 31
0.0
  0
LINE
  5
3c1
100
AcDbEntity
  8
Layer_1
 62
7
100
AcDbLine
 10
168.135720
 20
138.720830
 30
0.0
 11
167.335720
 21
138.720830
 31
0.0
  0
LINE
  5
3c2
100
AcDbEntity
  8
Layer_1
 62
7
100
AcDbLine
 10
167.335720
 20
138.720830
 30
0.0
 11
167.335720
 21
135.820830
 31
0.0
  0
LINE
  5
3c3
100
AcDbEntity
  8
Layer_1
 62
7
100
AcDbLine
 10
167.335720
 20
135.820830
 30
0.0
 11
168.135720
 21
135.820830
 31
0.0
  0
LINE
  5
3c4
100
AcDbEntity
  8
Layer_1
 62
7
100
AcDbLine
 10
168.135720
 20
135.820830
 30
0.0
 11
168.135720
 21
129.820830
 31
0.0
  0
LINE
  5
3c5
100
AcDbEntity
  8
Layer_1
 62
7
100
AcDbLine
 10
168.135720
 20
129.820830
 30
0.0
 11
167.335720
 21
129.820830
 31
0.0
  0
LINE
  5
3c6
100
AcDbEntity
  8
Layer_1
 62
7
100
AcDbLine
 10
167.335720
 20
129.820830
 30
0.0
 11
167.335720
 21
126.920830
 31
0.0
  0
LINE
  5
3c7
100
AcDbEntity
  8
Layer_1
 62
7
100
AcDbLine
 10
167.335720
 20
126.920830
 30
0.0
 11
168.135720
 21
126.920830
 31
0.0
  0
LINE
  5
3c8
100
AcDbEntity
  8
Layer_1
 62
7
100
AcDbLine
 10
168.135720
 20
126.920830
 30
0.0
 11
168.135720
 21
125.920830
 31
0.0
  0
LINE
  5
3c9
100
AcDbEntity
  8
Layer_1
 62
7
100
AcDbLine
 10
168.135720
 20
125.920830
 30
0.0
 11
181.935720
 21
125.920830
 31
0.0
  0
LINE
  5
3ca
100
AcDbEntity
  8
Layer_1
 62
7
100
AcDbLine
 10
181.935720
 20
125.920830
 30
0.0
 11
181.935720
 21
126.920830
 31
0.0
  0
LINE
  5
3cb
100
AcDbEntity
  8
Layer_1
 62
7
100
AcDbLine
 10
181.935720
 20
126.920830
 30
0.0
 11
182.734720
 21
126.920830
 31
0.0
  0
LINE
  5
3cc
100
AcDbEntity
  8
Layer_1
 62
7
100
AcDbLine
 10
182.734720
 20
126.920830
 30
0.0
 11
182.734720
 21
129.820830
 31
0.0
  0
LINE
  5
3cd
100
AcDbEntity
  8
Layer_1
 62
7
100
AcDbLine
 10
182.734720
 20
129.820830
 30
0.0
 11
181.935720
 21
129.820830
 31
0.0
  0
LINE
  5
3ce
100
AcDbEntity
  8
Layer_1
 62
7
100
AcDbLine
 10
181.935720
 20
129.820830
 30
0.0
 11
181.935720
 21
135.820830
 31
0.0
  0
LINE
  5
3cf
100
AcDbEntity
  8
Layer_1
 62
7
100
AcDbLine
 10
181.935720
 20
135.820830
 30
0.0
 11
182.734720
 21
135.820830
 31
0.0
  0
LINE
  5
3d0
100
AcDbEntity
  8
Layer_1
 62
7
100
AcDbLine
 10
182.734720
 20
135.820830
 30
0.0
 11
182.734720
 21
138.720830
 31
0.0
  0
LINE
  5
3d1
100
AcDbEntity
  8
Layer_1
 62
7
100
AcDbLine
 10
182.734720
 20
138.720830
 30
0.0
 11
181.935720
 21
138.720830
 31
0.0
  0
LINE
  5
3d2
100
AcDbEntity
  8
Layer_1
 62
7
100
AcDbLine
 10
181.935720
 20
138.720830
 30
0.0
 11
181.935720
 21
139.720830
 31
0.0
  0
LINE
  5
3d3
100
AcDbEntity
  8
Layer_1
 62
7
100
AcDbLine
 10
181.935720
 20
139.720830
 30
0.0
 11
168.135720
 21
139.720830
 31
0.0
  0
LINE
  5
3d4
100
AcDbEntity
  8
Layer_1
 62
7
100
AcDbLine
 10
187.185720
 20
139.720830
 30
0.0
 11
187.185720
 21
138.720830
 31
0.0
  0
LINE
  5
3d5
100
AcDbEntity
  8
Layer_1
 62
7
100
AcDbLine
 10
187.185720
 20
138.720830
 30
0.0
 11
186.385720
 21
138.720830
 31
0.0
  0
LINE
  5
3d6
100
AcDbEntity
  8
Layer_1
 62
7
100
AcDbLine
 10
186.385720
 20
138.720830
 30
0.0
 11
186.385720
 21
135.820830
 31
0.0
  0
LINE
  5
3d7
100
AcDbEntity
  8
Layer_1
 62
7
100
AcDbLine
 10
186.385720
 20
135.820830
 30
0.0
 11
187.185720
 21
135.820830
 31
0.0
  0
LINE
  5
3d8
100
AcDbEntity
  8
Layer_1
 62
7
100
AcDbLine
 10
187.185720
 20
135.820830
 30
0.0
 11
187.185720
 21
129.820830
 31
0.0
  0
LINE
  5
3d9
100
AcDbEntity
  8
Layer_1
 62
7
100
AcDbLine
 10
187.185720
 20
129.820830
 30
0.0
 11
186.385720
 21
129.820830
 31
0.0
  0
LINE
  5
3da
100
AcDbEntity
  8
Layer_1
 62
7
100
AcDbLine
 10
186.385720
 20
129.820830
 30
0.0
 11
186.385720
 21
126.920830
 31
0.0
  0
LINE
  5
3db
100
AcDbEntity
  8
Layer_1
 62
7
100
AcDbLine
 10
186.385720
 20
126.920830
 30
0.0
 11
187.185720
 21
126.920830
 31
0.0
  0
LINE
  5
3dc
100
AcDbEntity
  8
Layer_1
 62
7
100
AcDbLine
 10
187.185720
 20
126.920830
 30
0.0
 11
187.185720
 21
125.920830
 31
0.0
  0
LINE
  5
3dd
100
AcDbEntity
  8
Layer_1
 62
7
100
AcDbLine
 10
187.185720
 20
125.920830
 30
0.0
 11
200.985720
 21
125.920830
 31
0.0
  0
LINE
  5
3de
100
AcDbEntity
  8
Layer_1
 62
7
100
AcDbLine
 10
200.985720
 20
125.920830
 30
0.0
 11
200.985720
 21
126.920830
 31
0.0
  0
LINE
  5
3df
100
AcDbEntity
  8
Layer_1
 62
7
100
AcDbLine
 10
200.985720
 20
126.920830
 30
0.0
 11
201.785720
 21
126.920830
 31
0.0
  0
LINE
  5
3e0
100
AcDbEntity
  8
Layer_1
 62
7
100
AcDbLine
 10
201.785720
 20
126.920830
 30
0.0
 11
201.785720
 21
129.820830
 31
0.0
  0
LINE
  5
3e1
100
AcDbEntity
  8
Layer_1
 62
7
100
AcDbLine
 10
201.785720
 20
129.820830
 30
0.0
 11
200.985720
 21
129.820830
 31
0.0
  0
LINE
  5
3e2
100
AcDbEntity
  8
Layer_1
 62
7
100
AcDbLine
 10
200.985720
 20
129.820830
 30
0.0
 11
200.985720
 21
135.820830
 31
0.0
  0
LINE
  5
3e3
100
AcDbEntity
  8
Layer_1
 62
7
100
AcDbLine
 10
200.985720
 20
135.820830
 30
0.0
 11
201.785720
 21
135.820830
 31
0.0
  0
LINE
  5
3e4
100
AcDbEntity
  8
Layer_1
 62
7
100
AcDbLine
 10
201.785720
 20
135.820830
 30
0.0
 11
201.785720
 21
138.720830
 31
0.0
  0
LINE
  5
3e5
100
AcDbEntity
  8
Layer_1
 62
7
100
AcDbLine
 10
201.785720
 20
138.720830
 30
0.0
 11
200.985720
 21
138.720830
 31
0.0
  0
LINE
  5
3e6
100
AcDbEntity
  8
Layer_1
 62
7
100
AcDbLine
 10
200.985720
 20
138.720830
 30
0.0
 11
200.985720
 21
139.720830
 31
0.0
  0
LINE
  5
3e7
100
AcDbEntity
  8
Layer_1
 62
7
100
AcDbLine
 10
200.985720
 20
139.720830
 30
0.0
 11
187.185720
 21
139.720830
 31
0.0
  0
LINE
  5
3e8
100
AcDbEntity
  8
Layer_1
 62
7
100
AcDbLine
 10
206.235720
 20
139.720830
 30
0.0
 11
206.235720
 21
138.720830
 31
0.0
  0
LINE
  5
3e9
100
AcDbEntity
  8
Layer_1
 62
7
100
AcDbLine
 10
206.235720
 20
138.720830
 30
0.0
 11
205.435720
 21
138.720830
 31
0.0
  0
LINE
  5
3ea
100
AcDbEntity
  8
Layer_1
 62
7
100
AcDbLine
 10
205.435720
 20
138.720830
 30
0.0
 11
205.435720
 21
135.820830
 31
0.0
  0
LINE
  5
3eb
100
AcDbEntity
  8
Layer_1
 62
7
100
AcDbLine
 10
205.435720
 20
135.820830
 30
0.0
 11
206.235720
 21
135.820830
 31
0.0
  0
LINE
  5
3ec
100
AcDbEntity
  8
Layer_1
 62
7
100
AcDbLine
 10
206.235720
 20
135.820830
 30
0.0
 11
206.235720
 21
129.820830
 31
0.0
  0
LINE
  5
3ed
100
AcDbEntity
  8
Layer_1
 62
7
100
AcDbLine
 10
206.235720
 20
129.820830
 30
0.0
 11
205.435720
 21
129.820830
 31
0.0
  0
LINE
  5
3ee
100
AcDbEntity
  8
Layer_1
 62
7
100
AcDbLine
 10
205.435720
 20
129.820830
 30
0.0
 11
205.435720
 21
126.920830
 31
0.0
  0
LINE
  5
3ef
100
AcDbEntity
  8
Layer_1
 62
7
100
AcDbLine
 10
205.435720
 20
126.920830
 30
0.0
 11
206.235720
 21
126.920830
 31
0.0
  0
LINE
  5
3f0
100
AcDbEntity
  8
Layer_1
 62
7
100
AcDbLine
 10
206.235720
 20
126.920830
 30
0.0
 11
206.235720
 21
125.920830
 31
0.0
  0
LINE
  5
3f1
100
AcDbEntity
  8
Layer_1
 62
7
100
AcDbLine
 10
206.235720
 20
125.920830
 30
0.0
 11
220.035720
 21
125.920830
 31
0.0
  0
LINE
  5
3f2
100
AcDbEntity
  8
Layer_1
 62
7
100
AcDbLine
 10
220.035720
 20
125.920830
 30
0.0
 11
220.035720
 21
126.920830
 31
0.0
  0
LINE
  5
3f3
100
AcDbEntity
  8
Layer_1
 62
7
100
AcDbLine
 10
220.035720
 20
126.920830
 30
0.0
 11
220.835720
 21
126.920830
 31
0.0
  0
LINE
  5
3f4
100
AcDbEntity
  8
Layer_1
 62
7
100
AcDbLine
 10
220.835720
 20
126.920830
 30
0.0
 11
220.835720
 21
129.820830
 31
0.0
  0
LINE
  5
3f5
100
AcDbEntity
  8
Layer_1
 62
7
100
AcDbLine
 10
220.835720
 20
129.820830
 30
0.0
 11
220.035720
 21
129.820830
 31
0.0
  0
LINE
  5
3f6
100
AcDbEntity
  8
Layer_1
 62
7
100
AcDbLine
 10
220.035720
 20
129.820830
 30
0.0
 11
220.035720
 21
135.820830
 31
0.0
  0
LINE
  5
3f7
100
AcDbEntity
  8
Layer_1
 62
7
100
AcDbLine
 10
220.035720
 20
135.820830
 30
0.0
 11
220.835720
 21
135.820830
 31
0.0
  0
LINE
  5
3f8
100
AcDbEntity
  8
Layer_1
 62
7
100
AcDbLine
 10
220.835720
 20
135.820830
 30
0.0
 11
220.835720
 21
138.720830
 31
0.0
  0
LINE
  5
3f9
100
AcDbEntity
  8
Layer_1
 62
7
100
AcDbLine
 10
220.835720
 20
138.720830
 30
0.0
 11
220.035720
 21
138.720830
 31
0.0
  0
LINE
  5
3fa
100
AcDbEntity
  8
Layer_1
 62
7
100
AcDbLine
 10
220.035720
 20
138.720830
 30
0.0
 11
220.035720
 21
139.720830
 31
0.0
  0
LINE
  5
3fb
100
AcDbEntity
  8
Layer_1
 62
7
100
AcDbLine
 10
220.035720
 20
139.720830
 30
0.0
 11
206.235720
 21
139.720830
 31
0.0
  0
LINE
  5
3fc
100
AcDbEntity
  8
Layer_1
 62
7
100
AcDbLine
 10
272.228720
 20
138.914830
 30
0.0
 11
271.838720
 21
138.715830
 31
0.0
  0
LINE
  5
3fd
100
AcDbEntity
  8
Layer_1
 62
7
100
AcDbLine
 10
271.838720
 20
138.715830
 30
0.0
 11
271.528720
 21
138.405830
 31
0.0
  0
LINE
  5
3fe
100
AcDbEntity
  8
Layer_1
 62
7
100
AcDbLine
 10
271.528720
 20
138.405830
 30
0.0
 11
271.329720
 21
138.015830
 31
0.0
  0
LINE
  5
3ff
100
AcDbEntity
  8
Layer_1
 62
7
100
AcDbLine
 10
271.329720
 20
138.015830
 30
0.0
 11
271.261720
 21
137.582830
 31
0.0
  0
LINE
  5
400
100
AcDbEntity
  8
Layer_1
 62
7
100
AcDbLine
 10
271.261720
 20
137.582830
 30
0.0
 11
271.329720
 21
137.150830
 31
0.0
  0
LINE
  5
401
100
AcDbEntity
  8
Layer_1
 62
7
100
AcDbLine
 10
271.329720
 20
137.150830
 30
0.0
 11
271.528720
 21
136.760830
 31
0.0
  0
LINE
  5
402
100
AcDbEntity
  8
Layer_1
 62
7
100
AcDbLine
 10
271.528720
 20
136.760830
 30
0.0
 11
271.838720
 21
136.450830
 31
0.0
  0
LINE
  5
403
100
AcDbEntity
  8
Layer_1
 62
7
100
AcDbLine
 10
271.838720
 20
136.450830
 30
0.0
 11
272.228720
 21
136.251830
 31
0.0
  0
LINE
  5
404
100
AcDbEntity
  8
Layer_1
 62
7
100
AcDbLine
 10
272.228720
 20
136.251830
 30
0.0
 11
272.661720
 21
136.182830
 31
0.0
  0
LINE
  5
405
100
AcDbEntity
  8
Layer_1
 62
7
100
AcDbLine
 10
272.661720
 20
136.182830
 30
0.0
 11
273.093720
 21
136.251830
 31
0.0
  0
LINE
  5
406
100
AcDbEntity
  8
Layer_1
 62
7
100
AcDbLine
 10
273.093720
 20
136.251830
 30
0.0
 11
273.483720
 21
136.450830
 31
0.0
  0
LINE
  5
407
100
AcDbEntity
  8
Layer_1
 62
7
100
AcDbLine
 10
273.483720
 20
136.450830
 30
0.0
 11
273.793720
 21
136.760830
 31
0.0
  0
LINE
  5
408
100
AcDbEntity
  8
Layer_1
 62
7
100
AcDbLine
 10
273.793720
 20
136.760830
 30
0.0
 11
273.992720
 21
137.150830
 31
0.0
  0
LINE
  5
409
100
AcDbEntity
  8
Layer_1
 62
7
100
AcDbLine
 10
273.992720
 20
137.150830
 30
0.0
 11
274.060720
 21
137.582830
 31
0.0
  0
LINE
  5
40a
100
AcDbEntity
  8
Layer_1
 62
7
100
AcDbLine
 10
274.060720
 20
137.582830
 30
0.0
 11
273.992720
 21
138.015830
 31
0.0
  0
LINE
  5
40b
100
AcDbEntity
  8
Layer_1
 62
7
100
AcDbLine
 10
273.992720
 20
138.015830
 30
0.0
 11
273.793720
 21
138.405830
 31
0.0
  0
LINE
  5
40c
100
AcDbEntity
  8
Layer_1
 62
7
100
AcDbLine
 10
273.793720
 20
138.405830
 30
0.0
 11
273.483720
 21
138.715830
 31
0.0
  0
LINE
  5
40d
100
AcDbEntity
  8
Layer_1
 62
7
100
AcDbLine
 10
273.483720
 20
138.715830
 30
0.0
 11
273.093720
 21
138.914830
 31
0.0
  0
LINE
  5
40e
100
AcDbEntity
  8
Layer_1
 62
7
100
AcDbLine
 10
273.093720
 20
138.914830
 30
0.0
 11
272.661720
 21
138.982830
 31
0.0
  0
LINE
  5
40f
100
AcDbEntity
  8
Layer_1
 62
7
100
AcDbLine
 10
272.661720
 20
138.982830
 30
0.0
 11
272.228720
 21
138.914830
 31
0.0
  0
LINE
  5
410
100
AcDbEntity
  8
Layer_1
 62
7
100
AcDbLine
 10
21.727714
 20
138.914830
 30
0.0
 11
21.337713
 21
138.715830
 31
0.0
  0
LINE
  5
411
100
AcDbEntity
  8
Layer_1
 62
7
100
AcDbLine
 10
21.337713
 20
138.715830
 30
0.0
 11
21.027713
 21
138.405830
 31
0.0
  0
LINE
  5
412
100
AcDbEntity
  8
Layer_1
 62
7
100
AcDbLine
 10
21.027713
 20
138.405830
 30
0.0
 11
20.828713
 21
138.015830
 31
0.0
  0
LINE
  5
413
100
AcDbEntity
  8
Layer_1
 62
7
100
AcDbLine
 10
20.828713
 20
138.015830
 30
0.0
 11
20.759713
 21
137.582830
 31
0.0
  0
LINE
  5
414
100
AcDbEntity
  8
Layer_1
 62
7
100
AcDbLine
 10
20.759713
 20
137.582830
 30
0.0
 11
20.828713
 21
137.150830
 31
0.0
  0
LINE
  5
415
100
AcDbEntity
  8
Layer_1
 62
7
100
AcDbLine
 10
20.828713
 20
137.150830
 30
0.0
 11
21.027713
 21
136.760830
 31
0.0
  0
LINE
  5
416
100
AcDbEntity
  8
Layer_1
 62
7
100
AcDbLine
 10
21.027713
 20
136.760830
 30
0.0
 11
21.337713
 21
136.450830
 31
0.0
  0
LINE
  5
417
100
AcDbEntity
  8
Layer_1
 62
7
100
AcDbLine
 10
21.337713
 20
136.450830
 30
0.0
 11
21.727714
 21
136.251830
 31
0.0
  0
LINE
  5
418
100
AcDbEntity
  8
Layer_1
 62
7
100
AcDbLine
 10
21.727714
 20
136.251830
 30
0.0
 11
22.159714
 21
136.182830
 31
0.0
  0
LINE
  5
419
100
AcDbEntity
  8
Layer_1
 62
7
100
AcDbLine
 10
22.159714
 20
136.182830
 30
0.0
 11
22.592713
 21
136.251830
 31
0.0
  0
LINE
  5
41a
100
AcDbEntity
  8
Layer_1
 62
7
100
AcDbLine
 10
22.592713
 20
136.251830
 30
0.0
 11
22.982713
 21
136.450830
 31
0.0
  0
LINE
  5
41b
100
AcDbEntity
  8
Layer_1
 62
7
100
AcDbLine
 10
22.982713
 20
136.450830
 30
0.0
 11
23.292713
 21
136.760830
 31
0.0
  0
LINE
  5
41c
100
AcDbEntity
  8
Layer_1
 62
7
100
AcDbLine
 10
23.292713
 20
136.760830
 30
0.0
 11
23.491713
 21
137.150830
 31
0.0
  0
LINE
  5
41d
100
AcDbEntity
  8
Layer_1
 62
7
100
AcDbLine
 10
23.491713
 20
137.150830
 30
0.0
 11
23.559713
 21
137.582830
 31
0.0
  0
LINE
  5
41e
100
AcDbEntity
  8
Layer_1
 62
7
100
AcDbLine
 10
23.559713
 20
137.582830
 30
0.0
 11
23.491713
 21
138.015830
 31
0.0
  0
LINE
  5
41f
100
AcDbEntity
  8
Layer_1
 62
7
100
AcDbLine
 10
23.491713
 20
138.015830
 30
0.0
 11
23.292713
 21
138.405830
 31
0.0
  0
LINE
  5
420
100
AcDbEntity
  8
Layer_1
 62
7
100
AcDbLine
 10
23.292713
 20
138.405830
 30
0.0
 11
22.982713
 21
138.715830
 31
0.0
  0
LINE
  5
421
100
AcDbEntity
  8
Layer_1
 62
7
100
AcDbLine
 10
22.982713
 20
138.715830
 30
0.0
 11
22.592713
 21
138.914830
 31
0.0
  0
LINE
  5
422
100
AcDbEntity
  8
Layer_1
 62
7
100
AcDbLine
 10
22.592713
 20
138.914830
 30
0.0
 11
22.159714
 21
138.982830
 31
0.0
  0
LINE
  5
423
100
AcDbEntity
  8
Layer_1
 62
7
100
AcDbLine
 10
22.159714
 20
138.982830
 30
0.0
 11
21.727714
 21
138.914830
 31
0.0
  0
LINE
  5
424
100
AcDbEntity
  8
Layer_1
 62
7
100
AcDbLine
 10
34.785713
 20
168.295830
 30
0.0
 11
34.785713
 21
167.295830
 31
0.0
  0
LINE
  5
425
100
AcDbEntity
  8
Layer_1
 62
7
100
AcDbLine
 10
34.785713
 20
167.295830
 30
0.0
 11
33.985713
 21
167.295830
 31
0.0
  0
LINE
  5
426
100
AcDbEntity
  8
Layer_1
 62
7
100
AcDbLine
 10
33.985713
 20
167.295830
 30
0.0
 11
33.985713
 21
164.396830
 31
0.0
  0
LINE
  5
427
100
AcDbEntity
  8
Layer_1
 62
7
100
AcDbLine
 10
33.985713
 20
164.396830
 30
0.0
 11
34.785713
 21
164.396830
 31
0.0
  0
LINE
  5
428
100
AcDbEntity
  8
Layer_1
 62
7
100
AcDbLine
 10
34.785713
 20
164.396830
 30
0.0
 11
34.785713
 21
158.395830
 31
0.0
  0
LINE
  5
429
100
AcDbEntity
  8
Layer_1
 62
7
100
AcDbLine
 10
34.785713
 20
158.395830
 30
0.0
 11
33.985713
 21
158.395830
 31
0.0
  0
LINE
  5
42a
100
AcDbEntity
  8
Layer_1
 62
7
100
AcDbLine
 10
33.985713
 20
158.395830
 30
0.0
 11
33.985713
 21
155.495830
 31
0.0
  0
LINE
  5
42b
100
AcDbEntity
  8
Layer_1
 62
7
100
AcDbLine
 10
33.985713
 20
155.495830
 30
0.0
 11
34.785713
 21
155.495830
 31
0.0
  0
LINE
  5
42c
100
AcDbEntity
  8
Layer_1
 62
7
100
AcDbLine
 10
34.785713
 20
155.495830
 30
0.0
 11
34.785713
 21
154.495830
 31
0.0
  0
LINE
  5
42d
100
AcDbEntity
  8
Layer_1
 62
7
100
AcDbLine
 10
34.785713
 20
154.495830
 30
0.0
 11
48.585714
 21
154.495830
 31
0.0
  0
LINE
  5
42e
100
AcDbEntity
  8
Layer_1
 62
7
100
AcDbLine
 10
48.585714
 20
154.495830
 30
0.0
 11
48.585714
 21
155.495830
 31
0.0
  0
LINE
  5
42f
100
AcDbEntity
  8
Layer_1
 62
7
100
AcDbLine
 10
48.585714
 20
155.495830
 30
0.0
 11
49.385714
 21
155.495830
 31
0.0
  0
LINE
  5
430
100
AcDbEntity
  8
Layer_1
 62
7
100
AcDbLine
 10
49.385714
 20
155.495830
 30
0.0
 11
49.385714
 21
158.395830
 31
0.0
  0
LINE
  5
431
100
AcDbEntity
  8
Layer_1
 62
7
100
AcDbLine
 10
49.385714
 20
158.395830
 30
0.0
 11
48.585714
 21
158.395830
 31
0.0
  0
LINE
  5
432
100
AcDbEntity
  8
Layer_1
 62
7
100
AcDbLine
 10
48.585714
 20
158.395830
 30
0.0
 11
48.585714
 21
164.396830
 31
0.0
  0
LINE
  5
433
100
AcDbEntity
  8
Layer_1
 62
7
100
AcDbLine
 10
48.585714
 20
164.396830
 30
0.0
 11
49.385714
 21
164.396830
 31
0.0
  0
LINE
  5
434
100
AcDbEntity
  8
Layer_1
 62
7
100
AcDbLine
 10
49.385714
 20
164.396830
 30
0.0
 11
49.385714
 21
167.295830
 31
0.0
  0
LINE
  5
435
100
AcDbEntity
  8
Layer_1
 62
7
100
AcDbLine
 10
49.385714
 20
167.295830
 30
0.0
 11
48.585714
 21
167.295830
 31
0.0
  0
LINE
  5
436
100
AcDbEntity
  8
Layer_1
 62
7
100
AcDbLine
 10
48.585714
 20
167.295830
 30
0.0
 11
48.585714
 21
168.295830
 31
0.0
  0
LINE
  5
437
100
AcDbEntity
  8
Layer_1
 62
7
100
AcDbLine
 10
48.585714
 20
168.295830
 30
0.0
 11
34.785713
 21
168.295830
 31
0.0
  0
LINE
  5
438
100
AcDbEntity
  8
Layer_1
 62
7
100
AcDbLine
 10
53.835714
 20
168.295830
 30
0.0
 11
53.835714
 21
167.295830
 31
0.0
  0
LINE
  5
439
100
AcDbEntity
  8
Layer_1
 62
7
100
AcDbLine
 10
53.835714
 20
167.295830
 30
0.0
 11
53.034715
 21
167.295830
 31
0.0
  0
LINE
  5
43a
100
AcDbEntity
  8
Layer_1
 62
7
100
AcDbLine
 10
53.034715
 20
167.295830
 30
0.0
 11
53.034715
 21
164.396830
 31
0.0
  0
LINE
  5
43b
100
AcDbEntity
  8
Layer_1
 62
7
100
AcDbLine
 10
53.034715
 20
164.396830
 30
0.0
 11
53.835714
 21
164.396830
 31
0.0
  0
LINE
  5
43c
100
AcDbEntity
  8
Layer_1
 62
7
100
AcDbLine
 10
53.835714
 20
164.396830
 30
0.0
 11
53.835714
 21
158.395830
 31
0.0
  0
LINE
  5
43d
100
AcDbEntity
  8
Layer_1
 62
7
100
AcDbLine
 10
53.835714
 20
158.395830
 30
0.0
 11
53.034715
 21
158.395830
 31
0.0
  0
LINE
  5
43e
100
AcDbEntity
  8
Layer_1
 62
7
100
AcDbLine
 10
53.034715
 20
158.395830
 30
0.0
 11
53.034715
 21
155.495830
 31
0.0
  0
LINE
  5
43f
100
AcDbEntity
  8
Layer_1
 62
7
100
AcDbLine
 10
53.034715
 20
155.495830
 30
0.0
 11
53.835714
 21
155.495830
 31
0.0
  0
LINE
  5
440
100
AcDbEntity
  8
Layer_1
 62
7
100
AcDbLine
 10
53.835714
 20
155.495830
 30
0.0
 11
53.835714
 21
154.495830
 31
0.0
  0
LINE
  5
441
100
AcDbEntity
  8
Layer_1
 62
7
100
AcDbLine
 10
53.835714
 20
154.495830
 30
0.0
 11
67.634714
 21
154.495830
 31
0.0
  0
LINE
  5
442
100
AcDbEntity
  8
Layer_1
 62
7
100
AcDbLine
 10
67.634714
 20
154.495830
 30
0.0
 11
67.634714
 21
155.495830
 31
0.0
  0
LINE
  5
443
100
AcDbEntity
  8
Layer_1
 62
7
100
AcDbLine
 10
67.634714
 20
155.495830
 30
0.0
 11
68.435714
 21
155.495830
 31
0.0
  0
LINE
  5
444
100
AcDbEntity
  8
Layer_1
 62
7
100
AcDbLine
 10
68.435714
 20
155.495830
 30
0.0
 11
68.435714
 21
158.395830
 31
0.0
  0
LINE
  5
445
100
AcDbEntity
  8
Layer_1
 62
7
100
AcDbLine
 10
68.435714
 20
158.395830
 30
0.0
 11
67.634714
 21
158.395830
 31
0.0
  0
LINE
  5
446
100
AcDbEntity
  8
Layer_1
 62
7
100
AcDbLine
 10
67.634714
 20
158.395830
 30
0.0
 11
67.634714
 21
164.396830
 31
0.0
  0
LINE
  5
447
100
AcDbEntity
  8
Layer_1
 62
7
100
AcDbLine
 10
67.634714
 20
164.396830
 30
0.0
 11
68.435714
 21
164.396830
 31
0.0
  0
LINE
  5
448
100
AcDbEntity
  8
Layer_1
 62
7
100
AcDbLine
 10
68.435714
 20
164.396830
 30
0.0
 11
68.435714
 21
167.295830
 31
0.0
  0
LINE
  5
449
100
AcDbEntity
  8
Layer_1
 62
7
100
AcDbLine
 10
68.435714
 20
167.295830
 30
0.0
 11
67.634714
 21
167.295830
 31
0.0
  0
LINE
  5
44a
100
AcDbEntity
  8
Layer_1
 62
7
100
AcDbLine
 10
67.634714
 20
167.295830
 30
0.0
 11
67.634714
 21
168.295830
 31
0.0
  0
LINE
  5
44b
100
AcDbEntity
  8
Layer_1
 62
7
100
AcDbLine
 10
67.634714
 20
168.295830
 30
0.0
 11
53.835714
 21
168.295830
 31
0.0
  0
LINE
  5
44c
100
AcDbEntity
  8
Layer_1
 62
7
100
AcDbLine
 10
72.884714
 20
168.295830
 30
0.0
 11
72.884714
 21
167.295830
 31
0.0
  0
LINE
  5
44d
100
AcDbEntity
  8
Layer_1
 62
7
100
AcDbLine
 10
72.884714
 20
167.295830
 30
0.0
 11
72.084715
 21
167.295830
 31
0.0
  0
LINE
  5
44e
100
AcDbEntity
  8
Layer_1
 62
7
100
AcDbLine
 10
72.084715
 20
167.295830
 30
0.0
 11
72.084715
 21
164.396830
 31
0.0
  0
LINE
  5
44f
100
AcDbEntity
  8
Layer_1
 62
7
100
AcDbLine
 10
72.084715
 20
164.396830
 30
0.0
 11
72.884714
 21
164.396830
 31
0.0
  0
LINE
  5
450
100
AcDbEntity
  8
Layer_1
 62
7
100
AcDbLine
 10
72.884714
 20
164.396830
 30
0.0
 11
72.884714
 21
158.395830
 31
0.0
  0
LINE
  5
451
100
AcDbEntity
  8
Layer_1
 62
7
100
AcDbLine
 10
72.884714
 20
158.395830
 30
0.0
 11
72.084715
 21
158.395830
 31
0.0
  0
LINE
  5
452
100
AcDbEntity
  8
Layer_1
 62
7
100
AcDbLine
 10
72.084715
 20
158.395830
 30
0.0
 11
72.084715
 21
155.495830
 31
0.0
  0
LINE
  5
453
100
AcDbEntity
  8
Layer_1
 62
7
100
AcDbLine
 10
72.084715
 20
155.495830
 30
0.0
 11
72.884714
 21
155.495830
 31
0.0
  0
LINE
  5
454
100
AcDbEntity
  8
Layer_1
 62
7
100
AcDbLine
 10
72.884714
 20
155.495830
 30
0.0
 11
72.884714
 21
154.495830
 31
0.0
  0
LINE
  5
455
100
AcDbEntity
  8
Layer_1
 62
7
100
AcDbLine
 10
72.884714
 20
154.495830
 30
0.0
 11
86.685714
 21
154.495830
 31
0.0
  0
LINE
  5
456
100
AcDbEntity
  8
Layer_1
 62
7
100
AcDbLine
 10
86.685714
 20
154.495830
 30
0.0
 11
86.685714
 21
155.495830
 31
0.0
  0
LINE
  5
457
100
AcDbEntity
  8
Layer_1
 62
7
100
AcDbLine
 10
86.685714
 20
155.495830
 30
0.0
 11
87.485714
 21
155.495830
 31
0.0
  0
LINE
  5
458
100
AcDbEntity
  8
Layer_1
 62
7
100
AcDbLine
 10
87.485714
 20
155.495830
 30
0.0
 11
87.485714
 21
158.395830
 31
0.0
  0
LINE
  5
459
100
AcDbEntity
  8
Layer_1
 62
7
100
AcDbLine
 10
87.485714
 20
158.395830
 30
0.0
 11
86.685714
 21
158.395830
 31
0.0
  0
LINE
  5
45a
100
AcDbEntity
  8
Layer_1
 62
7
100
AcDbLine
 10
86.685714
 20
158.395830
 30
0.0
 11
86.685714
 21
164.396830
 31
0.0
  0
LINE
  5
45b
100
AcDbEntity
  8
Layer_1
 62
7
100
AcDbLine
 10
86.685714
 20
164.396830
 30
0.0
 11
87.485714
 21
164.396830
 31
0.0
  0
LINE
  5
45c
100
AcDbEntity
  8
Layer_1
 62
7
100
AcDbLine
 10
87.485714
 20
164.396830
 30
0.0
 11
87.485714
 21
167.295830
 31
0.0
  0
LINE
  5
45d
100
AcDbEntity
  8
Layer_1
 62
7
100
AcDbLine
 10
87.485714
 20
167.295830
 30
0.0
 11
86.685714
 21
167.295830
 31
0.0
  0
LINE
  5
45e
100
AcDbEntity
  8
Layer_1
 62
7
100
AcDbLine
 10
86.685714
 20
167.295830
 30
0.0
 11
86.685714
 21
168.295830
 31
0.0
  0
LINE
  5
45f
100
AcDbEntity
  8
Layer_1
 62
7
100
AcDbLine
 10
86.685714
 20
168.295830
 30
0.0
 11
72.884714
 21
168.295830
 31
0.0
  0
LINE
  5
460
100
AcDbEntity
  8
Layer_1
 62
7
100
AcDbLine
 10
91.934714
 20
168.295830
 30
0.0
 11
91.934714
 21
167.295830
 31
0.0
  0
LINE
  5
461
100
AcDbEntity
  8
Layer_1
 62
7
100
AcDbLine
 10
91.934714
 20
167.295830
 30
0.0
 11
91.134715
 21
167.295830
 31
0.0
  0
LINE
  5
462
100
AcDbEntity
  8
Layer_1
 62
7
100
AcDbLine
 10
91.134715
 20
167.295830
 30
0.0
 11
91.134715
 21
164.396830
 31
0.0
  0
LINE
  5
463
100
AcDbEntity
  8
Layer_1
 62
7
100
AcDbLine
 10
91.134715
 20
164.396830
 30
0.0
 11
91.934714
 21
164.396830
 31
0.0
  0
LINE
  5
464
100
AcDbEntity
  8
Layer_1
 62
7
100
AcDbLine
 10
91.934714
 20
164.396830
 30
0.0
 11
91.934714
 21
158.395830
 31
0.0
  0
LINE
  5
465
100
AcDbEntity
  8
Layer_1
 62
7
100
AcDbLine
 10
91.934714
 20
158.395830
 30
0.0
 11
91.134715
 21
158.395830
 31
0.0
  0
LINE
  5
466
100
AcDbEntity
  8
Layer_1
 62
7
100
AcDbLine
 10
91.134715
 20
158.395830
 30
0.0
 11
91.134715
 21
155.495830
 31
0.0
  0
LINE
  5
467
100
AcDbEntity
  8
Layer_1
 62
7
100
AcDbLine
 10
91.134715
 20
155.495830
 30
0.0
 11
91.934714
 21
155.495830
 31
0.0
  0
LINE
  5
468
100
AcDbEntity
  8
Layer_1
 62
7
100
AcDbLine
 10
91.934714
 20
155.495830
 30
0.0
 11
91.934714
 21
154.495830
 31
0.0
  0
LINE
  5
469
100
AcDbEntity
  8
Layer_1
 62
7
100
AcDbLine
 10
91.934714
 20
154.495830
 30
0.0
 11
105.735710
 21
154.495830
 31
0.0
  0
LINE
  5
46a
100
AcDbEntity
  8
Layer_1
 62
7
100
AcDbLine
 10
105.735710
 20
154.495830
 30
0.0
 11
105.735710
 21
155.495830
 31
0.0
  0
LINE
  5
46b
100
AcDbEntity
  8
Layer_1
 62
7
100
AcDbLine
 10
105.735710
 20
155.495830
 30
0.0
 11
106.535710
 21
155.495830
 31
0.0
  0
LINE
  5
46c
100
AcDbEntity
  8
Layer_1
 62
7
100
AcDbLine
 10
106.535710
 20
155.495830
 30
0.0
 11
106.535710
 21
158.395830
 31
0.0
  0
LINE
  5
46d
100
AcDbEntity
  8
Layer_1
 62
7
100
AcDbLine
 10
106.535710
 20
158.395830
 30
0.0
 11
105.735710
 21
158.395830
 31
0.0
  0
LINE
  5
46e
100
AcDbEntity
  8
Layer_1
 62
7
100
AcDbLine
 10
105.735710
 20
158.395830
 30
0.0
 11
105.735710
 21
164.396830
 31
0.0
  0
LINE
  5
46f
100
AcDbEntity
  8
Layer_1
 62
7
100
AcDbLine
 10
105.735710
 20
164.396830
 30
0.0
 11
106.535710
 21
164.396830
 31
0.0
  0
LINE
  5
470
100
AcDbEntity
  8
Layer_1
 62
7
100
AcDbLine
 10
106.535710
 20
164.396830
 30
0.0
 11
106.535710
 21
167.295830
 31
0.0
  0
LINE
  5
471
100
AcDbEntity
  8
Layer_1
 62
7
100
AcDbLine
 10
106.535710
 20
167.295830
 30
0.0
 11
105.735710
 21
167.295830
 31
0.0
  0
LINE
  5
472
100
AcDbEntity
  8
Layer_1
 62
7
100
AcDbLine
 10
105.735710
 20
167.295830
 30
0.0
 11
105.735710
 21
168.295830
 31
0.0
  0
LINE
  5
473
100
AcDbEntity
  8
Layer_1
 62
7
100
AcDbLine
 10
105.735710
 20
168.295830
 30
0.0
 11
91.934714
 21
168.295830
 31
0.0
  0
LINE
  5
474
100
AcDbEntity
  8
Layer_1
 62
7
100
AcDbLine
 10
110.984710
 20
168.295830
 30
0.0
 11
110.984710
 21
167.295830
 31
0.0
  0
LINE
  5
475
100
AcDbEntity
  8
Layer_1
 62
7
100
AcDbLine
 10
110.984710
 20
167.295830
 30
0.0
 11
110.184720
 21
167.295830
 31
0.0
  0
LINE
  5
476
100
AcDbEntity
  8
Layer_1
 62
7
100
AcDbLine
 10
110.184720
 20
167.295830
 30
0.0
 11
110.184720
 21
164.396830
 31
0.0
  0
LINE
  5
477
100
AcDbEntity
  8
Layer_1
 62
7
100
AcDbLine
 10
110.184720
 20
164.396830
 30
0.0
 11
110.984710
 21
164.396830
 31
0.0
  0
LINE
  5
478
100
AcDbEntity
  8
Layer_1
 62
7
100
AcDbLine
 10
110.984710
 20
164.396830
 30
0.0
 11
110.984710
 21
158.395830
 31
0.0
  0
LINE
  5
479
100
AcDbEntity
  8
Layer_1
 62
7
100
AcDbLine
 10
110.984710
 20
158.395830
 30
0.0
 11
110.184720
 21
158.395830
 31
0.0
  0
LINE
  5
47a
100
AcDbEntity
  8
Layer_1
 62
7
100
AcDbLine
 10
110.184720
 20
158.395830
 30
0.0
 11
110.184720
 21
155.495830
 31
0.0
  0
LINE
  5
47b
100
AcDbEntity
  8
Layer_1
 62
7
100
AcDbLine
 10
110.184720
 20
155.495830
 30
0.0
 11
110.984710
 21
155.495830
 31
0.0
  0
LINE
  5
47c
100
AcDbEntity
  8
Layer_1
 62
7
100
AcDbLine
 10
110.984710
 20
155.495830
 30
0.0
 11
110.984710
 21
154.495830
 31
0.0
  0
LINE
  5
47d
100
AcDbEntity
  8
Layer_1
 62
7
100
AcDbLine
 10
110.984710
 20
154.495830
 30
0.0
 11
124.785720
 21
154.495830
 31
0.0
  0
LINE
  5
47e
100
AcDbEntity
  8
Layer_1
 62
7
100
AcDbLine
 10
124.785720
 20
154.495830
 30
0.0
 11
124.785720
 21
155.495830
 31
0.0
  0
LINE
  5
47f
100
AcDbEntity
  8
Layer_1
 62
7
100
AcDbLine
 10
124.785720
 20
155.495830
 30
0.0
 11
125.584720
 21
155.495830
 31
0.0
  0
LINE
  5
480
100
AcDbEntity
  8
Layer_1
 62
7
100
AcDbLine
 10
125.584720
 20
155.495830
 30
0.0
 11
125.584720
 21
158.395830
 31
0.0
  0
LINE
  5
481
100
AcDbEntity
  8
Layer_1
 62
7
100
AcDbLine
 10
125.584720
 20
158.395830
 30
0.0
 11
124.785720
 21
158.395830
 31
0.0
  0
LINE
  5
482
100
AcDbEntity
  8
Layer_1
 62
7
100
AcDbLine
 10
124.785720
 20
158.395830
 30
0.0
 11
124.785720
 21
164.396830
 31
0.0
  0
LINE
  5
483
100
AcDbEntity
  8
Layer_1
 62
7
100
AcDbLine
 10
124.785720
 20
164.396830
 30
0.0
 11
125.584720
 21
164.396830
 31
0.0
  0
LINE
  5
484
100
AcDbEntity
  8
Layer_1
 62
7
100
AcDbLine
 10
125.584720
 20
164.396830
 30
0.0
 11
125.584720
 21
167.295830
 31
0.0
  0
LINE
  5
485
100
AcDbEntity
  8
Layer_1
 62
7
100
AcDbLine
 10
125.584720
 20
167.295830
 30
0.0
 11
124.785720
 21
167.295830
 31
0.0
  0
LINE
  5
486
100
AcDbEntity
  8
Layer_1
 62
7
100
AcDbLine
 10
124.785720
 20
167.295830
 30
0.0
 11
124.785720
 21
168.295830
 31
0.0
  0
LINE
  5
487
100
AcDbEntity
  8
Layer_1
 62
7
100
AcDbLine
 10
124.785720
 20
168.295830
 30
0.0
 11
110.984710
 21
168.295830
 31
0.0
  0
LINE
  5
488
100
AcDbEntity
  8
Layer_1
 62
7
100
AcDbLine
 10
130.034720
 20
168.295830
 30
0.0
 11
130.034720
 21
167.295830
 31
0.0
  0
LINE
  5
489
100
AcDbEntity
  8
Layer_1
 62
7
100
AcDbLine
 10
130.034720
 20
167.295830
 30
0.0
 11
129.234720
 21
167.295830
 31
0.0
  0
LINE
  5
48a
100
AcDbEntity
  8
Layer_1
 62
7
100
AcDbLine
 10
129.234720
 20
167.295830
 30
0.0
 11
129.234720
 21
164.396830
 31
0.0
  0
LINE
  5
48b
100
AcDbEntity
  8
Layer_1
 62
7
100
AcDbLine
 10
129.234720
 20
164.396830
 30
0.0
 11
130.034720
 21
164.396830
 31
0.0
  0
LINE
  5
48c
100
AcDbEntity
  8
Layer_1
 62
7
100
AcDbLine
 10
130.034720
 20
164.396830
 30
0.0
 11
130.034720
 21
158.395830
 31
0.0
  0
LINE
  5
48d
100
AcDbEntity
  8
Layer_1
 62
7
100
AcDbLine
 10
130.034720
 20
158.395830
 30
0.0
 11
129.234720
 21
158.395830
 31
0.0
  0
LINE
  5
48e
100
AcDbEntity
  8
Layer_1
 62
7
100
AcDbLine
 10
129.234720
 20
158.395830
 30
0.0
 11
129.234720
 21
155.495830
 31
0.0
  0
LINE
  5
48f
100
AcDbEntity
  8
Layer_1
 62
7
100
AcDbLine
 10
129.234720
 20
155.495830
 30
0.0
 11
130.034720
 21
155.495830
 31
0.0
  0
LINE
  5
490
100
AcDbEntity
  8
Layer_1
 62
7
100
AcDbLine
 10
130.034720
 20
155.495830
 30
0.0
 11
130.034720
 21
154.495830
 31
0.0
  0
LINE
  5
491
100
AcDbEntity
  8
Layer_1
 62
7
100
AcDbLine
 10
130.034720
 20
154.495830
 30
0.0
 11
143.834720
 21
154.495830
 31
0.0
  0
LINE
  5
492
100
AcDbEntity
  8
Layer_1
 62
7
100
AcDbLine
 10
143.834720
 20
154.495830
 30
0.0
 11
143.834720
 21
155.495830
 31
0.0
  0
LINE
  5
493
100
AcDbEntity
  8
Layer_1
 62
7
100
AcDbLine
 10
143.834720
 20
155.495830
 30
0.0
 11
144.635720
 21
155.495830
 31
0.0
  0
LINE
  5
494
100
AcDbEntity
  8
Layer_1
 62
7
100
AcDbLine
 10
144.635720
 20
155.495830
 30
0.0
 11
144.635720
 21
158.395830
 31
0.0
  0
LINE
  5
495
100
AcDbEntity
  8
Layer_1
 62
7
100
AcDbLine
 10
144.635720
 20
158.395830
 30
0.0
 11
143.834720
 21
158.395830
 31
0.0
  0
LINE
  5
496
100
AcDbEntity
  8
Layer_1
 62
7
100
AcDbLine
 10
143.834720
 20
158.395830
 30
0.0
 11
143.834720
 21
164.396830
 31
0.0
  0
LINE
  5
497
100
AcDbEntity
  8
Layer_1
 62
7
100
AcDbLine
 10
143.834720
 20
164.396830
 30
0.0
 11
144.635720
 21
164.396830
 31
0.0
  0
LINE
  5
498
100
AcDbEntity
  8
Layer_1
 62
7
100
AcDbLine
 10
144.635720
 20
164.396830
 30
0.0
 11
144.635720
 21
167.295830
 31
0.0
  0
LINE
  5
499
100
AcDbEntity
  8
Layer_1
 62
7
100
AcDbLine
 10
144.635720
 20
167.295830
 30
0.0
 11
143.834720
 21
167.295830
 31
0.0
  0
LINE
  5
49a
100
AcDbEntity
  8
Layer_1
 62
7
100
AcDbLine
 10
143.834720
 20
167.295830
 30
0.0
 11
143.834720
 21
168.295830
 31
0.0
  0
LINE
  5
49b
100
AcDbEntity
  8
Layer_1
 62
7
100
AcDbLine
 10
143.834720
 20
168.295830
 30
0.0
 11
130.034720
 21
168.295830
 31
0.0
  0
LINE
  5
49c
100
AcDbEntity
  8
Layer_1
 62
7
100
AcDbLine
 10
149.084720
 20
168.295830
 30
0.0
 11
149.084720
 21
167.295830
 31
0.0
  0
LINE
  5
49d
100
AcDbEntity
  8
Layer_1
 62
7
100
AcDbLine
 10
149.084720
 20
167.295830
 30
0.0
 11
148.285720
 21
167.295830
 31
0.0
  0
LINE
  5
49e
100
AcDbEntity
  8
Layer_1
 62
7
100
AcDbLine
 10
148.285720
 20
167.295830
 30
0.0
 11
148.285720
 21
164.396830
 31
0.0
  0
LINE
  5
49f
100
AcDbEntity
  8
Layer_1
 62
7
100
AcDbLine
 10
148.285720
 20
164.396830
 30
0.0
 11
149.084720
 21
164.396830
 31
0.0
  0
LINE
  5
4a0
100
AcDbEntity
  8
Layer_1
 62
7
100
AcDbLine
 10
149.084720
 20
164.396830
 30
0.0
 11
149.084720
 21
158.395830
 31
0.0
  0
LINE
  5
4a1
100
AcDbEntity
  8
Layer_1
 62
7
100
AcDbLine
 10
149.084720
 20
158.395830
 30
0.0
 11
148.285720
 21
158.395830
 31
0.0
  0
LINE
  5
4a2
100
AcDbEntity
  8
Layer_1
 62
7
100
AcDbLine
 10
148.285720
 20
158.395830
 30
0.0
 11
148.285720
 21
155.495830
 31
0.0
  0
LINE
  5
4a3
100
AcDbEntity
  8
Layer_1
 62
7
100
AcDbLine
 10
148.285720
 20
155.495830
 30
0.0
 11
149.084720
 21
155.495830
 31
0.0
  0
LINE
  5
4a4
100
AcDbEntity
  8
Layer_1
 62
7
100
AcDbLine
 10
149.084720
 20
155.495830
 30
0.0
 11
149.084720
 21
154.495830
 31
0.0
  0
LINE
  5
4a5
100
AcDbEntity
  8
Layer_1
 62
7
100
AcDbLine
 10
149.084720
 20
154.495830
 30
0.0
 11
162.885720
 21
154.495830
 31
0.0
  0
LINE
  5
4a6
100
AcDbEntity
  8
Layer_1
 62
7
100
AcDbLine
 10
162.885720
 20
154.495830
 30
0.0
 11
162.885720
 21
155.495830
 31
0.0
  0
LINE
  5
4a7
100
AcDbEntity
  8
Layer_1
 62
7
100
AcDbLine
 10
162.885720
 20
155.495830
 30
0.0
 11
163.684720
 21
155.495830
 31
0.0
  0
LINE
  5
4a8
100
AcDbEntity
  8
Layer_1
 62
7
100
AcDbLine
 10
163.684720
 20
155.495830
 30
0.0
 11
163.684720
 21
158.395830
 31
0.0
  0
LINE
  5
4a9
100
AcDbEntity
  8
Layer_1
 62
7
100
AcDbLine
 10
163.684720
 20
158.395830
 30
0.0
 11
162.885720
 21
158.395830
 31
0.0
  0
LINE
  5
4aa
100
AcDbEntity
  8
Layer_1
 62
7
100
AcDbLine
 10
162.885720
 20
158.395830
 30
0.0
 11
162.885720
 21
164.396830
 31
0.0
  0
LINE
  5
4ab
100
AcDbEntity
  8
Layer_1
 62
7
100
AcDbLine
 10
162.885720
 20
164.396830
 30
0.0
 11
163.684720
 21
164.396830
 31
0.0
  0
LINE
  5
4ac
100
AcDbEntity
  8
Layer_1
 62
7
100
AcDbLine
 10
163.684720
 20
164.396830
 30
0.0
 11
163.684720
 21
167.295830
 31
0.0
  0
LINE
  5
4ad
100
AcDbEntity
  8
Layer_1
 62
7
100
AcDbLine
 10
163.684720
 20
167.295830
 30
0.0
 11
162.885720
 21
167.295830
 31
0.0
  0
LINE
  5
4ae
100
AcDbEntity
  8
Layer_1
 62
7
100
AcDbLine
 10
162.885720
 20
167.295830
 30
0.0
 11
162.885720
 21
168.295830
 31
0.0
  0
LINE
  5
4af
100
AcDbEntity
  8
Layer_1
 62
7
100
AcDbLine
 10
162.885720
 20
168.295830
 30
0.0
 11
149.084720
 21
168.295830
 31
0.0
  0
LINE
  5
4b0
100
AcDbEntity
  8
Layer_1
 62
7
100
AcDbLine
 10
168.135720
 20
168.295830
 30
0.0
 11
168.135720
 21
167.295830
 31
0.0
  0
LINE
  5
4b1
100
AcDbEntity
  8
Layer_1
 62
7
100
AcDbLine
 10
168.135720
 20
167.295830
 30
0.0
 11
167.335720
 21
167.295830
 31
0.0
  0
LINE
  5
4b2
100
AcDbEntity
  8
Layer_1
 62
7
100
AcDbLine
 10
167.335720
 20
167.295830
 30
0.0
 11
167.335720
 21
164.396830
 31
0.0
  0
LINE
  5
4b3
100
AcDbEntity
  8
Layer_1
 62
7
100
AcDbLine
 10
167.335720
 20
164.396830
 30
0.0
 11
168.135720
 21
164.396830
 31
0.0
  0
LINE
  5
4b4
100
AcDbEntity
  8
Layer_1
 62
7
100
AcDbLine
 10
168.135720
 20
164.396830
 30
0.0
 11
168.135720
 21
158.395830
 31
0.0
  0
LINE
  5
4b5
100
AcDbEntity
  8
Layer_1
 62
7
100
AcDbLine
 10
168.135720
 20
158.395830
 30
0.0
 11
167.335720
 21
158.395830
 31
0.0
  0
LINE
  5
4b6
100
AcDbEntity
  8
Layer_1
 62
7
100
AcDbLine
 10
167.335720
 20
158.395830
 30
0.0
 11
167.335720
 21
155.495830
 31
0.0
  0
LINE
  5
4b7
100
AcDbEntity
  8
Layer_1
 62
7
100
AcDbLine
 10
167.335720
 20
155.495830
 30
0.0
 11
168.135720
 21
155.495830
 31
0.0
  0
LINE
  5
4b8
100
AcDbEntity
  8
Layer_1
 62
7
100
AcDbLine
 10
168.135720
 20
155.495830
 30
0.0
 11
168.135720
 21
154.495830
 31
0.0
  0
LINE
  5
4b9
100
AcDbEntity
  8
Layer_1
 62
7
100
AcDbLine
 10
168.135720
 20
154.495830
 30
0.0
 11
181.935720
 21
154.495830
 31
0.0
  0
LINE
  5
4ba
100
AcDbEntity
  8
Layer_1
 62
7
100
AcDbLine
 10
181.935720
 20
154.495830
 30
0.0
 11
181.935720
 21
155.495830
 31
0.0
  0
LINE
  5
4bb
100
AcDbEntity
  8
Layer_1
 62
7
100
AcDbLine
 10
181.935720
 20
155.495830
 30
0.0
 11
182.734720
 21
155.495830
 31
0.0
  0
LINE
  5
4bc
100
AcDbEntity
  8
Layer_1
 62
7
100
AcDbLine
 10
182.734720
 20
155.495830
 30
0.0
 11
182.734720
 21
158.395830
 31
0.0
  0
LINE
  5
4bd
100
AcDbEntity
  8
Layer_1
 62
7
100
AcDbLine
 10
182.734720
 20
158.395830
 30
0.0
 11
181.935720
 21
158.395830
 31
0.0
  0
LINE
  5
4be
100
AcDbEntity
  8
Layer_1
 62
7
100
AcDbLine
 10
181.935720
 20
158.395830
 30
0.0
 11
181.935720
 21
164.396830
 31
0.0
  0
LINE
  5
4bf
100
AcDbEntity
  8
Layer_1
 62
7
100
AcDbLine
 10
181.935720
 20
164.396830
 30
0.0
 11
182.734720
 21
164.396830
 31
0.0
  0
LINE
  5
4c0
100
AcDbEntity
  8
Layer_1
 62
7
100
AcDbLine
 10
182.734720
 20
164.396830
 30
0.0
 11
182.734720
 21
167.295830
 31
0.0
  0
LINE
  5
4c1
100
AcDbEntity
  8
Layer_1
 62
7
100
AcDbLine
 10
182.734720
 20
167.295830
 30
0.0
 11
181.935720
 21
167.295830
 31
0.0
  0
LINE
  5
4c2
100
AcDbEntity
  8
Layer_1
 62
7
100
AcDbLine
 10
181.935720
 20
167.295830
 30
0.0
 11
181.935720
 21
168.295830
 31
0.0
  0
LINE
  5
4c3
100
AcDbEntity
  8
Layer_1
 62
7
100
AcDbLine
 10
181.935720
 20
168.295830
 30
0.0
 11
168.135720
 21
168.295830
 31
0.0
  0
LINE
  5
4c4
100
AcDbEntity
  8
Layer_1
 62
7
100
AcDbLine
 10
187.185720
 20
168.295830
 30
0.0
 11
187.185720
 21
167.295830
 31
0.0
  0
LINE
  5
4c5
100
AcDbEntity
  8
Layer_1
 62
7
100
AcDbLine
 10
187.185720
 20
167.295830
 30
0.0
 11
186.385720
 21
167.295830
 31
0.0
  0
LINE
  5
4c6
100
AcDbEntity
  8
Layer_1
 62
7
100
AcDbLine
 10
186.385720
 20
167.295830
 30
0.0
 11
186.385720
 21
164.396830
 31
0.0
  0
LINE
  5
4c7
100
AcDbEntity
  8
Layer_1
 62
7
100
AcDbLine
 10
186.385720
 20
164.396830
 30
0.0
 11
187.185720
 21
164.396830
 31
0.0
  0
LINE
  5
4c8
100
AcDbEntity
  8
Layer_1
 62
7
100
AcDbLine
 10
187.185720
 20
164.396830
 30
0.0
 11
187.185720
 21
158.395830
 31
0.0
  0
LINE
  5
4c9
100
AcDbEntity
  8
Layer_1
 62
7
100
AcDbLine
 10
187.185720
 20
158.395830
 30
0.0
 11
186.385720
 21
158.395830
 31
0.0
  0
LINE
  5
4ca
100
AcDbEntity
  8
Layer_1
 62
7
100
AcDbLine
 10
186.385720
 20
158.395830
 30
0.0
 11
186.385720
 21
155.495830
 31
0.0
  0
LINE
  5
4cb
100
AcDbEntity
  8
Layer_1
 62
7
100
AcDbLine
 10
186.385720
 20
155.495830
 30
0.0
 11
187.185720
 21
155.495830
 31
0.0
  0
LINE
  5
4cc
100
AcDbEntity
  8
Layer_1
 62
7
100
AcDbLine
 10
187.185720
 20
155.495830
 30
0.0
 11
187.185720
 21
154.495830
 31
0.0
  0
LINE
  5
4cd
100
AcDbEntity
  8
Layer_1
 62
7
100
AcDbLine
 10
187.185720
 20
154.495830
 30
0.0
 11
200.985720
 21
154.495830
 31
0.0
  0
LINE
  5
4ce
100
AcDbEntity
  8
Layer_1
 62
7
100
AcDbLine
 10
200.985720
 20
154.495830
 30
0.0
 11
200.985720
 21
155.495830
 31
0.0
  0
LINE
  5
4cf
100
AcDbEntity
  8
Layer_1
 62
7
100
AcDbLine
 10
200.985720
 20
155.495830
 30
0.0
 11
201.785720
 21
155.495830
 31
0.0
  0
LINE
  5
4d0
100
AcDbEntity
  8
Layer_1
 62
7
100
AcDbLine
 10
201.785720
 20
155.495830
 30
0.0
 11
201.785720
 21
158.395830
 31
0.0
  0
LINE
  5
4d1
100
AcDbEntity
  8
Layer_1
 62
7
100
AcDbLine
 10
201.785720
 20
158.395830
 30
0.0
 11
200.985720
 21
158.395830
 31
0.0
  0
LINE
  5
4d2
100
AcDbEntity
  8
Layer_1
 62
7
100
AcDbLine
 10
200.985720
 20
158.395830
 30
0.0
 11
200.985720
 21
164.396830
 31
0.0
  0
LINE
  5
4d3
100
AcDbEntity
  8
Layer_1
 62
7
100
AcDbLine
 10
200.985720
 20
164.396830
 30
0.0
 11
201.785720
 21
164.396830
 31
0.0
  0
LINE
  5
4d4
100
AcDbEntity
  8
Layer_1
 62
7
100
AcDbLine
 10
201.785720
 20
164.396830
 30
0.0
 11
201.785720
 21
167.295830
 31
0.0
  0
LINE
  5
4d5
100
AcDbEntity
  8
Layer_1
 62
7
100
AcDbLine
 10
201.785720
 20
167.295830
 30
0.0
 11
200.985720
 21
167.295830
 31
0.0
  0
LINE
  5
4d6
100
AcDbEntity
  8
Layer_1
 62
7
100
AcDbLine
 10
200.985720
 20
167.295830
 30
0.0
 11
200.985720
 21
168.295830
 31
0.0
  0
LINE
  5
4d7
100
AcDbEntity
  8
Layer_1
 62
7
100
AcDbLine
 10
200.985720
 20
168.295830
 30
0.0
 11
187.185720
 21
168.295830
 31
0.0
  0
LINE
  5
4d8
100
AcDbEntity
  8
Layer_1
 62
7
100
AcDbLine
 10
206.235720
 20
168.295830
 30
0.0
 11
206.235720
 21
167.295830
 31
0.0
  0
LINE
  5
4d9
100
AcDbEntity
  8
Layer_1
 62
7
100
AcDbLine
 10
206.235720
 20
167.295830
 30
0.0
 11
205.435720
 21
167.295830
 31
0.0
  0
LINE
  5
4da
100
AcDbEntity
  8
Layer_1
 62
7
100
AcDbLine
 10
205.435720
 20
167.295830
 30
0.0
 11
205.435720
 21
164.396830
 31
0.0
  0
LINE
  5
4db
100
AcDbEntity
  8
Layer_1
 62
7
100
AcDbLine
 10
205.435720
 20
164.396830
 30
0.0
 11
206.235720
 21
164.396830
 31
0.0
  0
LINE
  5
4dc
100
AcDbEntity
  8
Layer_1
 62
7
100
AcDbLine
 10
206.235720
 20
164.396830
 30
0.0
 11
206.235720
 21
158.395830
 31
0.0
  0
LINE
  5
4dd
100
AcDbEntity
  8
Layer_1
 62
7
100
AcDbLine
 10
206.235720
 20
158.395830
 30
0.0
 11
205.435720
 21
158.395830
 31
0.0
  0
LINE
  5
4de
100
AcDbEntity
  8
Layer_1
 62
7
100
AcDbLine
 10
205.435720
 20
158.395830
 30
0.0
 11
205.435720
 21
155.495830
 31
0.0
  0
LINE
  5
4df
100
AcDbEntity
  8
Layer_1
 62
7
100
AcDbLine
 10
205.435720
 20
155.495830
 30
0.0
 11
206.235720
 21
155.495830
 31
0.0
  0
LINE
  5
4e0
100
AcDbEntity
  8
Layer_1
 62
7
100
AcDbLine
 10
206.235720
 20
155.495830
 30
0.0
 11
206.235720
 21
154.495830
 31
0.0
  0
LINE
  5
4e1
100
AcDbEntity
  8
Layer_1
 62
7
100
AcDbLine
 10
206.235720
 20
154.495830
 30
0.0
 11
220.035720
 21
154.495830
 31
0.0
  0
LINE
  5
4e2
100
AcDbEntity
  8
Layer_1
 62
7
100
AcDbLine
 10
220.035720
 20
154.495830
 30
0.0
 11
220.035720
 21
155.495830
 31
0.0
  0
LINE
  5
4e3
100
AcDbEntity
  8
Layer_1
 62
7
100
AcDbLine
 10
220.035720
 20
155.495830
 30
0.0
 11
220.835720
 21
155.495830
 31
0.0
  0
LINE
  5
4e4
100
AcDbEntity
  8
Layer_1
 62
7
100
AcDbLine
 10
220.835720
 20
155.495830
 30
0.0
 11
220.835720
 21
158.395830
 31
0.0
  0
LINE
  5
4e5
100
AcDbEntity
  8
Layer_1
 62
7
100
AcDbLine
 10
220.835720
 20
158.395830
 30
0.0
 11
220.035720
 21
158.395830
 31
0.0
  0
LINE
  5
4e6
100
AcDbEntity
  8
Layer_1
 62
7
100
AcDbLine
 10
220.035720
 20
158.395830
 30
0.0
 11
220.035720
 21
164.396830
 31
0.0
  0
LINE
  5
4e7
100
AcDbEntity
  8
Layer_1
 62
7
100
AcDbLine
 10
220.035720
 20
164.396830
 30
0.0
 11
220.835720
 21
164.396830
 31
0.0
  0
LINE
  5
4e8
100
AcDbEntity
  8
Layer_1
 62
7
100
AcDbLine
 10
220.835720
 20
164.396830
 30
0.0
 11
220.835720
 21
167.295830
 31
0.0
  0
LINE
  5
4e9
100
AcDbEntity
  8
Layer_1
 62
7
100
AcDbLine
 10
220.835720
 20
167.295830
 30
0.0
 11
220.035720
 21
167.295830
 31
0.0
  0
LINE
  5
4ea
100
AcDbEntity
  8
Layer_1
 62
7
100
AcDbLine
 10
220.035720
 20
167.295830
 30
0.0
 11
220.035720
 21
168.295830
 31
0.0
  0
LINE
  5
4eb
100
AcDbEntity
  8
Layer_1
 62
7
100
AcDbLine
 10
220.035720
 20
168.295830
 30
0.0
 11
206.235720
 21
168.295830
 31
0.0
  0
LINE
  5
4ec
100
AcDbEntity
  8
Layer_1
 62
7
100
AcDbLine
 10
34.785713
 20
196.870830
 30
0.0
 11
34.785713
 21
195.870840
 31
0.0
  0
LINE
  5
4ed
100
AcDbEntity
  8
Layer_1
 62
7
100
AcDbLine
 10
34.785713
 20
195.870840
 30
0.0
 11
33.985713
 21
195.870840
 31
0.0
  0
LINE
  5
4ee
100
AcDbEntity
  8
Layer_1
 62
7
100
AcDbLine
 10
33.985713
 20
195.870840
 30
0.0
 11
33.985713
 21
192.970830
 31
0.0
  0
LINE
  5
4ef
100
AcDbEntity
  8
Layer_1
 62
7
100
AcDbLine
 10
33.985713
 20
192.970830
 30
0.0
 11
34.785713
 21
192.970830
 31
0.0
  0
LINE
  5
4f0
100
AcDbEntity
  8
Layer_1
 62
7
100
AcDbLine
 10
34.785713
 20
192.970830
 30
0.0
 11
34.785713
 21
186.970830
 31
0.0
  0
LINE
  5
4f1
100
AcDbEntity
  8
Layer_1
 62
7
100
AcDbLine
 10
34.785713
 20
186.970830
 30
0.0
 11
33.985713
 21
186.970830
 31
0.0
  0
LINE
  5
4f2
100
AcDbEntity
  8
Layer_1
 62
7
100
AcDbLine
 10
33.985713
 20
186.970830
 30
0.0
 11
33.985713
 21
184.070830
 31
0.0
  0
LINE
  5
4f3
100
AcDbEntity
  8
Layer_1
 62
7
100
AcDbLine
 10
33.985713
 20
184.070830
 30
0.0
 11
34.785713
 21
184.070830
 31
0.0
  0
LINE
  5
4f4
100
AcDbEntity
  8
Layer_1
 62
7
100
AcDbLine
 10
34.785713
 20
184.070830
 30
0.0
 11
34.785713
 21
183.070830
 31
0.0
  0
LINE
  5
4f5
100
AcDbEntity
  8
Layer_1
 62
7
100
AcDbLine
 10
34.785713
 20
183.070830
 30
0.0
 11
48.585714
 21
183.070830
 31
0.0
  0
LINE
  5
4f6
100
AcDbEntity
  8
Layer_1
 62
7
100
AcDbLine
 10
48.585714
 20
183.070830
 30
0.0
 11
48.585714
 21
184.070830
 31
0.0
  0
LINE
  5
4f7
100
AcDbEntity
  8
Layer_1
 62
7
100
AcDbLine
 10
48.585714
 20
184.070830
 30
0.0
 11
49.385714
 21
184.070830
 31
0.0
  0
LINE
  5
4f8
100
AcDbEntity
  8
Layer_1
 62
7
100
AcDbLine
 10
49.385714
 20
184.070830
 30
0.0
 11
49.385714
 21
186.970830
 31
0.0
  0
LINE
  5
4f9
100
AcDbEntity
  8
Layer_1
 62
7
100
AcDbLine
 10
49.385714
 20
186.970830
 30
0.0
 11
48.585714
 21
186.970830
 31
0.0
  0
LINE
  5
4fa
100
AcDbEntity
  8
Layer_1
 62
7
100
AcDbLine
 10
48.585714
 20
186.970830
 30
0.0
 11
48.585714
 21
192.970830
 31
0.0
  0
LINE
  5
4fb
100
AcDbEntity
  8
Layer_1
 62
7
100
AcDbLine
 10
48.585714
 20
192.970830
 30
0.0
 11
49.385714
 21
192.970830
 31
0.0
  0
LINE
  5
4fc
100
AcDbEntity
  8
Layer_1
 62
7
100
AcDbLine
 10
49.385714
 20
192.970830
 30
0.0
 11
49.385714
 21
195.870840
 31
0.0
  0
LINE
  5
4fd
100
AcDbEntity
  8
Layer_1
 62
7
100
AcDbLine
 10
49.385714
 20
195.870840
 30
0.0
 11
48.585714
 21
195.870840
 31
0.0
  0
LINE
  5
4fe
100
AcDbEntity
  8
Layer_1
 62
7
100
AcDbLine
 10
48.585714
 20
195.870840
 30
0.0
 11
48.585714
 21
196.870830
 31
0.0
  0
LINE
  5
4ff
100
AcDbEntity
  8
Layer_1
 62
7
100
AcDbLine
 10
48.585714
 20
196.870830
 30
0.0
 11
34.785713
 21
196.870830
 31
0.0
  0
LINE
  5
500
100
AcDbEntity
  8
Layer_1
 62
7
100
AcDbLine
 10
53.835714
 20
196.870830
 30
0.0
 11
53.835714
 21
195.870840
 31
0.0
  0
LINE
  5
501
100
AcDbEntity
  8
Layer_1
 62
7
100
AcDbLine
 10
53.835714
 20
195.870840
 30
0.0
 11
53.034715
 21
195.870840
 31
0.0
  0
LINE
  5
502
100
AcDbEntity
  8
Layer_1
 62
7
100
AcDbLine
 10
53.034715
 20
195.870840
 30
0.0
 11
53.034715
 21
192.970830
 31
0.0
  0
LINE
  5
503
100
AcDbEntity
  8
Layer_1
 62
7
100
AcDbLine
 10
53.034715
 20
192.970830
 30
0.0
 11
53.835714
 21
192.970830
 31
0.0
  0
LINE
  5
504
100
AcDbEntity
  8
Layer_1
 62
7
100
AcDbLine
 10
53.835714
 20
192.970830
 30
0.0
 11
53.835714
 21
186.970830
 31
0.0
  0
LINE
  5
505
100
AcDbEntity
  8
Layer_1
 62
7
100
AcDbLine
 10
53.835714
 20
186.970830
 30
0.0
 11
53.034715
 21
186.970830
 31
0.0
  0
LINE
  5
506
100
AcDbEntity
  8
Layer_1
 62
7
100
AcDbLine
 10
53.034715
 20
186.970830
 30
0.0
 11
53.034715
 21
184.070830
 31
0.0
  0
LINE
  5
507
100
AcDbEntity
  8
Layer_1
 62
7
100
AcDbLine
 10
53.034715
 20
184.070830
 30
0.0
 11
53.835714
 21
184.070830
 31
0.0
  0
LINE
  5
508
100
AcDbEntity
  8
Layer_1
 62
7
100
AcDbLine
 10
53.835714
 20
184.070830
 30
0.0
 11
53.835714
 21
183.070830
 31
0.0
  0
LINE
  5
509
100
AcDbEntity
  8
Layer_1
 62
7
100
AcDbLine
 10
53.835714
 20
183.070830
 30
0.0
 11
67.634714
 21
183.070830
 31
0.0
  0
LINE
  5
50a
100
AcDbEntity
  8
Layer_1
 62
7
100
AcDbLine
 10
67.634714
 20
183.070830
 30
0.0
 11
67.634714
 21
184.070830
 31
0.0
  0
LINE
  5
50b
100
AcDbEntity
  8
Layer_1
 62
7
100
AcDbLine
 10
67.634714
 20
184.070830
 30
0.0
 11
68.435714
 21
184.070830
 31
0.0
  0
LINE
  5
50c
100
AcDbEntity
  8
Layer_1
 62
7
100
AcDbLine
 10
68.435714
 20
184.070830
 30
0.0
 11
68.435714
 21
186.970830
 31
0.0
  0
LINE
  5
50d
100
AcDbEntity
  8
Layer_1
 62
7
100
AcDbLine
 10
68.435714
 20
186.970830
 30
0.0
 11
67.634714
 21
186.970830
 31
0.0
  0
LINE
  5
50e
100
AcDbEntity
  8
Layer_1
 62
7
100
AcDbLine
 10
67.634714
 20
186.970830
 30
0.0
 11
67.634714
 21
192.970830
 31
0.0
  0
LINE
  5
50f
100
AcDbEntity
  8
Layer_1
 62
7
100
AcDbLine
 10
67.634714
 20
192.970830
 30
0.0
 11
68.435714
 21
192.970830
 31
0.0
  0
LINE
  5
510
100
AcDbEntity
  8
Layer_1
 62
7
100
AcDbLine
 10
68.435714
 20
192.970830
 30
0.0
 11
68.435714
 21
195.870840
 31
0.0
  0
LINE
  5
511
100
AcDbEntity
  8
Layer_1
 62
7
100
AcDbLine
 10
68.435714
 20
195.870840
 30
0.0
 11
67.634714
 21
195.870840
 31
0.0
  0
LINE
  5
512
100
AcDbEntity
  8
Layer_1
 62
7
100
AcDbLine
 10
67.634714
 20
195.870840
 30
0.0
 11
67.634714
 21
196.870830
 31
0.0
  0
LINE
  5
513
100
AcDbEntity
  8
Layer_1
 62
7
100
AcDbLine
 10
67.634714
 20
196.870830
 30
0.0
 11
53.835714
 21
196.870830
 31
0.0
  0
LINE
  5
514
100
AcDbEntity
  8
Layer_1
 62
7
100
AcDbLine
 10
72.884714
 20
196.870830
 30
0.0
 11
72.884714
 21
195.870840
 31
0.0
  0
LINE
  5
515
100
AcDbEntity
  8
Layer_1
 62
7
100
AcDbLine
 10
72.884714
 20
195.870840
 30
0.0
 11
72.084715
 21
195.870840
 31
0.0
  0
LINE
  5
516
100
AcDbEntity
  8
Layer_1
 62
7
100
AcDbLine
 10
72.084715
 20
195.870840
 30
0.0
 11
72.084715
 21
192.970830
 31
0.0
  0
LINE
  5
517
100
AcDbEntity
  8
Layer_1
 62
7
100
AcDbLine
 10
72.084715
 20
192.970830
 30
0.0
 11
72.884714
 21
192.970830
 31
0.0
  0
LINE
  5
518
100
AcDbEntity
  8
Layer_1
 62
7
100
AcDbLine
 10
72.884714
 20
192.970830
 30
0.0
 11
72.884714
 21
186.970830
 31
0.0
  0
LINE
  5
519
100
AcDbEntity
  8
Layer_1
 62
7
100
AcDbLine
 10
72.884714
 20
186.970830
 30
0.0
 11
72.084715
 21
186.970830
 31
0.0
  0
LINE
  5
51a
100
AcDbEntity
  8
Layer_1
 62
7
100
AcDbLine
 10
72.084715
 20
186.970830
 30
0.0
 11
72.084715
 21
184.070830
 31
0.0
  0
LINE
  5
51b
100
AcDbEntity
  8
Layer_1
 62
7
100
AcDbLine
 10
72.084715
 20
184.070830
 30
0.0
 11
72.884714
 21
184.070830
 31
0.0
  0
LINE
  5
51c
100
AcDbEntity
  8
Layer_1
 62
7
100
AcDbLine
 10
72.884714
 20
184.070830
 30
0.0
 11
72.884714
 21
183.070830
 31
0.0
  0
LINE
  5
51d
100
AcDbEntity
  8
Layer_1
 62
7
100
AcDbLine
 10
72.884714
 20
183.070830
 30
0.0
 11
86.685714
 21
183.070830
 31
0.0
  0
LINE
  5
51e
100
AcDbEntity
  8
Layer_1
 62
7
100
AcDbLine
 10
86.685714
 20
183.070830
 30
0.0
 11
86.685714
 21
184.070830
 31
0.0
  0
LINE
  5
51f
100
AcDbEntity
  8
Layer_1
 62
7
100
AcDbLine
 10
86.685714
 20
184.070830
 30
0.0
 11
87.485714
 21
184.070830
 31
0.0
  0
LINE
  5
520
100
AcDbEntity
  8
Layer_1
 62
7
100
AcDbLine
 10
87.485714
 20
184.070830
 30
0.0
 11
87.485714
 21
186.970830
 31
0.0
  0
LINE
  5
521
100
AcDbEntity
  8
Layer_1
 62
7
100
AcDbLine
 10
87.485714
 20
186.970830
 30
0.0
 11
86.685714
 21
186.970830
 31
0.0
  0
LINE
  5
522
100
AcDbEntity
  8
Layer_1
 62
7
100
AcDbLine
 10
86.685714
 20
186.970830
 30
0.0
 11
86.685714
 21
192.970830
 31
0.0
  0
LINE
  5
523
100
AcDbEntity
  8
Layer_1
 62
7
100
AcDbLine
 10
86.685714
 20
192.970830
 30
0.0
 11
87.485714
 21
192.970830
 31
0.0
  0
LINE
  5
524
100
AcDbEntity
  8
Layer_1
 62
7
100
AcDbLine
 10
87.485714
 20
192.970830
 30
0.0
 11
87.485714
 21
195.870840
 31
0.0
  0
LINE
  5
525
100
AcDbEntity
  8
Layer_1
 62
7
100
AcDbLine
 10
87.485714
 20
195.870840
 30
0.0
 11
86.685714
 21
195.870840
 31
0.0
  0
LINE
  5
526
100
AcDbEntity
  8
Layer_1
 62
7
100
AcDbLine
 10
86.685714
 20
195.870840
 30
0.0
 11
86.685714
 21
196.870830
 31
0.0
  0
LINE
  5
527
100
AcDbEntity
  8
Layer_1
 62
7
100
AcDbLine
 10
86.685714
 20
196.870830
 30
0.0
 11
72.884714
 21
196.870830
 31
0.0
  0
LINE
  5
528
100
AcDbEntity
  8
Layer_1
 62
7
100
AcDbLine
 10
91.934714
 20
196.870830
 30
0.0
 11
91.934714
 21
195.870840
 31
0.0
  0
LINE
  5
529
100
AcDbEntity
  8
Layer_1
 62
7
100
AcDbLine
 10
91.934714
 20
195.870840
 30
0.0
 11
91.134715
 21
195.870840
 31
0.0
  0
LINE
  5
52a
100
AcDbEntity
  8
Layer_1
 62
7
100
AcDbLine
 10
91.134715
 20
195.870840
 30
0.0
 11
91.134715
 21
192.970830
 31
0.0
  0
LINE
  5
52b
100
AcDbEntity
  8
Layer_1
 62
7
100
AcDbLine
 10
91.134715
 20
192.970830
 30
0.0
 11
91.934714
 21
192.970830
 31
0.0
  0
LINE
  5
52c
100
AcDbEntity
  8
Layer_1
 62
7
100
AcDbLine
 10
91.934714
 20
192.970830
 30
0.0
 11
91.934714
 21
186.970830
 31
0.0
  0
LINE
  5
52d
100
AcDbEntity
  8
Layer_1
 62
7
100
AcDbLine
 10
91.934714
 20
186.970830
 30
0.0
 11
91.134715
 21
186.970830
 31
0.0
  0
LINE
  5
52e
100
AcDbEntity
  8
Layer_1
 62
7
100
AcDbLine
 10
91.134715
 20
186.970830
 30
0.0
 11
91.134715
 21
184.070830
 31
0.0
  0
LINE
  5
52f
100
AcDbEntity
  8
Layer_1
 62
7
100
AcDbLine
 10
91.134715
 20
184.070830
 30
0.0
 11
91.934714
 21
184.070830
 31
0.0
  0
LINE
  5
530
100
AcDbEntity
  8
Layer_1
 62
7
100
AcDbLine
 10
91.934714
 20
184.070830
 30
0.0
 11
91.934714
 21
183.070830
 31
0.0
  0
LINE
  5
531
100
AcDbEntity
  8
Layer_1
 62
7
100
AcDbLine
 10
91.934714
 20
183.070830
 30
0.0
 11
105.735710
 21
183.070830
 31
0.0
  0
LINE
  5
532
100
AcDbEntity
  8
Layer_1
 62
7
100
AcDbLine
 10
105.735710
 20
183.070830
 30
0.0
 11
105.735710
 21
184.070830
 31
0.0
  0
LINE
  5
533
100
AcDbEntity
  8
Layer_1
 62
7
100
AcDbLine
 10
105.735710
 20
184.070830
 30
0.0
 11
106.535710
 21
184.070830
 31
0.0
  0
LINE
  5
534
100
AcDbEntity
  8
Layer_1
 62
7
100
AcDbLine
 10
106.535710
 20
184.070830
 30
0.0
 11
106.535710
 21
186.970830
 31
0.0
  0
LINE
  5
535
100
AcDbEntity
  8
Layer_1
 62
7
100
AcDbLine
 10
106.535710
 20
186.970830
 30
0.0
 11
105.735710
 21
186.970830
 31
0.0
  0
LINE
  5
536
100
AcDbEntity
  8
Layer_1
 62
7
100
AcDbLine
 10
105.735710
 20
186.970830
 30
0.0
 11
105.735710
 21
192.970830
 31
0.0
  0
LINE
  5
537
100
AcDbEntity
  8
Layer_1
 62
7
100
AcDbLine
 10
105.735710
 20
192.970830
 30
0.0
 11
106.535710
 21
192.970830
 31
0.0
  0
LINE
  5
538
100
AcDbEntity
  8
Layer_1
 62
7
100
AcDbLine
 10
106.535710
 20
192.970830
 30
0.0
 11
106.535710
 21
195.870840
 31
0.0
  0
LINE
  5
539
100
AcDbEntity
  8
Layer_1
 62
7
100
AcDbLine
 10
106.535710
 20
195.870840
 30
0.0
 11
105.735710
 21
195.870840
 31
0.0
  0
LINE
  5
53a
100
AcDbEntity
  8
Layer_1
 62
7
100
AcDbLine
 10
105.735710
 20
195.870840
 30
0.0
 11
105.735710
 21
196.870830
 31
0.0
  0
LINE
  5
53b
100
AcDbEntity
  8
Layer_1
 62
7
100
AcDbLine
 10
105.735710
 20
196.870830
 30
0.0
 11
91.934714
 21
196.870830
 31
0.0
  0
LINE
  5
53c
100
AcDbEntity
  8
Layer_1
 62
7
100
AcDbLine
 10
110.984710
 20
196.870830
 30
0.0
 11
110.984710
 21
195.870840
 31
0.0
  0
LINE
  5
53d
100
AcDbEntity
  8
Layer_1
 62
7
100
AcDbLine
 10
110.984710
 20
195.870840
 30
0.0
 11
110.184720
 21
195.870840
 31
0.0
  0
LINE
  5
53e
100
AcDbEntity
  8
Layer_1
 62
7
100
AcDbLine
 10
110.184720
 20
195.870840
 30
0.0
 11
110.184720
 21
192.970830
 31
0.0
  0
LINE
  5
53f
100
AcDbEntity
  8
Layer_1
 62
7
100
AcDbLine
 10
110.184720
 20
192.970830
 30
0.0
 11
110.984710
 21
192.970830
 31
0.0
  0
LINE
  5
540
100
AcDbEntity
  8
Layer_1
 62
7
100
AcDbLine
 10
110.984710
 20
192.970830
 30
0.0
 11
110.984710
 21
186.970830
 31
0.0
  0
LINE
  5
541
100
AcDbEntity
  8
Layer_1
 62
7
100
AcDbLine
 10
110.984710
 20
186.970830
 30
0.0
 11
110.184720
 21
186.970830
 31
0.0
  0
LINE
  5
542
100
AcDbEntity
  8
Layer_1
 62
7
100
AcDbLine
 10
110.184720
 20
186.970830
 30
0.0
 11
110.184720
 21
184.070830
 31
0.0
  0
LINE
  5
543
100
AcDbEntity
  8
Layer_1
 62
7
100
AcDbLine
 10
110.184720
 20
184.070830
 30
0.0
 11
110.984710
 21
184.070830
 31
0.0
  0
LINE
  5
544
100
AcDbEntity
  8
Layer_1
 62
7
100
AcDbLine
 10
110.984710
 20
184.070830
 30
0.0
 11
110.984710
 21
183.070830
 31
0.0
  0
LINE
  5
545
100
AcDbEntity
  8
Layer_1
 62
7
100
AcDbLine
 10
110.984710
 20
183.070830
 30
0.0
 11
124.785720
 21
183.070830
 31
0.0
  0
LINE
  5
546
100
AcDbEntity
  8
Layer_1
 62
7
100
AcDbLine
 10
124.785720
 20
183.070830
 30
0.0
 11
124.785720
 21
184.070830
 31
0.0
  0
LINE
  5
547
100
AcDbEntity
  8
Layer_1
 62
7
100
AcDbLine
 10
124.785720
 20
184.070830
 30
0.0
 11
125.584720
 21
184.070830
 31
0.0
  0
LINE
  5
548
100
AcDbEntity
  8
Layer_1
 62
7
100
AcDbLine
 10
125.584720
 20
184.070830
 30
0.0
 11
125.584720
 21
186.970830
 31
0.0
  0
LINE
  5
549
100
AcDbEntity
  8
Layer_1
 62
7
100
AcDbLine
 10
125.584720
 20
186.970830
 30
0.0
 11
124.785720
 21
186.970830
 31
0.0
  0
LINE
  5
54a
100
AcDbEntity
  8
Layer_1
 62
7
100
AcDbLine
 10
124.785720
 20
186.970830
 30
0.0
 11
124.785720
 21
192.970830
 31
0.0
  0
LINE
  5
54b
100
AcDbEntity
  8
Layer_1
 62
7
100
AcDbLine
 10
124.785720
 20
192.970830
 30
0.0
 11
125.584720
 21
192.970830
 31
0.0
  0
LINE
  5
54c
100
AcDbEntity
  8
Layer_1
 62
7
100
AcDbLine
 10
125.584720
 20
192.970830
 30
0.0
 11
125.584720
 21
195.870840
 31
0.0
  0
LINE
  5
54d
100
AcDbEntity
  8
Layer_1
 62
7
100
AcDbLine
 10
125.584720
 20
195.870840
 30
0.0
 11
124.785720
 21
195.870840
 31
0.0
  0
LINE
  5
54e
100
AcDbEntity
  8
Layer_1
 62
7
100
AcDbLine
 10
124.785720
 20
195.870840
 30
0.0
 11
124.785720
 21
196.870830
 31
0.0
  0
LINE
  5
54f
100
AcDbEntity
  8
Layer_1
 62
7
100
AcDbLine
 10
124.785720
 20
196.870830
 30
0.0
 11
110.984710
 21
196.870830
 31
0.0
  0
LINE
  5
550
100
AcDbEntity
  8
Layer_1
 62
7
100
AcDbLine
 10
130.034720
 20
196.870830
 30
0.0
 11
130.034720
 21
195.870840
 31
0.0
  0
LINE
  5
551
100
AcDbEntity
  8
Layer_1
 62
7
100
AcDbLine
 10
130.034720
 20
195.870840
 30
0.0
 11
129.234720
 21
195.870840
 31
0.0
  0
LINE
  5
552
100
AcDbEntity
  8
Layer_1
 62
7
100
AcDbLine
 10
129.234720
 20
195.870840
 30
0.0
 11
129.234720
 21
192.970830
 31
0.0
  0
LINE
  5
553
100
AcDbEntity
  8
Layer_1
 62
7
100
AcDbLine
 10
129.234720
 20
192.970830
 30
0.0
 11
130.034720
 21
192.970830
 31
0.0
  0
LINE
  5
554
100
AcDbEntity
  8
Layer_1
 62
7
100
AcDbLine
 10
130.034720
 20
192.970830
 30
0.0
 11
130.034720
 21
186.970830
 31
0.0
  0
LINE
  5
555
100
AcDbEntity
  8
Layer_1
 62
7
100
AcDbLine
 10
130.034720
 20
186.970830
 30
0.0
 11
129.234720
 21
186.970830
 31
0.0
  0
LINE
  5
556
100
AcDbEntity
  8
Layer_1
 62
7
100
AcDbLine
 10
129.234720
 20
186.970830
 30
0.0
 11
129.234720
 21
184.070830
 31
0.0
  0
LINE
  5
557
100
AcDbEntity
  8
Layer_1
 62
7
100
AcDbLine
 10
129.234720
 20
184.070830
 30
0.0
 11
130.034720
 21
184.070830
 31
0.0
  0
LINE
  5
558
100
AcDbEntity
  8
Layer_1
 62
7
100
AcDbLine
 10
130.034720
 20
184.070830
 30
0.0
 11
130.034720
 21
183.070830
 31
0.0
  0
LINE
  5
559
100
AcDbEntity
  8
Layer_1
 62
7
100
AcDbLine
 10
130.034720
 20
183.070830
 30
0.0
 11
143.834720
 21
183.070830
 31
0.0
  0
LINE
  5
55a
100
AcDbEntity
  8
Layer_1
 62
7
100
AcDbLine
 10
143.834720
 20
183.070830
 30
0.0
 11
143.834720
 21
184.070830
 31
0.0
  0
LINE
  5
55b
100
AcDbEntity
  8
Layer_1
 62
7
100
AcDbLine
 10
143.834720
 20
184.070830
 30
0.0
 11
144.635720
 21
184.070830
 31
0.0
  0
LINE
  5
55c
100
AcDbEntity
  8
Layer_1
 62
7
100
AcDbLine
 10
144.635720
 20
184.070830
 30
0.0
 11
144.635720
 21
186.970830
 31
0.0
  0
LINE
  5
55d
100
AcDbEntity
  8
Layer_1
 62
7
100
AcDbLine
 10
144.635720
 20
186.970830
 30
0.0
 11
143.834720
 21
186.970830
 31
0.0
  0
LINE
  5
55e
100
AcDbEntity
  8
Layer_1
 62
7
100
AcDbLine
 10
143.834720
 20
186.970830
 30
0.0
 11
143.834720
 21
192.970830
 31
0.0
  0
LINE
  5
55f
100
AcDbEntity
  8
Layer_1
 62
7
100
AcDbLine
 10
143.834720
 20
192.970830
 30
0.0
 11
144.635720
 21
192.970830
 31
0.0
  0
LINE
  5
560
100
AcDbEntity
  8
Layer_1
 62
7
100
AcDbLine
 10
144.635720
 20
192.970830
 30
0.0
 11
144.635720
 21
195.870840
 31
0.0
  0
LINE
  5
561
100
AcDbEntity
  8
Layer_1
 62
7
100
AcDbLine
 10
144.635720
 20
195.870840
 30
0.0
 11
143.834720
 21
195.870840
 31
0.0
  0
LINE
  5
562
100
AcDbEntity
  8
Layer_1
 62
7
100
AcDbLine
 10
143.834720
 20
195.870840
 30
0.0
 11
143.834720
 21
196.870830
 31
0.0
  0
LINE
  5
563
100
AcDbEntity
  8
Layer_1
 62
7
100
AcDbLine
 10
143.834720
 20
196.870830
 30
0.0
 11
130.034720
 21
196.870830
 31
0.0
  0
LINE
  5
564
100
AcDbEntity
  8
Layer_1
 62
7
100
AcDbLine
 10
149.084720
 20
196.870830
 30
0.0
 11
149.084720
 21
195.870840
 31
0.0
  0
LINE
  5
565
100
AcDbEntity
  8
Layer_1
 62
7
100
AcDbLine
 10
149.084720
 20
195.870840
 30
0.0
 11
148.285720
 21
195.870840
 31
0.0
  0
LINE
  5
566
100
AcDbEntity
  8
Layer_1
 62
7
100
AcDbLine
 10
148.285720
 20
195.870840
 30
0.0
 11
148.285720
 21
192.970830
 31
0.0
  0
LINE
  5
567
100
AcDbEntity
  8
Layer_1
 62
7
100
AcDbLine
 10
148.285720
 20
192.970830
 30
0.0
 11
149.084720
 21
192.970830
 31
0.0
  0
LINE
  5
568
100
AcDbEntity
  8
Layer_1
 62
7
100
AcDbLine
 10
149.084720
 20
192.970830
 30
0.0
 11
149.084720
 21
186.970830
 31
0.0
  0
LINE
  5
569
100
AcDbEntity
  8
Layer_1
 62
7
100
AcDbLine
 10
149.084720
 20
186.970830
 30
0.0
 11
148.285720
 21
186.970830
 31
0.0
  0
LINE
  5
56a
100
AcDbEntity
  8
Layer_1
 62
7
100
AcDbLine
 10
148.285720
 20
186.970830
 30
0.0
 11
148.285720
 21
184.070830
 31
0.0
  0
LINE
  5
56b
100
AcDbEntity
  8
Layer_1
 62
7
100
AcDbLine
 10
148.285720
 20
184.070830
 30
0.0
 11
149.084720
 21
184.070830
 31
0.0
  0
LINE
  5
56c
100
AcDbEntity
  8
Layer_1
 62
7
100
AcDbLine
 10
149.084720
 20
184.070830
 30
0.0
 11
149.084720
 21
183.070830
 31
0.0
  0
LINE
  5
56d
100
AcDbEntity
  8
Layer_1
 62
7
100
AcDbLine
 10
149.084720
 20
183.070830
 30
0.0
 11
162.885720
 21
183.070830
 31
0.0
  0
LINE
  5
56e
100
AcDbEntity
  8
Layer_1
 62
7
100
AcDbLine
 10
162.885720
 20
183.070830
 30
0.0
 11
162.885720
 21
184.070830
 31
0.0
  0
LINE
  5
56f
100
AcDbEntity
  8
Layer_1
 62
7
100
AcDbLine
 10
162.885720
 20
184.070830
 30
0.0
 11
163.684720
 21
184.070830
 31
0.0
  0
LINE
  5
570
100
AcDbEntity
  8
Layer_1
 62
7
100
AcDbLine
 10
163.684720
 20
184.070830
 30
0.0
 11
163.684720
 21
186.970830
 31
0.0
  0
LINE
  5
571
100
AcDbEntity
  8
Layer_1
 62
7
100
AcDbLine
 10
163.684720
 20
186.970830
 30
0.0
 11
162.885720
 21
186.970830
 31
0.0
  0
LINE
  5
572
100
AcDbEntity
  8
Layer_1
 62
7
100
AcDbLine
 10
162.885720
 20
186.970830
 30
0.0
 11
162.885720
 21
192.970830
 31
0.0
  0
LINE
  5
573
100
AcDbEntity
  8
Layer_1
 62
7
100
AcDbLine
 10
162.885720
 20
192.970830
 30
0.0
 11
163.684720
 21
192.970830
 31
0.0
  0
LINE
  5
574
100
AcDbEntity
  8
Layer_1
 62
7
100
AcDbLine
 10
163.684720
 20
192.970830
 30
0.0
 11
163.684720
 21
195.870840
 31
0.0
  0
LINE
  5
575
100
AcDbEntity
  8
Layer_1
 62
7
100
AcDbLine
 10
163.684720
 20
195.870840
 30
0.0
 11
162.885720
 21
195.870840
 31
0.0
  0
LINE
  5
576
100
AcDbEntity
  8
Layer_1
 62
7
100
AcDbLine
 10
162.885720
 20
195.870840
 30
0.0
 11
162.885720
 21
196.870830
 31
0.0
  0
LINE
  5
577
100
AcDbEntity
  8
Layer_1
 62
7
100
AcDbLine
 10
162.885720
 20
196.870830
 30
0.0
 11
149.084720
 21
196.870830
 31
0.0
  0
LINE
  5
578
100
AcDbEntity
  8
Layer_1
 62
7
100
AcDbLine
 10
168.135720
 20
196.870830
 30
0.0
 11
168.135720
 21
195.870840
 31
0.0
  0
LINE
  5
579
100
AcDbEntity
  8
Layer_1
 62
7
100
AcDbLine
 10
168.135720
 20
195.870840
 30
0.0
 11
167.335720
 21
195.870840
 31
0.0
  0
LINE
  5
57a
100
AcDbEntity
  8
Layer_1
 62
7
100
AcDbLine
 10
167.335720
 20
195.870840
 30
0.0
 11
167.335720
 21
192.970830
 31
0.0
  0
LINE
  5
57b
100
AcDbEntity
  8
Layer_1
 62
7
100
AcDbLine
 10
167.335720
 20
192.970830
 30
0.0
 11
168.135720
 21
192.970830
 31
0.0
  0
LINE
  5
57c
100
AcDbEntity
  8
Layer_1
 62
7
100
AcDbLine
 10
168.135720
 20
192.970830
 30
0.0
 11
168.135720
 21
186.970830
 31
0.0
  0
LINE
  5
57d
100
AcDbEntity
  8
Layer_1
 62
7
100
AcDbLine
 10
168.135720
 20
186.970830
 30
0.0
 11
167.335720
 21
186.970830
 31
0.0
  0
LINE
  5
57e
100
AcDbEntity
  8
Layer_1
 62
7
100
AcDbLine
 10
167.335720
 20
186.970830
 30
0.0
 11
167.335720
 21
184.070830
 31
0.0
  0
LINE
  5
57f
100
AcDbEntity
  8
Layer_1
 62
7
100
AcDbLine
 10
167.335720
 20
184.070830
 30
0.0
 11
168.135720
 21
184.070830
 31
0.0
  0
LINE
  5
580
100
AcDbEntity
  8
Layer_1
 62
7
100
AcDbLine
 10
168.135720
 20
184.070830
 30
0.0
 11
168.135720
 21
183.070830
 31
0.0
  0
LINE
  5
581
100
AcDbEntity
  8
Layer_1
 62
7
100
AcDbLine
 10
168.135720
 20
183.070830
 30
0.0
 11
181.935720
 21
183.070830
 31
0.0
  0
LINE
  5
582
100
AcDbEntity
  8
Layer_1
 62
7
100
AcDbLine
 10
181.935720
 20
183.070830
 30
0.0
 11
181.935720
 21
184.070830
 31
0.0
  0
LINE
  5
583
100
AcDbEntity
  8
Layer_1
 62
7
100
AcDbLine
 10
181.935720
 20
184.070830
 30
0.0
 11
182.734720
 21
184.070830
 31
0.0
  0
LINE
  5
584
100
AcDbEntity
  8
Layer_1
 62
7
100
AcDbLine
 10
182.734720
 20
184.070830
 30
0.0
 11
182.734720
 21
186.970830
 31
0.0
  0
LINE
  5
585
100
AcDbEntity
  8
Layer_1
 62
7
100
AcDbLine
 10
182.734720
 20
186.970830
 30
0.0
 11
181.935720
 21
186.970830
 31
0.0
  0
LINE
  5
586
100
AcDbEntity
  8
Layer_1
 62
7
100
AcDbLine
 10
181.935720
 20
186.970830
 30
0.0
 11
181.935720
 21
192.970830
 31
0.0
  0
LINE
  5
587
100
AcDbEntity
  8
Layer_1
 62
7
100
AcDbLine
 10
181.935720
 20
192.970830
 30
0.0
 11
182.734720
 21
192.970830
 31
0.0
  0
LINE
  5
588
100
AcDbEntity
  8
Layer_1
 62
7
100
AcDbLine
 10
182.734720
 20
192.970830
 30
0.0
 11
182.734720
 21
195.870840
 31
0.0
  0
LINE
  5
589
100
AcDbEntity
  8
Layer_1
 62
7
100
AcDbLine
 10
182.734720
 20
195.870840
 30
0.0
 11
181.935720
 21
195.870840
 31
0.0
  0
LINE
  5
58a
100
AcDbEntity
  8
Layer_1
 62
7
100
AcDbLine
 10
181.935720
 20
195.870840
 30
0.0
 11
181.935720
 21
196.870830
 31
0.0
  0
LINE
  5
58b
100
AcDbEntity
  8
Layer_1
 62
7
100
AcDbLine
 10
181.935720
 20
196.870830
 30
0.0
 11
168.135720
 21
196.870830
 31
0.0
  0
LINE
  5
58c
100
AcDbEntity
  8
Layer_1
 62
7
100
AcDbLine
 10
187.185720
 20
196.870830
 30
0.0
 11
187.185720
 21
195.870840
 31
0.0
  0
LINE
  5
58d
100
AcDbEntity
  8
Layer_1
 62
7
100
AcDbLine
 10
187.185720
 20
195.870840
 30
0.0
 11
186.385720
 21
195.870840
 31
0.0
  0
LINE
  5
58e
100
AcDbEntity
  8
Layer_1
 62
7
100
AcDbLine
 10
186.385720
 20
195.870840
 30
0.0
 11
186.385720
 21
192.970830
 31
0.0
  0
LINE
  5
58f
100
AcDbEntity
  8
Layer_1
 62
7
100
AcDbLine
 10
186.385720
 20
192.970830
 30
0.0
 11
187.185720
 21
192.970830
 31
0.0
  0
LINE
  5
590
100
AcDbEntity
  8
Layer_1
 62
7
100
AcDbLine
 10
187.185720
 20
192.970830
 30
0.0
 11
187.185720
 21
186.970830
 31
0.0
  0
LINE
  5
591
100
AcDbEntity
  8
Layer_1
 62
7
100
AcDbLine
 10
187.185720
 20
186.970830
 30
0.0
 11
186.385720
 21
186.970830
 31
0.0
  0
LINE
  5
592
100
AcDbEntity
  8
Layer_1
 62
7
100
AcDbLine
 10
186.385720
 20
186.970830
 30
0.0
 11
186.385720
 21
184.070830
 31
0.0
  0
LINE
  5
593
100
AcDbEntity
  8
Layer_1
 62
7
100
AcDbLine
 10
186.385720
 20
184.070830
 30
0.0
 11
187.185720
 21
184.070830
 31
0.0
  0
LINE
  5
594
100
AcDbEntity
  8
Layer_1
 62
7
100
AcDbLine
 10
187.185720
 20
184.070830
 30
0.0
 11
187.185720
 21
183.070830
 31
0.0
  0
LINE
  5
595
100
AcDbEntity
  8
Layer_1
 62
7
100
AcDbLine
 10
187.185720
 20
183.070830
 30
0.0
 11
200.985720
 21
183.070830
 31
0.0
  0
LINE
  5
596
100
AcDbEntity
  8
Layer_1
 62
7
100
AcDbLine
 10
200.985720
 20
183.070830
 30
0.0
 11
200.985720
 21
184.070830
 31
0.0
  0
LINE
  5
597
100
AcDbEntity
  8
Layer_1
 62
7
100
AcDbLine
 10
200.985720
 20
184.070830
 30
0.0
 11
201.785720
 21
184.070830
 31
0.0
  0
LINE
  5
598
100
AcDbEntity
  8
Layer_1
 62
7
100
AcDbLine
 10
201.785720
 20
184.070830
 30
0.0
 11
201.785720
 21
186.970830
 31
0.0
  0
LINE
  5
599
100
AcDbEntity
  8
Layer_1
 62
7
100
AcDbLine
 10
201.785720
 20
186.970830
 30
0.0
 11
200.985720
 21
186.970830
 31
0.0
  0
LINE
  5
59a
100
AcDbEntity
  8
Layer_1
 62
7
100
AcDbLine
 10
200.985720
 20
186.970830
 30
0.0
 11
200.985720
 21
192.970830
 31
0.0
  0
LINE
  5
59b
100
AcDbEntity
  8
Layer_1
 62
7
100
AcDbLine
 10
200.985720
 20
192.970830
 30
0.0
 11
201.785720
 21
192.970830
 31
0.0
  0
LINE
  5
59c
100
AcDbEntity
  8
Layer_1
 62
7
100
AcDbLine
 10
201.785720
 20
192.970830
 30
0.0
 11
201.785720
 21
195.870840
 31
0.0
  0
LINE
  5
59d
100
AcDbEntity
  8
Layer_1
 62
7
100
AcDbLine
 10
201.785720
 20
195.870840
 30
0.0
 11
200.985720
 21
195.870840
 31
0.0
  0
LINE
  5
59e
100
AcDbEntity
  8
Layer_1
 62
7
100
AcDbLine
 10
200.985720
 20
195.870840
 30
0.0
 11
200.985720
 21
196.870830
 31
0.0
  0
LINE
  5
59f
100
AcDbEntity
  8
Layer_1
 62
7
100
AcDbLine
 10
200.985720
 20
196.870830
 30
0.0
 11
187.185720
 21
196.870830
 31
0.0
  0
LINE
  5
5a0
100
AcDbEntity
  8
Layer_1
 62
7
100
AcDbLine
 10
206.235720
 20
196.870830
 30
0.0
 11
206.235720
 21
195.870840
 31
0.0
  0
LINE
  5
5a1
100
AcDbEntity
  8
Layer_1
 62
7
100
AcDbLine
 10
206.235720
 20
195.870840
 30
0.0
 11
205.435720
 21
195.870840
 31
0.0
  0
LINE
  5
5a2
100
AcDbEntity
  8
Layer_1
 62
7
100
AcDbLine
 10
205.435720
 20
195.870840
 30
0.0
 11
205.435720
 21
192.970830
 31
0.0
  0
LINE
  5
5a3
100
AcDbEntity
  8
Layer_1
 62
7
100
AcDbLine
 10
205.435720
 20
192.970830
 30
0.0
 11
206.235720
 21
192.970830
 31
0.0
  0
LINE
  5
5a4
100
AcDbEntity
  8
Layer_1
 62
7
100
AcDbLine
 10
206.235720
 20
192.970830
 30
0.0
 11
206.235720
 21
186.970830
 31
0.0
  0
LINE
  5
5a5
100
AcDbEntity
  8
Layer_1
 62
7
100
AcDbLine
 10
206.235720
 20
186.970830
 30
0.0
 11
205.435720
 21
186.970830
 31
0.0
  0
LINE
  5
5a6
100
AcDbEntity
  8
Layer_1
 62
7
100
AcDbLine
 10
205.435720
 20
186.970830
 30
0.0
 11
205.435720
 21
184.070830
 31
0.0
  0
LINE
  5
5a7
100
AcDbEntity
  8
Layer_1
 62
7
100
AcDbLine
 10
205.435720
 20
184.070830
 30
0.0
 11
206.235720
 21
184.070830
 31
0.0
  0
LINE
  5
5a8
100
AcDbEntity
  8
Layer_1
 62
7
100
AcDbLine
 10
206.235720
 20
184.070830
 30
0.0
 11
206.235720
 21
183.070830
 31
0.0
  0
LINE
  5
5a9
100
AcDbEntity
  8
Layer_1
 62
7
100
AcDbLine
 10
206.235720
 20
183.070830
 30
0.0
 11
220.035720
 21
183.070830
 31
0.0
  0
LINE
  5
5aa
100
AcDbEntity
  8
Layer_1
 62
7
100
AcDbLine
 10
220.035720
 20
183.070830
 30
0.0
 11
220.035720
 21
184.070830
 31
0.0
  0
LINE
  5
5ab
100
AcDbEntity
  8
Layer_1
 62
7
100
AcDbLine
 10
220.035720
 20
184.070830
 30
0.0
 11
220.835720
 21
184.070830
 31
0.0
  0
LINE
  5
5ac
100
AcDbEntity
  8
Layer_1
 62
7
100
AcDbLine
 10
220.835720
 20
184.070830
 30
0.0
 11
220.835720
 21
186.970830
 31
0.0
  0
LINE
  5
5ad
100
AcDbEntity
  8
Layer_1
 62
7
100
AcDbLine
 10
220.835720
 20
186.970830
 30
0.0
 11
220.035720
 21
186.970830
 31
0.0
  0
LINE
  5
5ae
100
AcDbEntity
  8
Layer_1
 62
7
100
AcDbLine
 10
220.035720
 20
186.970830
 30
0.0
 11
220.035720
 21
192.970830
 31
0.0
  0
LINE
  5
5af
100
AcDbEntity
  8
Layer_1
 62
7
100
AcDbLine
 10
220.035720
 20
192.970830
 30
0.0
 11
220.835720
 21
192.970830
 31
0.0
  0
LINE
  5
5b0
100
AcDbEntity
  8
Layer_1
 62
7
100
AcDbLine
 10
220.835720
 20
192.970830
 30
0.0
 11
220.835720
 21
195.870840
 31
0.0
  0
LINE
  5
5b1
100
AcDbEntity
  8
Layer_1
 62
7
100
AcDbLine
 10
220.835720
 20
195.870840
 30
0.0
 11
220.035720
 21
195.870840
 31
0.0
  0
LINE
  5
5b2
100
AcDbEntity
  8
Layer_1
 62
7
100
AcDbLine
 10
220.035720
 20
195.870840
 30
0.0
 11
220.035720
 21
196.870830
 31
0.0
  0
LINE
  5
5b3
100
AcDbEntity
  8
Layer_1
 62
7
100
AcDbLine
 10
220.035720
 20
196.870830
 30
0.0
 11
206.235720
 21
196.870830
 31
0.0
  0
LINE
  5
5b4
100
AcDbEntity
  8
Layer_1
 62
7
100
AcDbLine
 10
105.227710
 20
220.352834
 30
0.0
 11
104.837710
 21
220.153834
 31
0.0
  0
LINE
  5
5b5
100
AcDbEntity
  8
Layer_1
 62
7
100
AcDbLine
 10
104.837710
 20
220.153834
 30
0.0
 11
104.527710
 21
219.843834
 31
0.0
  0
LINE
  5
5b6
100
AcDbEntity
  8
Layer_1
 62
7
100
AcDbLine
 10
104.527710
 20
219.843834
 30
0.0
 11
104.328710
 21
219.453834
 31
0.0
  0
LINE
  5
5b7
100
AcDbEntity
  8
Layer_1
 62
7
100
AcDbLine
 10
104.328710
 20
219.453834
 30
0.0
 11
104.260710
 21
219.020834
 31
0.0
  0
LINE
  5
5b8
100
AcDbEntity
  8
Layer_1
 62
7
100
AcDbLine
 10
104.260710
 20
219.020834
 30
0.0
 11
104.328710
 21
218.588834
 31
0.0
  0
LINE
  5
5b9
100
AcDbEntity
  8
Layer_1
 62
7
100
AcDbLine
 10
104.328710
 20
218.588834
 30
0.0
 11
104.527710
 21
218.198834
 31
0.0
  0
LINE
  5
5ba
100
AcDbEntity
  8
Layer_1
 62
7
100
AcDbLine
 10
104.527710
 20
218.198834
 30
0.0
 11
104.837710
 21
217.888834
 31
0.0
  0
LINE
  5
5bb
100
AcDbEntity
  8
Layer_1
 62
7
100
AcDbLine
 10
104.837710
 20
217.888834
 30
0.0
 11
105.227710
 21
217.689834
 31
0.0
  0
LINE
  5
5bc
100
AcDbEntity
  8
Layer_1
 62
7
100
AcDbLine
 10
105.227710
 20
217.689834
 30
0.0
 11
105.660720
 21
217.620834
 31
0.0
  0
LINE
  5
5bd
100
AcDbEntity
  8
Layer_1
 62
7
100
AcDbLine
 10
105.660720
 20
217.620834
 30
0.0
 11
106.092710
 21
217.689834
 31
0.0
  0
LINE
  5
5be
100
AcDbEntity
  8
Layer_1
 62
7
100
AcDbLine
 10
106.092710
 20
217.689834
 30
0.0
 11
106.483720
 21
217.888834
 31
0.0
  0
LINE
  5
5bf
100
AcDbEntity
  8
Layer_1
 62
7
100
AcDbLine
 10
106.483720
 20
217.888834
 30
0.0
 11
106.792710
 21
218.198834
 31
0.0
  0
LINE
  5
5c0
100
AcDbEntity
  8
Layer_1
 62
7
100
AcDbLine
 10
106.792710
 20
218.198834
 30
0.0
 11
106.991720
 21
218.588834
 31
0.0
  0
LINE
  5
5c1
100
AcDbEntity
  8
Layer_1
 62
7
100
AcDbLine
 10
106.991720
 20
218.588834
 30
0.0
 11
107.060720
 21
219.020834
 31
0.0
  0
LINE
  5
5c2
100
AcDbEntity
  8
Layer_1
 62
7
100
AcDbLine
 10
107.060720
 20
219.020834
 30
0.0
 11
106.991720
 21
219.453834
 31
0.0
  0
LINE
  5
5c3
100
AcDbEntity
  8
Layer_1
 62
7
100
AcDbLine
 10
106.991720
 20
219.453834
 30
0.0
 11
106.792710
 21
219.843834
 31
0.0
  0
LINE
  5
5c4
100
AcDbEntity
  8
Layer_1
 62
7
100
AcDbLine
 10
106.792710
 20
219.843834
 30
0.0
 11
106.483720
 21
220.153834
 31
0.0
  0
LINE
  5
5c5
100
AcDbEntity
  8
Layer_1
 62
7
100
AcDbLine
 10
106.483720
 20
220.153834
 30
0.0
 11
106.092710
 21
220.352834
 31
0.0
  0
LINE
  5
5c6
100
AcDbEntity
  8
Layer_1
 62
7
100
AcDbLine
 10
106.092710
 20
220.352834
 30
0.0
 11
105.660720
 21
220.420834
 31
0.0
  0
LINE
  5
5c7
100
AcDbEntity
  8
Layer_1
 62
7
100
AcDbLine
 10
105.660720
 20
220.420834
 30
0.0
 11
105.227710
 21
220.352834
 31
0.0
  0
LINE
  5
5c8
100
AcDbEntity
  8
Layer_1
 62
7
100
AcDbLine
 10
188.728720
 20
220.352834
 30
0.0
 11
188.337720
 21
220.153834
 31
0.0
  0
LINE
  5
5c9
100
AcDbEntity
  8
Layer_1
 62
7
100
AcDbLine
 10
188.337720
 20
220.153834
 30
0.0
 11
188.028720
 21
219.843834
 31
0.0
  0
LINE
  5
5ca
100
AcDbEntity
  8
Layer_1
 62
7
100
AcDbLine
 10
188.028720
 20
219.843834
 30
0.0
 11
187.829720
 21
219.453834
 31
0.0
  0
LINE
  5
5cb
100
AcDbEntity
  8
Layer_1
 62
7
100
AcDbLine
 10
187.829720
 20
219.453834
 30
0.0
 11
187.760720
 21
219.020834
 31
0.0
  0
LINE
  5
5cc
100
AcDbEntity
  8
Layer_1
 62
7
100
AcDbLine
 10
187.760720
 20
219.020834
 30
0.0
 11
187.829720
 21
218.588834
 31
0.0
  0
LINE
  5
5cd
100
AcDbEntity
  8
Layer_1
 62
7
100
AcDbLine
 10
187.829720
 20
218.588834
 30
0.0
 11
188.028720
 21
218.198834
 31
0.0
  0
LINE
  5
5ce
100
AcDbEntity
  8
Layer_1
 62
7
100
AcDbLine
 10
188.028720
 20
218.198834
 30
0.0
 11
188.337720
 21
217.888834
 31
0.0
  0
LINE
  5
5cf
100
AcDbEntity
  8
Layer_1
 62
7
100
AcDbLine
 10
188.337720
 20
217.888834
 30
0.0
 11
188.728720
 21
217.689834
 31
0.0
  0
LINE
  5
5d0
100
AcDbEntity
  8
Layer_1
 62
7
100
AcDbLine
 10
188.728720
 20
217.689834
 30
0.0
 11
189.160720
 21
217.620834
 31
0.0
  0
LINE
  5
5d1
100
AcDbEntity
  8
Layer_1
 62
7
100
AcDbLine
 10
189.160720
 20
217.620834
 30
0.0
 11
189.593720
 21
217.689834
 31
0.0
  0
LINE
  5
5d2
100
AcDbEntity
  8
Layer_1
 62
7
100
AcDbLine
 10
189.593720
 20
217.689834
 30
0.0
 11
189.983720
 21
217.888834
 31
0.0
  0
LINE
  5
5d3
100
AcDbEntity
  8
Layer_1
 62
7
100
AcDbLine
 10
189.983720
 20
217.888834
 30
0.0
 11
190.293720
 21
218.198834
 31
0.0
  0
LINE
  5
5d4
100
AcDbEntity
  8
Layer_1
 62
7
100
AcDbLine
 10
190.293720
 20
218.198834
 30
0.0
 11
190.492720
 21
218.588834
 31
0.0
  0
LINE
  5
5d5
100
AcDbEntity
  8
Layer_1
 62
7
100
AcDbLine
 10
190.492720
 20
218.588834
 30
0.0
 11
190.560720
 21
219.020834
 31
0.0
  0
LINE
  5
5d6
100
AcDbEntity
  8
Layer_1
 62
7
100
AcDbLine
 10
190.560720
 20
219.020834
 30
0.0
 11
190.492720
 21
219.453834
 31
0.0
  0
LINE
  5
5d7
100
AcDbEntity
  8
Layer_1
 62
7
100
AcDbLine
 10
190.492720
 20
219.453834
 30
0.0
 11
190.293720
 21
219.843834
 31
0.0
  0
LINE
  5
5d8
100
AcDbEntity
  8
Layer_1
 62
7
100
AcDbLine
 10
190.293720
 20
219.843834
 30
0.0
 11
189.983720
 21
220.153834
 31
0.0
  0
LINE
  5
5d9
100
AcDbEntity
  8
Layer_1
 62
7
100
AcDbLine
 10
189.983720
 20
220.153834
 30
0.0
 11
189.593720
 21
220.352834
 31
0.0
  0
LINE
  5
5da
100
AcDbEntity
  8
Layer_1
 62
7
100
AcDbLine
 10
189.593720
 20
220.352834
 30
0.0
 11
189.160720
 21
220.420834
 31
0.0
  0
LINE
  5
5db
100
AcDbEntity
  8
Layer_1
 62
7
100
AcDbLine
 10
189.160720
 20
220.420834
 30
0.0
 11
188.728720
 21
220.352834
 31
0.0
  0
LINE
  5
5dc
100
AcDbEntity
  8
Layer_1
 62
7
100
AcDbLine
 10
272.228720
 20
220.352834
 30
0.0
 11
271.838720
 21
220.153834
 31
0.0
  0
LINE
  5
5dd
100
AcDbEntity
  8
Layer_1
 62
7
100
AcDbLine
 10
271.838720
 20
220.153834
 30
0.0
 11
271.528720
 21
219.843834
 31
0.0
  0
LINE
  5
5de
100
AcDbEntity
  8
Layer_1
 62
7
100
AcDbLine
 10
271.528720
 20
219.843834
 30
0.0
 11
271.329720
 21
219.453834
 31
0.0
  0
LINE
  5
5df
100
AcDbEntity
  8
Layer_1
 62
7
100
AcDbLine
 10
271.329720
 20
219.453834
 30
0.0
 11
271.261720
 21
219.020834
 31
0.0
  0
LINE
  5
5e0
100
AcDbEntity
  8
Layer_1
 62
7
100
AcDbLine
 10
271.261720
 20
219.020834
 30
0.0
 11
271.329720
 21
218.588834
 31
0.0
  0
LINE
  5
5e1
100
AcDbEntity
  8
Layer_1
 62
7
100
AcDbLine
 10
271.329720
 20
218.588834
 30
0.0
 11
271.528720
 21
218.198834
 31
0.0
  0
LINE
  5
5e2
100
AcDbEntity
  8
Layer_1
 62
7
100
AcDbLine
 10
271.528720
 20
218.198834
 30
0.0
 11
271.838720
 21
217.888834
 31
0.0
  0
LINE
  5
5e3
100
AcDbEntity
  8
Layer_1
 62
7
100
AcDbLine
 10
271.838720
 20
217.888834
 30
0.0
 11
272.228720
 21
217.689834
 31
0.0
  0
LINE
  5
5e4
100
AcDbEntity
  8
Layer_1
 62
7
100
AcDbLine
 10
272.228720
 20
217.689834
 30
0.0
 11
272.661720
 21
217.620834
 31
0.0
  0
LINE
  5
5e5
100
AcDbEntity
  8
Layer_1
 62
7
100
AcDbLine
 10
272.661720
 20
217.620834
 30
0.0
 11
273.093720
 21
217.689834
 31
0.0
  0
LINE
  5
5e6
100
AcDbEntity
  8
Layer_1
 62
7
100
AcDbLine
 10
273.093720
 20
217.689834
 30
0.0
 11
273.483720
 21
217.888834
 31
0.0
  0
LINE
  5
5e7
100
AcDbEntity
  8
Layer_1
 62
7
100
AcDbLine
 10
273.483720
 20
217.888834
 30
0.0
 11
273.793720
 21
218.198834
 31
0.0
  0
LINE
  5
5e8
100
AcDbEntity
  8
Layer_1
 62
7
100
AcDbLine
 10
273.793720
 20
218.198834
 30
0.0
 11
273.992720
 21
218.588834
 31
0.0
  0
LINE
  5
5e9
100
AcDbEntity
  8
Layer_1
 62
7
100
AcDbLine
 10
273.992720
 20
218.588834
 30
0.0
 11
274.060720
 21
219.020834
 31
0.0
  0
LINE
  5
5ea
100
AcDbEntity
  8
Layer_1
 62
7
100
AcDbLine
 10
274.060720
 20
219.020834
 30
0.0
 11
273.992720
 21
219.453834
 31
0.0
  0
LINE
  5
5eb
100
AcDbEntity
  8
Layer_1
 62
7
100
AcDbLine
 10
273.992720
 20
219.453834
 30
0.0
 11
273.793720
 21
219.843834
 31
0.0
  0
LINE
  5
5ec
100
AcDbEntity
  8
Layer_1
 62
7
100
AcDbLine
 10
273.793720
 20
219.843834
 30
0.0
 11
273.483720
 21
220.153834
 31
0.0
  0
LINE
  5
5ed
100
AcDbEntity
  8
Layer_1
 62
7
100
AcDbLine
 10
273.483720
 20
220.153834
 30
0.0
 11
273.093720
 21
220.352834
 31
0.0
  0
LINE
  5
5ee
100
AcDbEntity
  8
Layer_1
 62
7
100
AcDbLine
 10
273.093720
 20
220.352834
 30
0.0
 11
272.661720
 21
220.420834
 31
0.0
  0
LINE
  5
5ef
100
AcDbEntity
  8
Layer_1
 62
7
100
AcDbLine
 10
272.661720
 20
220.420834
 30
0.0
 11
272.228720
 21
220.352834
 31
0.0
  0
LINE
  5
5f0
100
AcDbEntity
  8
Layer_1
 62
7
100
AcDbLine
 10
21.727714
 20
220.352834
 30
0.0
 11
21.337713
 21
220.153834
 31
0.0
  0
LINE
  5
5f1
100
AcDbEntity
  8
Layer_1
 62
7
100
AcDbLine
 10
21.337713
 20
220.153834
 30
0.0
 11
21.027713
 21
219.843834
 31
0.0
  0
LINE
  5
5f2
100
AcDbEntity
  8
Layer_1
 62
7
100
AcDbLine
 10
21.027713
 20
219.843834
 30
0.0
 11
20.828713
 21
219.453834
 31
0.0
  0
LINE
  5
5f3
100
AcDbEntity
  8
Layer_1
 62
7
100
AcDbLine
 10
20.828713
 20
219.453834
 30
0.0
 11
20.759713
 21
219.021834
 31
0.0
  0
LINE
  5
5f4
100
AcDbEntity
  8
Layer_1
 62
7
100
AcDbLine
 10
20.759713
 20
219.021834
 30
0.0
 11
20.828713
 21
218.588834
 31
0.0
  0
LINE
  5
5f5
100
AcDbEntity
  8
Layer_1
 62
7
100
AcDbLine
 10
20.828713
 20
218.588834
 30
0.0
 11
21.027713
 21
218.198834
 31
0.0
  0
LINE
  5
5f6
100
AcDbEntity
  8
Layer_1
 62
7
100
AcDbLine
 10
21.027713
 20
218.198834
 30
0.0
 11
21.337713
 21
217.888834
 31
0.0
  0
LINE
  5
5f7
100
AcDbEntity
  8
Layer_1
 62
7
100
AcDbLine
 10
21.337713
 20
217.888834
 30
0.0
 11
21.727714
 21
217.689834
 31
0.0
  0
LINE
  5
5f8
100
AcDbEntity
  8
Layer_1
 62
7
100
AcDbLine
 10
21.727714
 20
217.689834
 30
0.0
 11
22.159714
 21
217.621834
 31
0.0
  0
LINE
  5
5f9
100
AcDbEntity
  8
Layer_1
 62
7
100
AcDbLine
 10
22.159714
 20
217.621834
 30
0.0
 11
22.592713
 21
217.689834
 31
0.0
  0
LINE
  5
5fa
100
AcDbEntity
  8
Layer_1
 62
7
100
AcDbLine
 10
22.592713
 20
217.689834
 30
0.0
 11
22.982713
 21
217.888834
 31
0.0
  0
LINE
  5
5fb
100
AcDbEntity
  8
Layer_1
 62
7
100
AcDbLine
 10
22.982713
 20
217.888834
 30
0.0
 11
23.292713
 21
218.198834
 31
0.0
  0
LINE
  5
5fc
100
AcDbEntity
  8
Layer_1
 62
7
100
AcDbLine
 10
23.292713
 20
218.198834
 30
0.0
 11
23.491713
 21
218.588834
 31
0.0
  0
LINE
  5
5fd
100
AcDbEntity
  8
Layer_1
 62
7
100
AcDbLine
 10
23.491713
 20
218.588834
 30
0.0
 11
23.559713
 21
219.021834
 31
0.0
  0
LINE
  5
5fe
100
AcDbEntity
  8
Layer_1
 62
7
100
AcDbLine
 10
23.559713
 20
219.021834
 30
0.0
 11
23.491713
 21
219.453834
 31
0.0
  0
LINE
  5
5ff
100
AcDbEntity
  8
Layer_1
 62
7
100
AcDbLine
 10
23.491713
 20
219.453834
 30
0.0
 11
23.292713
 21
219.843834
 31
0.0
  0
LINE
  5
600
100
AcDbEntity
  8
Layer_1
 62
7
100
AcDbLine
 10
23.292713
 20
219.843834
 30
0.0
 11
22.982713
 21
220.153834
 31
0.0
  0
LINE
  5
601
100
AcDbEntity
  8
Layer_1
 62
7
100
AcDbLine
 10
22.982713
 20
220.153834
 30
0.0
 11
22.592713
 21
220.352834
 31
0.0
  0
LINE
  5
602
100
AcDbEntity
  8
Layer_1
 62
7
100
AcDbLine
 10
22.592713
 20
220.352834
 30
0.0
 11
22.159714
 21
220.421834
 31
0.0
  0
LINE
  5
603
100
AcDbEntity
  8
Layer_1
 62
7
100
AcDbLine
 10
22.159714
 20
220.421834
 30
0.0
 11
21.727714
 21
220.352834
 31
0.0
  0
ENDSEC
  0
SECTION
  2
OBJECTS
  0
DICTIONARY
  5
C
330
0
100
AcDbDictionary
  3
ACAD_GROUP
350
D
  3
ACAD_MLINESTYLE
350
17
  0
DICTIONARY
  5
D
330
C
100
AcDbDictionary
  0
DICTIONARY
  5
1A
330
C
100
AcDbDictionary
  0
DICTIONARY
  5
17
330
C
100
AcDbDictionary
  3
STANDARD
350
18
  0
DICTIONARY
  5
19
330
C
100
AcDbDictionary
  0
ENDSEC
  0
EOF
