<?xml version="1.0"?>
<!-- Generated by SVGo -->
<svg width="270.501mm" height="182.876mm"
     viewBox="0.000 0.000 270.501 182.876"
     xmlns="http://www.w3.org/2000/svg" 
     xmlns:xlink="http://www.w3.org/1999/xlink">
<polygon points="265.501,177.876 5.000,177.876 5.000,5.000 265.501,5.000" style="fill:none;stroke-width:0.050000mm;stroke:black"/>
<polygon points="260.036,171.449 259.619,171.662 259.286,171.994 259.074,172.412 259.000,172.876 259.074,173.339 259.286,173.757 259.619,174.089 260.036,174.302 260.500,174.376 260.964,174.302 261.382,174.089 261.714,173.757 261.927,173.339 262.000,172.876 261.927,172.412 261.714,171.994 261.382,171.662 260.964,171.449 260.500,171.376" style="fill:none;stroke-width:0.050000mm;stroke:black"/>
<polygon points="176.537,171.449 176.118,171.662 175.787,171.994 175.574,172.412 175.500,172.876 175.574,173.339 175.787,173.757 176.118,174.089 176.537,174.302 177.000,174.376 177.464,174.302 177.882,174.089 178.214,173.757 178.427,173.339 178.500,172.876 178.427,172.412 178.214,171.994 177.882,171.662 177.464,171.449 177.000,171.376" style="fill:none;stroke-width:0.050000mm;stroke:black"/>
<polygon points="93.036,171.449 92.618,171.662 92.286,171.994 92.073,172.412 92.000,172.876 92.073,173.339 92.286,173.757 92.618,174.089 93.036,174.302 93.500,174.376 93.963,174.302 94.382,174.089 94.713,173.757 94.926,173.339 95.000,172.876 94.926,172.412 94.713,171.994 94.382,171.662 93.963,171.449 93.500,171.376" style="fill:none;stroke-width:0.050000mm;stroke:black"/>
<polygon points="9.536,171.449 9.118,171.662 8.786,171.994 8.573,172.412 8.500,172.876 8.573,173.339 8.786,173.757 9.118,174.089 9.536,174.302 10.000,174.376 10.463,174.302 10.881,174.089 11.213,173.757 11.426,173.339 11.500,172.876 11.426,172.412 11.213,171.994 10.881,171.662 10.463,171.449 10.000,171.376" style="fill:none;stroke-width:0.050000mm;stroke:black"/>
<polygon points="260.036,90.011 259.619,90.224 259.286,90.556 259.074,90.974 259.000,91.438 259.074,91.901 259.286,92.319 259.619,92.651 260.036,92.864 260.500,92.938 260.964,92.864 261.382,92.651 261.714,92.319 261.927,91.901 262.000,91.438 261.927,90.974 261.714,90.556 261.382,90.224 260.964,90.011 260.500,89.938" style="fill:none;stroke-width:0.050000mm;stroke:black"/>
<polygon points="9.536,90.011 9.118,90.224 8.786,90.556 8.573,90.974 8.500,91.438 8.573,91.901 8.786,92.319 9.118,92.651 9.536,92.864 10.000,92.938 10.463,92.864 10.881,92.651 11.213,92.319 11.426,91.901 11.500,91.438 11.426,90.974 11.213,90.556 10.881,90.224 10.463,90.011 10.000,89.938" style="fill:none;stroke-width:0.050000mm;stroke:black"/>
<polygon points="93.036,8.573 92.618,8.786 92.286,9.118 92.073,9.536 92.000,10.000 92.073,10.463 92.286,10.881 92.618,11.213 93.036,11.426 93.500,11.500 93.963,11.426 94.382,11.213 94.713,10.881 94.926,10.463 95.000,10.000 94.926,9.536 94.713,9.118 94.382,8.786 93.963,8.573 93.500,8.500" style="fill:none;stroke-width:0.050000mm;stroke:black"/>
<polygon points="176.537,8.573 176.118,8.786 175.787,9.118 175.574,9.536 175.500,10.000 175.574,10.463 175.787,10.881 176.118,11.213 176.537,11.426 177.000,11.500 177.464,11.426 177.882,11.213 178.214,10.881 178.427,10.463 178.500,10.000 178.427,9.536 178.214,9.118 177.882,8.786 177.464,8.573 177.000,8.500" style="fill:none;stroke-width:0.050000mm;stroke:black"/>
<polygon points="260.036,8.573 259.619,8.786 259.286,9.118 259.074,9.536 259.000,10.000 259.074,10.463 259.286,10.881 259.619,11.213 260.036,11.426 260.500,11.500 260.964,11.426 261.382,11.213 261.714,10.881 261.927,10.463 262.000,10.000 261.927,9.536 261.714,9.118 261.382,8.786 260.964,8.573 260.500,8.500" style="fill:none;stroke-width:0.050000mm;stroke:black"/>
<polygon points="9.536,8.573 9.118,8.786 8.786,9.118 8.573,9.536 8.500,10.000 8.573,10.463 8.786,10.881 9.118,11.213 9.536,11.426 10.000,11.500 10.463,11.426 10.881,11.213 11.213,10.881 11.426,10.463 11.500,10.000 11.426,9.536 11.213,9.118 10.881,8.786 10.463,8.573 10.000,8.500" style="fill:none;stroke-width:0.050000mm;stroke:black"/>
</svg>
