<?xml version="1.0" encoding="UTF-8" standalone="no"?>
<!-- Created with Inkscape (http://www.inkscape.org/) -->

<svg
   xmlns:dc="http://purl.org/dc/elements/1.1/"
   xmlns:cc="http://creativecommons.org/ns#"
   xmlns:rdf="http://www.w3.org/1999/02/22-rdf-syntax-ns#"
   xmlns:svg="http://www.w3.org/2000/svg"
   xmlns="http://www.w3.org/2000/svg"
   xmlns:sodipodi="http://sodipodi.sourceforge.net/DTD/sodipodi-0.dtd"
   xmlns:inkscape="http://www.inkscape.org/namespaces/inkscape"
   width="210mm"
   height="297mm"
   viewBox="0 0 210 297"
   version="1.1"
   id="svg1265"
   inkscape:version="0.92.2 (5c3e80d, 2017-08-06)"
   sodipodi:docname="mod station v0.2_bottom.svg">
  <defs
     id="defs1259" />
  <sodipodi:namedview
     id="base"
     pagecolor="#ffffff"
     bordercolor="#666666"
     borderopacity="1.0"
     inkscape:pageopacity="0.0"
     inkscape:pageshadow="2"
     inkscape:zoom="0.35"
     inkscape:cx="51.428571"
     inkscape:cy="560"
     inkscape:document-units="mm"
     inkscape:current-layer="layer1"
     showgrid="false"
     inkscape:window-width="1366"
     inkscape:window-height="705"
     inkscape:window-x="-8"
     inkscape:window-y="-8"
     inkscape:window-maximized="1" />
  <metadata
     id="metadata1262">
    <rdf:RDF>
      <cc:Work
         rdf:about="">
        <dc:format>image/svg+xml</dc:format>
        <dc:type
           rdf:resource="http://purl.org/dc/dcmitype/StillImage" />
        <dc:title></dc:title>
      </cc:Work>
    </rdf:RDF>
  </metadata>
  <g
     inkscape:label="Layer 1"
     inkscape:groupmode="layer"
     id="layer1">
    <path
       inkscape:connector-curvature="0"
       style="fill:none;stroke:#000000;stroke-width:0.05mm"
       d="m 269.76172,72.879166 0.626,0.024 0.625,0.074 0.615,0.123 0.606,0.17 0.589,0.217 0.57,0.263 0.548,0.307 0.523,0.349 0.493,0.389 0.461,0.427 0.427,0.461 0.389,0.493 0.349,0.523 0.307,0.548 0.263,0.57 0.217,0.589 0.17,0.605 0.123,0.616 0.074,0.624 0.024,0.628 0.001,157.076004 -0.025,0.627 -0.074,0.624 -0.123,0.616 -0.17,0.605 -0.217,0.589 -0.263,0.57 -0.307,0.548 -0.349,0.523 -0.389,0.493 -0.427,0.461 -0.461,0.427 -0.493,0.389 -0.523,0.349 -0.548,0.307 -0.57,0.263 -0.589,0.217 -0.606,0.17 -0.615,0.123 -0.625,0.074 -0.626,0.025 H 25.060713 l -0.628,-0.025 -0.623999,-0.074 -0.616,-0.123 -0.605001,-0.17 -0.588999,-0.217 -0.570001,-0.263 -0.548,-0.307 -0.523,-0.349 -0.493,-0.389 -0.461,-0.427 -0.427,-0.461 -0.389,-0.493 -0.349,-0.523 -0.307,-0.548 -0.263,-0.57 -0.217,-0.589 -0.17,-0.605 -0.123,-0.616 -0.074,-0.624 -0.025,-0.628 0.001,-157.075004 0.024,-0.628 0.074,-0.624 0.123001,-0.616 0.17,-0.605 0.217,-0.589 0.263,-0.57 0.306999,-0.548 0.349,-0.523 0.389001,-0.493 0.427,-0.461 0.460999,-0.427 0.493,-0.389 0.523,-0.349 0.548,-0.307 0.570001,-0.263 0.588999,-0.217 0.605001,-0.17 0.616,-0.123 0.623999,-0.074 0.628,-0.025 z"
       id="polygon2" />
    <path
       inkscape:connector-curvature="0"
       style="fill:none;stroke:#000000;stroke-width:0.05mm"
       d="m 272.22872,239.52317 -0.39,0.199 -0.31,0.31 -0.199,0.39 -0.068,0.433 0.068,0.432 0.199,0.39 0.31,0.31 0.39,0.199 0.433,0.068 0.432,-0.068 0.39,-0.199 0.31,-0.31 0.199,-0.39 0.068,-0.432 -0.068,-0.433 -0.199,-0.39 -0.31,-0.31 -0.39,-0.199 -0.432,-0.068 z"
       id="polygon4" />
    <path
       inkscape:connector-curvature="0"
       style="fill:none;stroke:#000000;stroke-width:0.05mm"
       d="m 188.72872,239.52317 -0.391,0.199 -0.309,0.31 -0.199,0.39 -0.069,0.433 0.069,0.432 0.199,0.39 0.309,0.31 0.391,0.199 0.432,0.068 0.433,-0.068 0.39,-0.199 0.31,-0.31 0.199,-0.39 0.068,-0.432 -0.068,-0.433 -0.199,-0.39 -0.31,-0.31 -0.39,-0.199 -0.433,-0.068 z"
       id="polygon6" />
    <path
       inkscape:connector-curvature="0"
       style="fill:none;stroke:#000000;stroke-width:0.05mm"
       d="m 105.22771,239.52317 -0.39,0.199 -0.31,0.31 -0.199,0.39 -0.068,0.433 0.068,0.432 0.199,0.39 0.31,0.31 0.39,0.199 0.43301,0.068 0.43199,-0.068 0.39101,-0.199 0.30899,-0.31 0.19901,-0.39 0.069,-0.432 -0.069,-0.433 -0.19901,-0.39 -0.30899,-0.31 -0.39101,-0.199 -0.43199,-0.068 z"
       id="polygon8" />
    <path
       inkscape:connector-curvature="0"
       style="fill:none;stroke:#000000;stroke-width:0.05mm"
       d="m 21.727714,239.52317 -0.390001,0.199 -0.31,0.31 -0.199,0.39 -0.069,0.433 0.069,0.432 0.199,0.39 0.31,0.31 0.390001,0.199 0.432,0.068 0.432999,-0.068 0.39,-0.199 0.31,-0.31 0.199,-0.39 0.068,-0.432 -0.068,-0.433 -0.199,-0.39 -0.31,-0.31 -0.39,-0.199 -0.432999,-0.068 z"
       id="polygon10" />
    <path
       inkscape:connector-curvature="0"
       style="fill:none;stroke:#000000;stroke-width:0.05mm"
       d="m 34.785713,214.42917 v 1 h -0.8 v 2.9 h 0.8 v 6 h -0.8 v 2.9 h 0.8 v 1 h 13.800001 v -1 h 0.8 v -2.9 h -0.8 v -6 h 0.8 v -2.9 h -0.8 v -1 z"
       id="polygon12" />
    <path
       inkscape:connector-curvature="0"
       style="fill:none;stroke:#000000;stroke-width:0.05mm"
       d="m 53.835714,214.42917 v 1 h -0.800999 v 2.9 h 0.800999 v 6 h -0.800999 v 2.9 h 0.800999 v 1 h 13.799 v -1 h 0.801 v -2.9 h -0.801 v -6 h 0.801 v -2.9 h -0.801 v -1 z"
       id="polygon14" />
    <path
       inkscape:connector-curvature="0"
       style="fill:none;stroke:#000000;stroke-width:0.05mm"
       d="m 72.884714,214.42917 v 1 h -0.799999 v 2.9 h 0.799999 v 6 h -0.799999 v 2.9 h 0.799999 v 1 h 13.801 v -1 h 0.8 v -2.9 h -0.8 v -6 h 0.8 v -2.9 h -0.8 v -1 z"
       id="polygon16" />
    <path
       inkscape:connector-curvature="0"
       style="fill:none;stroke:#000000;stroke-width:0.05mm"
       d="m 91.934714,214.42917 v 1 h -0.799999 v 2.9 h 0.799999 v 6 h -0.799999 v 2.9 h 0.799999 v 1 h 13.800996 v -1 h 0.8 v -2.9 h -0.8 v -6 h 0.8 v -2.9 h -0.8 v -1 z"
       id="polygon18" />
    <path
       inkscape:connector-curvature="0"
       style="fill:none;stroke:#000000;stroke-width:0.05mm"
       d="m 110.98471,214.42917 v 1 h -0.79999 v 2.9 h 0.79999 v 6 h -0.79999 v 2.9 h 0.79999 v 1 h 13.80101 v -1 h 0.799 v -2.9 h -0.799 v -6 h 0.799 v -2.9 h -0.799 v -1 z"
       id="polygon20" />
    <path
       inkscape:connector-curvature="0"
       style="fill:none;stroke:#000000;stroke-width:0.05mm"
       d="m 130.03472,214.42917 v 1 h -0.8 v 2.9 h 0.8 v 6 h -0.8 v 2.9 h 0.8 v 1 h 13.8 v -1 h 0.801 v -2.9 h -0.801 v -6 h 0.801 v -2.9 h -0.801 v -1 z"
       id="polygon22" />
    <path
       inkscape:connector-curvature="0"
       style="fill:none;stroke:#000000;stroke-width:0.05mm"
       d="m 149.08472,214.42917 v 1 h -0.799 v 2.9 h 0.799 v 6 h -0.799 v 2.9 h 0.799 v 1 h 13.801 v -1 h 0.799 v -2.9 h -0.799 v -6 h 0.799 v -2.9 h -0.799 v -1 z"
       id="polygon24" />
    <path
       inkscape:connector-curvature="0"
       style="fill:none;stroke:#000000;stroke-width:0.05mm"
       d="m 168.13572,214.42917 v 1 h -0.8 v 2.9 h 0.8 v 6 h -0.8 v 2.9 h 0.8 v 1 h 13.8 v -1 h 0.799 v -2.9 h -0.799 v -6 h 0.799 v -2.9 h -0.799 v -1 z"
       id="polygon26" />
    <path
       inkscape:connector-curvature="0"
       style="fill:none;stroke:#000000;stroke-width:0.05mm"
       d="m 187.18572,214.42917 v 1 h -0.8 v 2.9 h 0.8 v 6 h -0.8 v 2.9 h 0.8 v 1 h 13.8 v -1 h 0.8 v -2.9 h -0.8 v -6 h 0.8 v -2.9 h -0.8 v -1 z"
       id="polygon28" />
    <path
       inkscape:connector-curvature="0"
       style="fill:none;stroke:#000000;stroke-width:0.05mm"
       d="m 206.23572,214.42917 v 1 h -0.8 v 2.9 h 0.8 v 6 h -0.8 v 2.9 h 0.8 v 1 h 13.8 v -1 h 0.8 v -2.9 h -0.8 v -6 h 0.8 v -2.9 h -0.8 v -1 z"
       id="polygon30" />
    <path
       inkscape:connector-curvature="0"
       style="fill:none;stroke:#000000;stroke-width:0.05mm"
       d="m 34.785713,185.85417 v 1 h -0.8 v 2.9 h 0.8 v 6 h -0.8 v 2.9 h 0.8 v 1 h 13.800001 v -1 h 0.8 v -2.9 h -0.8 v -6 h 0.8 v -2.9 h -0.8 v -1 z"
       id="polygon32" />
    <path
       inkscape:connector-curvature="0"
       style="fill:none;stroke:#000000;stroke-width:0.05mm"
       d="m 53.835714,185.85417 v 1 h -0.800999 v 2.9 h 0.800999 v 6 h -0.800999 v 2.9 h 0.800999 v 1 h 13.799 v -1 h 0.801 v -2.9 h -0.801 v -6 h 0.801 v -2.9 h -0.801 v -1 z"
       id="polygon34" />
    <path
       inkscape:connector-curvature="0"
       style="fill:none;stroke:#000000;stroke-width:0.05mm"
       d="m 72.884714,185.85417 v 1 h -0.799999 v 2.9 h 0.799999 v 6 h -0.799999 v 2.9 h 0.799999 v 1 h 13.801 v -1 h 0.8 v -2.9 h -0.8 v -6 h 0.8 v -2.9 h -0.8 v -1 z"
       id="polygon36" />
    <path
       inkscape:connector-curvature="0"
       style="fill:none;stroke:#000000;stroke-width:0.05mm"
       d="m 91.934714,185.85417 v 1 h -0.799999 v 2.9 h 0.799999 v 6 h -0.799999 v 2.9 h 0.799999 v 1 h 13.800996 v -1 h 0.8 v -2.9 h -0.8 v -6 h 0.8 v -2.9 h -0.8 v -1 z"
       id="polygon38" />
    <path
       inkscape:connector-curvature="0"
       style="fill:none;stroke:#000000;stroke-width:0.05mm"
       d="m 110.98471,185.85417 v 1 h -0.79999 v 2.9 h 0.79999 v 6 h -0.79999 v 2.9 h 0.79999 v 1 h 13.80101 v -1 h 0.799 v -2.9 h -0.799 v -6 h 0.799 v -2.9 h -0.799 v -1 z"
       id="polygon40" />
    <path
       inkscape:connector-curvature="0"
       style="fill:none;stroke:#000000;stroke-width:0.05mm"
       d="m 130.03472,185.85417 v 1 h -0.8 v 2.9 h 0.8 v 6 h -0.8 v 2.9 h 0.8 v 1 h 13.8 v -1 h 0.801 v -2.9 h -0.801 v -6 h 0.801 v -2.9 h -0.801 v -1 z"
       id="polygon42" />
    <path
       inkscape:connector-curvature="0"
       style="fill:none;stroke:#000000;stroke-width:0.05mm"
       d="m 149.08472,185.85417 v 1 h -0.799 v 2.9 h 0.799 v 6 h -0.799 v 2.9 h 0.799 v 1 h 13.801 v -1 h 0.799 v -2.9 h -0.799 v -6 h 0.799 v -2.9 h -0.799 v -1 z"
       id="polygon44" />
    <path
       inkscape:connector-curvature="0"
       style="fill:none;stroke:#000000;stroke-width:0.05mm"
       d="m 168.13572,185.85417 v 1 h -0.8 v 2.9 h 0.8 v 6 h -0.8 v 2.9 h 0.8 v 1 h 13.8 v -1 h 0.799 v -2.9 h -0.799 v -6 h 0.799 v -2.9 h -0.799 v -1 z"
       id="polygon46" />
    <path
       inkscape:connector-curvature="0"
       style="fill:none;stroke:#000000;stroke-width:0.05mm"
       d="m 187.18572,185.85417 v 1 h -0.8 v 2.9 h 0.8 v 6 h -0.8 v 2.9 h 0.8 v 1 h 13.8 v -1 h 0.8 v -2.9 h -0.8 v -6 h 0.8 v -2.9 h -0.8 v -1 z"
       id="polygon48" />
    <path
       inkscape:connector-curvature="0"
       style="fill:none;stroke:#000000;stroke-width:0.05mm"
       d="m 206.23572,185.85417 v 1 h -0.8 v 2.9 h 0.8 v 6 h -0.8 v 2.9 h 0.8 v 1 h 13.8 v -1 h 0.8 v -2.9 h -0.8 v -6 h 0.8 v -2.9 h -0.8 v -1 z"
       id="polygon50" />
    <path
       inkscape:connector-curvature="0"
       style="fill:none;stroke:#000000;stroke-width:0.05mm"
       d="m 34.785713,157.27917 v 1 h -0.8 v 2.9 h 0.8 v 6 h -0.8 v 2.9 h 0.8 v 1 h 13.800001 v -1 h 0.8 v -2.9 h -0.8 v -6 h 0.8 v -2.9 h -0.8 v -1 z"
       id="polygon52" />
    <path
       inkscape:connector-curvature="0"
       style="fill:none;stroke:#000000;stroke-width:0.05mm"
       d="m 53.835714,157.27917 v 1 h -0.800999 v 2.9 h 0.800999 v 6 h -0.800999 v 2.9 h 0.800999 v 1 h 13.799 v -1 h 0.801 v -2.9 h -0.801 v -6 h 0.801 v -2.9 h -0.801 v -1 z"
       id="polygon54" />
    <path
       inkscape:connector-curvature="0"
       style="fill:none;stroke:#000000;stroke-width:0.05mm"
       d="m 72.884714,157.27917 v 1 h -0.799999 v 2.9 h 0.799999 v 6 h -0.799999 v 2.9 h 0.799999 v 1 h 13.801 v -1 h 0.8 v -2.9 h -0.8 v -6 h 0.8 v -2.9 h -0.8 v -1 z"
       id="polygon56" />
    <path
       inkscape:connector-curvature="0"
       style="fill:none;stroke:#000000;stroke-width:0.05mm"
       d="m 91.934714,157.27917 v 1 h -0.799999 v 2.9 h 0.799999 v 6 h -0.799999 v 2.9 h 0.799999 v 1 h 13.800996 v -1 h 0.8 v -2.9 h -0.8 v -6 h 0.8 v -2.9 h -0.8 v -1 z"
       id="polygon58" />
    <path
       inkscape:connector-curvature="0"
       style="fill:none;stroke:#000000;stroke-width:0.05mm"
       d="m 110.98471,157.27917 v 1 h -0.79999 v 2.9 h 0.79999 v 6 h -0.79999 v 2.9 h 0.79999 v 1 h 13.80101 v -1 h 0.799 v -2.9 h -0.799 v -6 h 0.799 v -2.9 h -0.799 v -1 z"
       id="polygon60" />
    <path
       inkscape:connector-curvature="0"
       style="fill:none;stroke:#000000;stroke-width:0.05mm"
       d="m 130.03472,157.27917 v 1 h -0.8 v 2.9 h 0.8 v 6 h -0.8 v 2.9 h 0.8 v 1 h 13.8 v -1 h 0.801 v -2.9 h -0.801 v -6 h 0.801 v -2.9 h -0.801 v -1 z"
       id="polygon62" />
    <path
       inkscape:connector-curvature="0"
       style="fill:none;stroke:#000000;stroke-width:0.05mm"
       d="m 149.08472,157.27917 v 1 h -0.799 v 2.9 h 0.799 v 6 h -0.799 v 2.9 h 0.799 v 1 h 13.801 v -1 h 0.799 v -2.9 h -0.799 v -6 h 0.799 v -2.9 h -0.799 v -1 z"
       id="polygon64" />
    <path
       inkscape:connector-curvature="0"
       style="fill:none;stroke:#000000;stroke-width:0.05mm"
       d="m 168.13572,157.27917 v 1 h -0.8 v 2.9 h 0.8 v 6 h -0.8 v 2.9 h 0.8 v 1 h 13.8 v -1 h 0.799 v -2.9 h -0.799 v -6 h 0.799 v -2.9 h -0.799 v -1 z"
       id="polygon66" />
    <path
       inkscape:connector-curvature="0"
       style="fill:none;stroke:#000000;stroke-width:0.05mm"
       d="m 187.18572,157.27917 v 1 h -0.8 v 2.9 h 0.8 v 6 h -0.8 v 2.9 h 0.8 v 1 h 13.8 v -1 h 0.8 v -2.9 h -0.8 v -6 h 0.8 v -2.9 h -0.8 v -1 z"
       id="polygon68" />
    <path
       inkscape:connector-curvature="0"
       style="fill:none;stroke:#000000;stroke-width:0.05mm"
       d="m 206.23572,157.27917 v 1 h -0.8 v 2.9 h 0.8 v 6 h -0.8 v 2.9 h 0.8 v 1 h 13.8 v -1 h 0.8 v -2.9 h -0.8 v -6 h 0.8 v -2.9 h -0.8 v -1 z"
       id="polygon70" />
    <path
       inkscape:connector-curvature="0"
       style="fill:none;stroke:#000000;stroke-width:0.05mm"
       d="m 272.22872,158.08517 -0.39,0.199 -0.31,0.31 -0.199,0.39 -0.068,0.433 0.068,0.432 0.199,0.39 0.31,0.31 0.39,0.199 0.433,0.069 0.432,-0.069 0.39,-0.199 0.31,-0.31 0.199,-0.39 0.068,-0.432 -0.068,-0.433 -0.199,-0.39 -0.31,-0.31 -0.39,-0.199 -0.432,-0.068 z"
       id="polygon72" />
    <path
       inkscape:connector-curvature="0"
       style="fill:none;stroke:#000000;stroke-width:0.05mm"
       d="m 21.727714,158.08517 -0.390001,0.199 -0.31,0.31 -0.199,0.39 -0.069,0.433 0.069,0.432 0.199,0.39 0.31,0.31 0.390001,0.199 0.432,0.069 0.432999,-0.069 0.39,-0.199 0.31,-0.31 0.199,-0.39 0.068,-0.432 -0.068,-0.433 -0.199,-0.39 -0.31,-0.31 -0.39,-0.199 -0.432999,-0.068 z"
       id="polygon74" />
    <path
       inkscape:connector-curvature="0"
       style="fill:none;stroke:#000000;stroke-width:0.05mm"
       d="m 34.785713,128.70417 v 1 h -0.8 v 2.899 h 0.8 v 6.001 h -0.8 v 2.9 h 0.8 v 1 h 13.800001 v -1 h 0.8 v -2.9 h -0.8 v -6.001 h 0.8 v -2.899 h -0.8 v -1 z"
       id="polygon76" />
    <path
       inkscape:connector-curvature="0"
       style="fill:none;stroke:#000000;stroke-width:0.05mm"
       d="m 53.835714,128.70417 v 1 h -0.800999 v 2.899 h 0.800999 v 6.001 h -0.800999 v 2.9 h 0.800999 v 1 h 13.799 v -1 h 0.801 v -2.9 h -0.801 v -6.001 h 0.801 v -2.899 h -0.801 v -1 z"
       id="polygon78" />
    <path
       inkscape:connector-curvature="0"
       style="fill:none;stroke:#000000;stroke-width:0.05mm"
       d="m 72.884714,128.70417 v 1 h -0.799999 v 2.899 h 0.799999 v 6.001 h -0.799999 v 2.9 h 0.799999 v 1 h 13.801 v -1 h 0.8 v -2.9 h -0.8 v -6.001 h 0.8 v -2.899 h -0.8 v -1 z"
       id="polygon80" />
    <path
       inkscape:connector-curvature="0"
       style="fill:none;stroke:#000000;stroke-width:0.05mm"
       d="m 91.934714,128.70417 v 1 h -0.799999 v 2.899 h 0.799999 v 6.001 h -0.799999 v 2.9 h 0.799999 v 1 h 13.800996 v -1 h 0.8 v -2.9 h -0.8 v -6.001 h 0.8 v -2.899 h -0.8 v -1 z"
       id="polygon82" />
    <path
       inkscape:connector-curvature="0"
       style="fill:none;stroke:#000000;stroke-width:0.05mm"
       d="m 110.98471,128.70417 v 1 h -0.79999 v 2.899 h 0.79999 v 6.001 h -0.79999 v 2.9 h 0.79999 v 1 h 13.80101 v -1 h 0.799 v -2.9 h -0.799 v -6.001 h 0.799 v -2.899 h -0.799 v -1 z"
       id="polygon84" />
    <path
       inkscape:connector-curvature="0"
       style="fill:none;stroke:#000000;stroke-width:0.05mm"
       d="m 130.03472,128.70417 v 1 h -0.8 v 2.899 h 0.8 v 6.001 h -0.8 v 2.9 h 0.8 v 1 h 13.8 v -1 h 0.801 v -2.9 h -0.801 v -6.001 h 0.801 v -2.899 h -0.801 v -1 z"
       id="polygon86" />
    <path
       inkscape:connector-curvature="0"
       style="fill:none;stroke:#000000;stroke-width:0.05mm"
       d="m 149.08472,128.70417 v 1 h -0.799 v 2.899 h 0.799 v 6.001 h -0.799 v 2.9 h 0.799 v 1 h 13.801 v -1 h 0.799 v -2.9 h -0.799 v -6.001 h 0.799 v -2.899 h -0.799 v -1 z"
       id="polygon88" />
    <path
       inkscape:connector-curvature="0"
       style="fill:none;stroke:#000000;stroke-width:0.05mm"
       d="m 168.13572,128.70417 v 1 h -0.8 v 2.899 h 0.8 v 6.001 h -0.8 v 2.9 h 0.8 v 1 h 13.8 v -1 h 0.799 v -2.9 h -0.799 v -6.001 h 0.799 v -2.899 h -0.799 v -1 z"
       id="polygon90" />
    <path
       inkscape:connector-curvature="0"
       style="fill:none;stroke:#000000;stroke-width:0.05mm"
       d="m 187.18572,128.70417 v 1 h -0.8 v 2.899 h 0.8 v 6.001 h -0.8 v 2.9 h 0.8 v 1 h 13.8 v -1 h 0.8 v -2.9 h -0.8 v -6.001 h 0.8 v -2.899 h -0.8 v -1 z"
       id="polygon92" />
    <path
       inkscape:connector-curvature="0"
       style="fill:none;stroke:#000000;stroke-width:0.05mm"
       d="m 206.23572,128.70417 v 1 h -0.8 v 2.899 h 0.8 v 6.001 h -0.8 v 2.9 h 0.8 v 1 h 13.8 v -1 h 0.8 v -2.9 h -0.8 v -6.001 h 0.8 v -2.899 h -0.8 v -1 z"
       id="polygon94" />
    <path
       inkscape:connector-curvature="0"
       style="fill:none;stroke:#000000;stroke-width:0.05mm"
       d="m 34.785713,100.12917 v 0.99999 h -0.8 v 2.90001 h 0.8 v 6 h -0.8 v 2.9 h 0.8 v 1 h 13.800001 v -1 h 0.8 v -2.9 h -0.8 v -6 h 0.8 v -2.90001 h -0.8 v -0.99999 z"
       id="polygon96" />
    <path
       inkscape:connector-curvature="0"
       style="fill:none;stroke:#000000;stroke-width:0.05mm"
       d="m 53.835714,100.12917 v 0.99999 h -0.800999 v 2.90001 h 0.800999 v 6 h -0.800999 v 2.9 h 0.800999 v 1 h 13.799 v -1 h 0.801 v -2.9 h -0.801 v -6 h 0.801 v -2.90001 h -0.801 v -0.99999 z"
       id="polygon98" />
    <path
       inkscape:connector-curvature="0"
       style="fill:none;stroke:#000000;stroke-width:0.05mm"
       d="m 72.884714,100.12917 v 0.99999 h -0.799999 v 2.90001 h 0.799999 v 6 h -0.799999 v 2.9 h 0.799999 v 1 h 13.801 v -1 h 0.8 v -2.9 h -0.8 v -6 h 0.8 v -2.90001 h -0.8 v -0.99999 z"
       id="polygon100" />
    <path
       inkscape:connector-curvature="0"
       style="fill:none;stroke:#000000;stroke-width:0.05mm"
       d="m 91.934714,100.12917 v 0.99999 h -0.799999 v 2.90001 h 0.799999 v 6 h -0.799999 v 2.9 h 0.799999 v 1 h 13.800996 v -1 h 0.8 v -2.9 h -0.8 v -6 h 0.8 v -2.90001 h -0.8 v -0.99999 z"
       id="polygon102" />
    <path
       inkscape:connector-curvature="0"
       style="fill:none;stroke:#000000;stroke-width:0.05mm"
       d="m 110.98471,100.12917 v 0.99999 h -0.79999 v 2.90001 h 0.79999 v 6 h -0.79999 v 2.9 h 0.79999 v 1 h 13.80101 v -1 h 0.799 v -2.9 h -0.799 v -6 h 0.799 v -2.90001 h -0.799 v -0.99999 z"
       id="polygon104" />
    <path
       inkscape:connector-curvature="0"
       style="fill:none;stroke:#000000;stroke-width:0.05mm"
       d="m 130.03472,100.12917 v 0.99999 h -0.8 v 2.90001 h 0.8 v 6 h -0.8 v 2.9 h 0.8 v 1 h 13.8 v -1 h 0.801 v -2.9 h -0.801 v -6 h 0.801 v -2.90001 h -0.801 v -0.99999 z"
       id="polygon106" />
    <path
       inkscape:connector-curvature="0"
       style="fill:none;stroke:#000000;stroke-width:0.05mm"
       d="m 149.08472,100.12917 v 0.99999 h -0.799 v 2.90001 h 0.799 v 6 h -0.799 v 2.9 h 0.799 v 1 h 13.801 v -1 h 0.799 v -2.9 h -0.799 v -6 h 0.799 v -2.90001 h -0.799 v -0.99999 z"
       id="polygon108" />
    <path
       inkscape:connector-curvature="0"
       style="fill:none;stroke:#000000;stroke-width:0.05mm"
       d="m 168.13572,100.12917 v 0.99999 h -0.8 v 2.90001 h 0.8 v 6 h -0.8 v 2.9 h 0.8 v 1 h 13.8 v -1 h 0.799 v -2.9 h -0.799 v -6 h 0.799 v -2.90001 h -0.799 v -0.99999 z"
       id="polygon110" />
    <path
       inkscape:connector-curvature="0"
       style="fill:none;stroke:#000000;stroke-width:0.05mm"
       d="m 187.18572,100.12917 v 0.99999 h -0.8 v 2.90001 h 0.8 v 6 h -0.8 v 2.9 h 0.8 v 1 h 13.8 v -1 h 0.8 v -2.9 h -0.8 v -6 h 0.8 v -2.90001 h -0.8 v -0.99999 z"
       id="polygon112" />
    <path
       inkscape:connector-curvature="0"
       style="fill:none;stroke:#000000;stroke-width:0.05mm"
       d="m 206.23572,100.12917 v 0.99999 h -0.8 v 2.90001 h 0.8 v 6 h -0.8 v 2.9 h 0.8 v 1 h 13.8 v -1 h 0.8 v -2.9 h -0.8 v -6 h 0.8 v -2.90001 h -0.8 v -0.99999 z"
       id="polygon114" />
    <path
       inkscape:connector-curvature="0"
       style="fill:none;stroke:#000000;stroke-width:0.05mm"
       d="m 105.22771,76.647166 -0.39,0.199 -0.31,0.31 -0.199,0.39 -0.068,0.433 0.068,0.432 0.199,0.39 0.31,0.31 0.39,0.199 0.43301,0.069 0.43199,-0.069 0.39101,-0.199 0.30899,-0.31 0.19901,-0.39 0.069,-0.432 -0.069,-0.433 -0.19901,-0.39 -0.30899,-0.31 -0.39101,-0.199 -0.43199,-0.068 z"
       id="polygon116" />
    <path
       inkscape:connector-curvature="0"
       style="fill:none;stroke:#000000;stroke-width:0.05mm"
       d="m 188.72872,76.647166 -0.391,0.199 -0.309,0.31 -0.199,0.39 -0.069,0.433 0.069,0.432 0.199,0.39 0.309,0.31 0.391,0.199 0.432,0.069 0.433,-0.069 0.39,-0.199 0.31,-0.31 0.199,-0.39 0.068,-0.432 -0.068,-0.433 -0.199,-0.39 -0.31,-0.31 -0.39,-0.199 -0.433,-0.068 z"
       id="polygon118" />
    <path
       inkscape:connector-curvature="0"
       style="fill:none;stroke:#000000;stroke-width:0.05mm"
       d="m 272.22872,76.647166 -0.39,0.199 -0.31,0.31 -0.199,0.39 -0.068,0.433 0.068,0.432 0.199,0.39 0.31,0.31 0.39,0.199 0.433,0.069 0.432,-0.069 0.39,-0.199 0.31,-0.31 0.199,-0.39 0.068,-0.432 -0.068,-0.433 -0.199,-0.39 -0.31,-0.31 -0.39,-0.199 -0.432,-0.068 z"
       id="polygon120" />
    <path
       inkscape:connector-curvature="0"
       style="fill:none;stroke:#000000;stroke-width:0.05mm"
       d="m 21.727714,76.647166 -0.390001,0.199 -0.31,0.31 -0.199,0.39 -0.069,0.432 0.069,0.433 0.199,0.39 0.31,0.31 0.390001,0.199 0.432,0.068 0.432999,-0.068 0.39,-0.199 0.31,-0.31 0.199,-0.39 0.068,-0.433 -0.068,-0.432 -0.199,-0.39 -0.31,-0.31 -0.39,-0.199 -0.432999,-0.069 z"
       id="polygon122" />
  </g>
</svg>
